<svg class="svg-icon" style="width: 1em; height: 1em;vertical-align: middle;fill: currentColor;overflow: hidden;" viewBox="0 0 1024 1024" version="1.1" xmlns="http://www.w3.org/2000/svg"><path d="M118.528 387.5328c0 48.896 39.8336 89.6512 87.6032 89.6512s87.6544-40.96 87.6544-89.6512c7.9872-57.0368-39.8336-89.6-87.6544-89.6s-87.6032 40.704-87.6032 89.6zM951.6032 179.2c-31.8976 0-55.808 24.4736-55.808 48.896 7.9872 24.4224 31.8976 48.896 55.808 48.896 31.8464 0 55.7568-24.4736 55.7568-48.896S983.4496 179.2 951.6032 179.2z m-243.2 40.3456c47.8208 0 87.6544-40.96 87.6544-89.6s-39.8336-89.6-87.6544-89.6-87.6544 40.96-87.6544 89.6c-7.936 48.7424 31.8976 89.4464 87.6544 89.4464z m-365.1072 24.32c39.8848 0 79.6672-32.6144 79.6672-73.3184S391.1168 97.28 343.296 97.28c-39.8336 0-79.6672 32.5632-79.6672 73.3184s31.8976 73.2672 79.6672 73.2672z m394.9056 210.3296c0 40.96 31.8976 73.3184 79.6672 73.3184 39.8336 0 79.6672-32.6144 79.6672-73.3184s-31.8464-73.3184-79.6672-73.3184c-39.6288 0-79.6672 32.5632-79.6672 73.3184z m-197.7856-6.656c39.8336 0 63.744-32.8192 63.744-65.1776S572.3136 317.44 540.416 317.44c-39.8336 0-63.744 32.3072-63.744 64.9216s31.8976 65.1776 63.744 65.1776z m393.1648 139.3152c-8.5504 0-17.152 0-21.4016 4.4032-171.52 122.4704-325.888 34.9696-330.1888 30.72C260.4032 420.6592 46.08 634.88 46.08 634.88a22.784 22.784 0 0 0-8.5504 17.5104A33.1776 33.1776 0 0 0 46.08 669.952c8.6016 13.1584 25.6 8.7552 38.6048 0 4.3008-8.7552 180.0704-179.2 463.104-4.352 4.3008 4.352 72.9088 43.7248 171.52 43.7248 64.3072 0 145.7664-17.4592 227.2256-74.3424a32.9728 32.9728 0 0 0 4.3008-39.3728 22.1696 22.1696 0 0 0-17.2544-8.7552zM88.0128 178.688a64.4096 64.4096 0 0 0 63.744-65.1264A64.512 64.512 0 0 0 88.064 48.2816 64.4608 64.4608 0 0 0 24.32 113.4592 64.4096 64.4096 0 0 0 88.0128 178.688z m126.0544 589.568H141.7728v209.92h49.6128v-69.5296h24.064c43.4688 0 81.408-22.016 81.408-72.0384 0.1024-51.968-37.376-68.352-82.7904-68.352z m-1.0752 100.5568h-21.6064v-60.7232h20.224c23.808 0 37.0688 7.3728 37.0688 28.5184s-11.6224 32.2048-35.6864 32.2048z m229.2736-9.8816c-3.8912 12.1344-7.2192 25.6-11.3664 38.4h-1.3824c-3.8912-12.9536-7.2192-26.2656-11.3664-38.4l-32.6656-90.6752H332.032v209.92h44.288V906.24a706.2528 706.2528 0 0 0-6.3488-72.8576h1.1264l16.5888 50.2784 27.9552 76.8h27.136l27.6992-76.8 17.152-50.2784h1.1264A706.2528 706.2528 0 0 0 482.4064 906.24v72.192H527.36v-209.92H473.8048zM665.6 768.256h-36.3008a136.8576 136.8576 0 0 1-51.2 18.944v31.0784h37.9392v119.4496h-43.7248v40.704h130.0992v-40.704H665.6z m138.24-3.9424c-43.4176 0-72.8064 35.584-72.8064 107.8784s29.3888 110.1824 72.8064 110.1824 73.1136-37.8368 73.1136-110.1824-29.5936-107.8784-73.1136-107.8784z m0 179.2c-14.6432 0-26.2656-13.568-26.2656-71.2192s11.6224-69.1712 26.2656-69.1712 26.624 11.8784 26.624 69.1712-11.9296 71.1168-26.624 71.1168z" fill="#232632" /></svg>