<?xml version="1.0" encoding="UTF-8"?>
<svg id="Layer_1" data-name="Layer 1" xmlns="http://www.w3.org/2000/svg" version="1.1" xmlns:xlink="http://www.w3.org/1999/xlink" viewBox="0 0 382.6 461.3">
  <defs>
    <style>
      .cls-1, .cls-2, .cls-3, .cls-4, .cls-5, .cls-6, .cls-7, .cls-8, .cls-9, .cls-10, .cls-11, .cls-12, .cls-13, .cls-14, .cls-15, .cls-16, .cls-17, .cls-18, .cls-19 {
        fill-rule: evenodd;
      }

      .cls-1, .cls-2, .cls-4, .cls-6, .cls-7, .cls-13, .cls-14, .cls-20, .cls-15, .cls-21, .cls-17, .cls-19 {
        display: none;
      }

      .cls-1, .cls-11, .cls-19 {
        fill: #000;
      }

      .cls-1, .cls-20 {
        stroke: #000;
        stroke-miterlimit: 2.4;
        stroke-width: .2px;
      }

      .cls-2 {
        fill: #d8cebf;
      }

      .cls-2, .cls-3, .cls-4, .cls-5, .cls-6, .cls-7, .cls-8, .cls-9, .cls-10, .cls-11, .cls-12, .cls-13, .cls-14, .cls-15, .cls-16, .cls-17, .cls-18, .cls-19 {
        stroke-width: 0px;
      }

      .cls-3 {
        fill: #ca7b41;
      }

      .cls-4, .cls-18 {
        fill: #fd8646;
      }

      .cls-5 {
        fill: #858079;
      }

      .cls-6 {
        fill: #fd9a52;
      }

      .cls-7 {
        fill: #2d7599;
      }

      .cls-8 {
        fill: url(#radial-gradient-2);
      }

      .cls-9 {
        fill: url(#radial-gradient);
      }

      .cls-10 {
        fill: #fdcc8a;
      }

      .cls-12 {
        fill: #8d5f46;
      }

      .cls-13 {
        fill: url(#radial-gradient-3);
      }

      .cls-14, .cls-16 {
        fill: #ffc;
      }

      .cls-20 {
        fill: none;
      }

      .cls-15 {
        fill: #483759;
      }

      .cls-17 {
        fill: #ea1e1b;
      }
    </style>
    <radialGradient id="radial-gradient" cx="164.3" cy="622.7" fx="164.3" fy="622.7" r="64.8" gradientTransform="translate(0 792) scale(1 -1)" gradientUnits="userSpaceOnUse">
      <stop offset="0" stop-color="#e6e6e6"/>
      <stop offset="1" stop-color="#4d4d4d"/>
    </radialGradient>
    <radialGradient id="radial-gradient-2" cx="229.1" cy="627.4" fx="229.1" fy="627.4" r="59.4" gradientTransform="translate(0 792) scale(1 -1)" gradientUnits="userSpaceOnUse">
      <stop offset="0" stop-color="#e6e6e6"/>
      <stop offset="1" stop-color="#4d4d4d"/>
    </radialGradient>
    <radialGradient id="radial-gradient-3" cx="182.3" cy="571.5" fx="182.3" fy="571.5" r="53" gradientTransform="translate(0 792) scale(1 -1)" gradientUnits="userSpaceOnUse">
      <stop offset="0" stop-color="#fe9929"/>
      <stop offset="1" stop-color="#655237"/>
    </radialGradient>
  </defs>
  <g id="Layer_1-2" data-name="Layer 1">
    <g>
      <path class="cls-2" d="M181.7,5.6c-6.8,4.2-12.6,14.3-13.3,23.3-1.2,10.4,4.3,6.8-.5,15.8-3.6,9.6-10.1,15.2-3.9,17.2,3.9.8,3.7,3.1,3.7,3.1,0,0-1.1,4.3.3,9.5,2,6.2-.8,10.7,1.7,12.6,3.4,3.4,9.6,1.1,14.4,1.1,1.6,5-3.4,21.9-3.4,21.9-11,2.8-22.2,5.6-33.3,8.2,0,0-16.4-.9-25.4,11.6-13.6,14.7-10.9,48.5-10.9,48.5,0,0-12.3,36.1-12.3,45s-6.5,22.3-6.5,22.3c-12.6,8.8-12.1,27.4-16.9,42.5,10.9,6.5,19.4,8.8,30.6,10.7,8.1-17.1,19.7-34.6,19.7-53.8,3.9-10.9,7.4-21.6,11.2-32.4,0,0,9.3,32.7,8.7,45.4-.5,7.4-1.1,43.6-3.6,47.9,0,0-2.8,11.8-2.8,20.8s-3.1,26.1-11.2,52.1c-8.2,25.9-12.6,81.7-12.6,81.7h66.2c5.7-25,11.3-49.8,17.1-74.6-.6,25-1.4,50.1-1.9,75.4,20.3-.3,40.8-.6,61.4-.8,8.1-30.1,20.8-78.8,16.4-109.2-2.2-14.7-6-37.7-6-37.7,0,0,1.7-6.4,2-15.8-8.4-20.8,5-36.1,2-74.7,0,0,10.5,27,11.2,32.3,3.4,25,2.5,26.2,16.3,58,8.2-3.6,16.4-7,24.7-10.4-1.4-13.6-4.3-46.7-14.3-56.6-5-22.3-4.8-45.1-12.9-67.9,0,0,5.3-15-3.9-35-5.6-13.6-16.4-18-27.4-21.6-11.3-2.8-34-16.4-34-16.4-2-8.4-3.6-16.9-1.2-27.3,0,0,4.7-11,10.2-18.8,5.6-7.9,6.7-31.9-2.3-44.7-10.7-16.3-42.3-18.6-57.4-9.2Z"/>
      <path class="cls-14" d="M251,256.3c-2.6,0-4,2.2-3.7,4.5.5,6.7-3.6,15.4-8.7,19.2-4.8,3.4-6.8,9.3-6.2,15.2.9,1.7,1.9,3.6,2.8,5.3,0-2.9.6-3.6,3.6-3.6-1.4-.5-2.6-.9-4-1.4,0,0-1.2-4.5,0-5.7,1.4-1.2,4.5-2.8,5-4.8.5-2.2,3.3-8.2,5.9-9.8,5.9-4.3,5-12.4,5.4-18.9Z"/>
      <path class="cls-17" d="M190.1,12.4c-4,5.4,16.6,5,20.8,5.9,9.8,3.7,8.1,15.8,7.8,26.4-6.1-5-11.5-4.8-18.1-7.9-.2-1.2-.3-2.6-.3-3.9-.6,0-1.1-.2-1.7-.2-.2.9-.3,2-.3,3.1-1.9-1.2-2.3-2.2-2.6-4-.6,0-1.2.2-1.9.2.2,1.1.5,2,.6,2.9-3.3-.9-3.7-1.4-5.4-4.3.2,1.1.3,2.2.3,3.1-.8-1.2-1.7-2.5-2.6-3.9-2.9,8.1,23.7,9,31,17.2-.6,6.8-.9,13.5-.9,20.3-4.2-2-9-5-13.8-5.4-3.1-3.7-13.6-10.4-18.6-7,.6.3,1.1.6,1.9.9,1.6-1.7,3.9.6,5.6.6-.8.8-1.7,1.4-2.5,2,1.9,1.2.9-.8,2.8-1.2,1.4-.2,3.4.2,3.4.2-1.1.9-1.7,1.7-2.6,2.6.2.2.5.5.8.5.3-.3.8-.6,1.2-.9v2.2c2.5.6.8-.2,1.7-1.5,1.9-2.5,3.6.6,4.3,2.2-1.1.6-2,1.1-2.9,1.5,5.3,1.1,7.4-1.2,18.3,5.3,1.9,5.3.2,19.5-2.5,23.9-4.7,9-7,12.7-7,23.7.9,0,2,0,3.1-.2-.8-9.3,1.1-14.3,5.7-21.9,4.3-7.1,3.3-21.1,3.1-28.8,1.2-33.5,8.8-40.6-11.9-53.7h-2.2c1.2,1.2,2.6,2.5,4,3.9-2.2,0-4.3,0-6.4-.2-.3-1.1-.8-2.2-.9-3.3-.6,0-1.1-.2-1.5-.3.2,1.1.3,2,.3,3.3-1.4,0-2.6,0-3.9-.2-.2-.8-.2-1.6-.2-2.3h-.9c-.2.8-.3,1.6-.3,2.3-2.3.3-3.1-.6-3.1-2.8-.5-.2-1.1-.3-1.6-.3Z"/>
      <path class="cls-17" d="M192.9,85.7l2.8-.6c.9,11.5,2.9,22.6,5.3,33.8l-3.6.6-4.5-33.8Z"/>
      <g class="cls-21">
        <path class="cls-10" d="M163.9,265l-2.5,2.6s2.2,9,2.2,12.9.9,6.2,3.1,9.3c2.2,3.3,1.9,7.1,1.9,7.1,0,0,.9,2.9,4,6,3.3,3.1,7,7.6,7,7.6l14.6-10.7-2.9-6.2s-5.4-6.2-6.5-12.6c-1.1-6.4-3.9-16.9-3.9-16.9l-2-.6-14.9,1.4Z"/>
        <path class="cls-5" d="M163.6,265s4.8-.9,9.5-1.6c4.7-.8,5,1.4,5,1.4l-2.8.9-11.6-.8Z"/>
        <path class="cls-11" d="M171.2,263.4s-7.1,1.1-8.1,1.6c-1.1.6-1.2,1.2.9,1.9,2.3.5,5.7.5,9.5-.2,3.4-.6,6-.3,5.9-1.5-.5-1.1-2.5-1.4-2.5-1.4,0,0-1.1,1.7-2.6,1.7-1.6,0-3.1-2-3.1-2Z"/>
        <path class="cls-11" d="M193.2,299.9s-.6-1.1-2.9,0c-2.3,1.1-6.8,4.3-8.2,6.5-1.4,2.2-2.6,3.7-1.4,4.5,1.1.9,4.5-1.4,4.5-1.4l1.9-4.2.2-1.4s2.5-2.5,3.3-2.8c.8-.2,2.8-1.2,2.8-1.2Z"/>
        <path class="cls-16" d="M164.8,270.9c-.9,3.7,3.9,5.7,4.2,9-4.2,3.4,1.2,9.9,2.3,14.1,0,3.6,1.7,7.9,6.4,6.7,3.1-3.7.3-7.1-3.4-8.7,0,0,1.6-5.7-.5-7.3-2.8-2.2-2.3-2.6-1.7-5.7,0-3.1-.2-6.2-.5-9.5-3.3-1.6-4.8-1.6-6.8,1.4Z"/>
        <path class="cls-5" d="M179.2,267.2l-4.8,1.4v5.1s-1.2,2-.9,2.9c.5,1.1,2.9,2.5,2.9,2.5l-1.9,2.2s2.9.8,2.9,3.9-2,6-2,6c0,0,4-1.4,5.7.8,1.7,2,3.4,7,3.4,7l-2.5,4.8,7.4-4.8.9,1.2-5.6,5.1-.9,4.3s4.3-2.2,6-4c1.4-1.9,4.7-5.3,3.6-5.9-1.1-.9-2.6-1.7-2.6-1.7l-2.5-3.3-2.9-.3,2.3-2.9s-1.7-2.9-2.6-3.6c-1.2-.5-2.2-1.7-2.2-1.7,0,0,.5-4-.5-4.8-.9-.8-2.3-3.4-2.3-3.4,0,0,.5-2.9.3-4.8-.5-1.9-1.4-6-1.4-6Z"/>
        <path class="cls-5" d="M161.7,267.6s-.9,3.7-.2,5.7c.9,2.2,1.4,4.8,1.7,7.8.2,3.1.6,5.1,2.2,7.8,1.7,2.3,1.9,3.3,2.6,6.4.8,3.1,1.6,4.8,2.9,5.9,1.4,1.1,2,2.8,3.4,4.5,1.2,1.6,5.3,4.7,5.3,4.7l-5.3-7.4s-4.2-2.2-4.7-5c-.5-2.8.2-5,.2-5,0,0-3.7-3.9-4.7-7.4-1.2-3.4.9-5.6.9-5.6,0,0-3.7-6-3.7-7.8,0-1.9-.8-4.5-.8-4.5Z"/>
      </g>
      <g class="cls-21">
        <path class="cls-10" d="M256,258.9s-1.9-2.9-4.3-2.9-4.7,1.2-4.7,3.3.6,8.2-.9,11.6c-1.4,3.4-8.7,10.7-8.7,10.7,0,0-3.6,2.6-4.5,5.4-1.2,2.8-1.4,6.5-.5,9,.9,2.5,2.8,5.3,5,6.4,2,1.2,5.4.2,5.4.2l4.2-3.4-4.2,7.3.9,3.3s.6,1.7,2.2,1.9c1.9.5,3.7-1.2,3.7-1.2l6.4-12.9s1.9-8.7,1.2-11.2c-.6-2.5-.9-3.7-2.6-4.3-1.7-.5-5.9.6-5.9.6,0,0,6-8.1,6-12.7,0-5,1.2-10.9,1.2-10.9Z"/>
        <path class="cls-5" d="M254.3,256.9c2.8,2.2,1.2,4.2,1.2,7.1s.8,4.2.2,6.8c-1.9,8.1-9.5,14.9-14,21.6.8,1.1,1.7,2.6,2.6,3.7,2.3-3.3,7.1-5.1,8.7-8.4,1.6-2.9,2-4,2-4-.2,2-.3,4.3-.5,6.5-3.6,4.2-7.3,8.2-11.8,11.3,2.9-4.7-3.1-5.7-6.2-6,0,0,3.1-2,3.1-4.3,0-4.8,11-12.2,12.4-16.9,1.9-6.1,1.2-11.5,2.2-17.4Z"/>
        <path class="cls-5" d="M257.4,286.2c.5,6.2,0,10.2-2.6,15.8-1.7,2.6-3.4,5.4-5.1,8.1.2-1.2.5-2.6.9-3.9,2.3-3.9,6.2-11.2,6.2-15.5s.6-4.5.6-4.5Z"/>
        <path class="cls-5" d="M243.4,306.2s-.6,2.5-.2,3.6c.2,1.1,1.9,2.2,2.9,2,1.1-.5,2.5-1.9,2.5-1.9l-.9-2.2-4.3-1.5Z"/>
        <path class="cls-5" d="M232.7,287.6s-2,5.4-.9,8.4c1.7,4.8,4.2,8.5,9.9,7.1.8-.8,1.7-1.5,2.6-2.2,0,0-5.1,2.3-7.3.6-4.7-4.2-4.7-8.4-4.3-14Z"/>
        <path class="cls-11" d="M243.3,308.7c-.8-3.1,4.3-5,5.1-2.8.5,1.6.3,4.3-.2,4.7-.5.5-.3-2.2-2.5-2.2-2,0-2.5.3-2.5.3Z"/>
        <path class="cls-11" d="M254.6,289.3c-.5,4.6-6.5,10.1-9.8,13-1.4.3-2.8.6-4,1.1,3.1-2.3,6-5,8.2-8.4,2.5-1.4,4.5-3.1,5.6-5.7Z"/>
        <path class="cls-11" d="M249.5,282.2l-7.1,7.4-1.7,3.7-1.7,1.6,2.2-1.1,2.6,1.7-1.4-3.1s.5-.8,1.4-2.2c.9-1.4,5.7-8.1,5.7-8.1Z"/>
        <path class="cls-16" d="M244.7,291.5c.2-.3,2.8-5.7,4.8-7.6,2-1.9,2.8-2.2,4-1.7,1.2.3,1.7.9,1.7.9,0,0-2.8.3-3.6,1.1-.9.8-2.3,3.7-3.9,5.1-1.5,1.4-3.1,2.2-3.1,2.2Z"/>
        <path class="cls-16" d="M244.2,305.6c1.1-.2,2-.5,3.1-.5,1.2-4,3.7-8.2,5.7-11.9-3.7,4-6.2,7.8-8.8,12.4Z"/>
      </g>
      <g class="cls-21">
        <path class="cls-3" d="M251,226.1s-.5.3-1.2,2.3c-.5,1.9.3,3.9.9,5.9.8,2.2,2,7.4,2,7.4l.6,3.6s3.1-.5,3.7-4.3c.6-3.7-.2-10.2-1.6-12.3-1.2-2-4.5-2.6-4.5-2.6Z"/>
        <path class="cls-12" d="M249.8,226.7c2.5-3.6,7,.5,8.1,2.6,1.1,2.5,2.2,5.4,1.4,9.3-.2.5-4.3,10.4-6.4,6.7,0,0,3.3-3.9,3.3-6.5s-.8-8.2-3.3-10.4c-2.3-2.3-3.1-1.7-3.1-1.7Z"/>
      </g>
      <path class="cls-19" d="M200.5,233.8l-3.7,5.9s5.1,2.5,5.1,5-.6,14.1-.6,14.1l.6,6.2,8.5,3.6.3-6.8-.6-19.4-9.6-8.5Z"/>
      <g class="cls-21">
        <path class="cls-3" d="M234.7,222s-2.8-1.2-5.9.5c-3.1,1.9-3.6,5.1-3.6,6.8s1.4,7.1,2.8,8.4c1.4,1.4-.2,6.2-.2,6.2l.2,2.8s-2.3.2-2.3,3.3-.9,4.2-.3,6.5c.8,2.5,2.9,5.3,5.1,6,2.2.9,7.1.5,8.8-.5,1.7-.8,6.8-10.1,6.8-18s-3.7-17.5-5.7-19.2c-2-1.9-5.7-2.8-5.7-2.8Z"/>
        <path class="cls-12" d="M225,230.1c0,3.1.8,6.8,3.4,8.7,0,.8-.3,1.4-.3,2.2,2.6-1.2,5.1-2.8,8.1-2.8-.8-.6-1.4-1.2-2.2-1.7-6,1.1-5.6-3.9-9-6.4Z"/>
        <path class="cls-12" d="M227.9,243.6c2.5,4.3,6.7,5.6,11,6.8-1.6,0-3.3,0-4.8.2-7.8-4.2-9.1-1.4-8.1,6.8-2-4.3-2-8.8,1.9-11.8,0-.8,0-1.4,0-2Z"/>
        <path class="cls-12" d="M231.2,221.9c17.5-5.7,17.1,25,14,33.7-2.6,6.8-10.4,11.2-16.3,4.3,5,.3,8.7-.1,11.9-4.3-.3-.9-.6-1.5-.9-2.3,4.5-3.1,4.8-9.9.5-13.2,3.4-5,.9-7.8-3.3-11.3,2.8-5.6-1.7-5.9-5.9-6.8Z"/>
      </g>
      <path class="cls-9" d="M178.3,129.6c-17.1,2-27.4,28.4-29.5,42.5-1.9,13.5-2.8,31.9-.8,42,2,10.2,10.1,20,10.1,20,0,0,24-29.6,29.8-33.3,5.4-3.7,8.4-8.8,8.4-13.5s1.7-37.4,1.7-37.4c-3.6-5.9-10.5-21.4-19.7-20.3Z"/>
      <path class="cls-8" d="M209.5,134.9s3.3-10.4,10.7-9.9c21.1,1.2,39.5,44.8,41.9,62,.2,1.6,3.1,40.9-7.6,36.8,0,0-6.2-8.4-13.8-11.5-28.7-10.9-27.4-51.5-31.2-77.4Z"/>
      <path class="cls-17" d="M207.3,128.1c18-27.4,47.8-13.3,58.3,13.6,13,25,23.3,82.2,31.2,94.9,8.2,12.1,14,18.5,17.5,32.9-5-9.8-10.4-19.4-17.5-27.8.2,23.7,4.5,46.2,10.2,69.2-.9-.5-1.4.9-2.2.5-9.6-32.1-9.8-61.4-13.5-78.3-11.9-30.6-17.1-62.3-31.5-93.2-8.1-17.1-37.4-34.3-46.2-9l-6.4-2.8Z"/>
      <path class="cls-17" d="M205.6,127.8s-7-10.1-11.5-12.6c-25.3-15-47.6,25-54.4,39.1-10.5,21.6-21.1,61.9-30.4,85.4-13,17.5-22.2,27.1-29.6,49.8,1.1.3,1.9.8,2.6,1.2,7.6-18.5,12.6-30.1,26.7-44.4,2.6,18.8-1.4,33.7-7.9,51,.9.2,1.9.5,2.5.9,14.6-35.2,5-46.8,11.3-64.7,7.1-20.5,48.2-161.9,86.5-103.9,1.4-.6,2.8-1.2,4.2-2Z"/>
      <path class="cls-13" d="M235.4,206.1s-10.9,8.4-15.4,12.1c-8.1,6.7-5,13-19.4,12.1,0,0-.5,5-4.8,7.4-4.5,2.5-19.5,11.8-22,14.7-2.5,3.4-6.7,11.6-9.9,9.6-3.3-2-10.4-17.1-6.7-34,4.3-20.6,21.6-35.7,44-31.2,3.4.8,9.1,1.6,9.1,1.6,8.7-.8,19.9-.8,25,7.6Z"/>
      <path class="cls-17" d="M210.9,223.4v27.6c.3,19.7-2.8,29.6-11.2,46.8-10.9,16-21.1,29-34.4,43.1-3.4,1.6-7,3.1-10.4,4.5v2.3c2.2-.6,4.2-1.2,6.4-1.9-25.4,27.1-31,80.2-37.1,115.1,1.1-.2,2.2-.3,3.1-.5,7.9-37.8,11.6-82.2,36.6-113-5.4,15.5-7.6,29.2-9,45.3,5.4-25.6,8.4-47.8,28.7-65.8-20.6,45.4-31,85.1-42,133.5h3.4c15-60.9,29.8-103.9,57.8-159.1,0,0,9.8-16,12.1-15.2,29.8,38.9,21.4,112.6,16.7,174.3,1.1,0,2.2,0,3.4.2,2.6-42.6,9.6-89,4.2-131.5,17.5,19.2,15.7,34,8.8,56.9h1.4c2-7,4.2-14.1,6.4-21.1,7.1,13.3-6.2,78-8.5,95.4h3.3c5.4-32.3,17.5-80.8,6-112.3,2.3.5,4.7,1.2,7.1,1.9v-1.5c-15.4-6.5-31.9-45.6-38.3-59.6-1.2-7.4-2.3-14.7-3.3-22,0,0,7.6,6,8.1,7,.5.9,3.6,11.9,3.6,11.9.3-.5.8-.6,1.2-.9-1.2-3.7-2.2-6.4-1.2-10.5,1.4,2.3,2.9,4.5,4.5,6.7.3-.5.6-.9,1.1-1.2-.9-1.9-1.9-3.6-2.6-5.4,2,.5,4,.9,6,1.4.5-.5.6-.8,1.1-.9-1.1-.3-2.3-.5-3.4-.8,1.2-1.6,2.9-3.7,4.2-5.1,1.2,0,2.6,0,3.9.2-.8-.6-1.4-1.2-2-1.7-1.4.5-3.1.9-4.5,1.6,0,0-1.2,2.9-6.2,2.9-6,.2-10.9-5.6-14.1-9.6-.6-8.8-1.2-17.7-1.7-26.5,2,3.4,3.4,6.4,7.4,7.4.2-.8.5-1.7.6-2.5-3.1.9-7.3-12.7-7.8-14.9-3.7-4.5-4.7-3.1-9.5-2.3Z"/>
      <path class="cls-15" d="M198.6,153.2s-5.9-14.1-2.8-20.8c8.2-17.7,35.2-10.5,45.9,0,23.4,22.5,22.5,59.9,35.2,87.9,4.6,10.4,18.9,35.7,24.7,46.7,5.6,11.3,12.3,36.1,12.3,36.1,0-33.2-24.7-56.8-34.3-87-7.8-23.7-13.2-65.4-32.3-83.1,38,12.4,47,55.1,51.6,90.1,2.2,12.9,2.8,35.2,8.1,40.5,0,0-5.9-39.2-8.1-53.2-6.4-43.7-16.6-68.5-56.9-83.7-11.8-7.1-28.1-16.1-42-9-6,3.3-5.1,7.4-7.8,7.4s-2.2-7.4-2.2-7.4c-1.4-.2-2.9-.5-4-.9.2,2.3.5,4.7.6,7-7.1-7.4-17.8-1.9-23.3,4.5.9,1.6,1.6,2.9,2.3,4.3,7.8-6.8,20-10.2,21.4,4.3.9,9.6,2.8,11.6-.2,14.7-2.8,3.1-8.5,7.9-8.5,7.9.5.6,1.1,1.4,1.6,2,2.2-2.5,9.6-7.8,12.2-2.9,2-1.7,4.2-3.6,6.4-5.4Z"/>
      <path class="cls-15" d="M178.4,159.4c-2.6,2.6-4.8,12.2-5.9,16-.9,3.3-2.9,7-6.4,8.2,0,.6.2,1.4.2,2,2-.6,3.1,0,4.8.9.5-.5.6-.8.9-1.1-3.7-2.2-1.9-3.4,1.4-2.8,5-3.3-1.9.2-1.4-2,0-.9,2.9-6,2.9-6,.5,1.7.9,3.4,1.4,5.1.6-.5,1.1-.8,1.6-1.1-1.4-7.1-.2-11,2.2-17.5-.5-.6-1.1-1.2-1.7-1.7Z"/>
      <path class="cls-15" d="M176.4,178.9s0,1.7-.6,2.2c-.8.5-2.3,1.7-2.3,1.7,0,0,0,1.4-.5,2-.5.8-1.4.6-1.4.6l-.8,1.1s.2.8-.8,1.1c-.9.3-3.3.2-3.3.2,0,0-.9,2.2-.6,3.3,0,.9,2.2,2.3,2.2,2.8s-2.2,1.1-2.2,1.1l-.3.9s2.5-.2,3.3-.9c.6-.6,0-2.2,0-2.2,0,0-2-1.4-1.9-2.2.3-.8,1.4-.2,1.4-.2l2,2.5.8-.6s-2.5-2.3-2.2-2.9c.3-.8,1.2-.5,2.2-.8.8-.3,1.2-1.6,1.2-1.6l1.6,3.1.8-.8s-1.1-2-1.1-3.1.6-2.2.6-2.2l2.5,2.3.8-.6s-1.7-1.1-2.3-1.9c-.5-.8-.2-1.9.5-2.3.6-.5,1.1-.2,1.4.3.5.5,1.1,2.3,1.1,2.3,0,0,1.6,1.4,1.6,3.1-.2,1.7-.8,2-1.7,2.5-1.1.3-2,.3-2,.3,0,0,.3,1.7-.9,2.8-1.1.9-1.9.9-1.9.9,0,0-.6,2-2.3,2.5s-2.5-.5-2.5-.5l-1.1.9s-.5,1.1-.9,1.2c-.5.2-.8-.3-.8-.3l-.2,1.9s1.1-.2,1.9-.8c.8-.6,1.1-1.4,1.1-1.4,0,0,2,.5,3.4-.2,1.2-.8,1.9-2.3,1.9-2.3,0,0,1.7-.2,2.5-1.7.6-1.7,1.1-2.3,1.1-2.3,0,0,2.5.5,3.1-1.7.8-2.2-.3-4.3-.3-4.3l-2.3-6.5-1.6.6Z"/>
      <path class="cls-15" d="M178.9,183.6l-1.4,2.2s-.6.5-.9.8c-.3.3-2.6,3.6-2.6,3.6,0,0-.2,1.2-.9,1.4-.8.3-2.2.8-2.2.8l-1.9,1.4v1.2s2.6-2,3.1-2,1.4,1.9,1.4,1.9l.6-.9s-.2-1.9.5-2.5c.8-.8,1.7-1.2,1.7-1.2l.8-.2s-.9-.6,0-2c1.1-1.4,2.5-3.3,2.5-3.3l-.6-1.1Z"/>
      <path class="cls-15" d="M197.1,188.9s1.6,8.7.3,11.6c-1.1,2.9-7.9,5.9-12.9,7-4.8,1.2-8.7,2-10.7,5.3-2.2,3.3-9,11.6-10.5,14.1-1.7,2.3-2.8,4.3-2.8,4.3,0,0-1.6,3.1-1.6,5.9s.6,5.7.6,5.7c0,0-.3-5.1.9-8.1.9-2.6,1.6-3.7,1.6-3.7l.3,5.3.8-3.3,3.3,2.6s-2.5-2.9-2.8-4.2c-.3-1.2,0-2.9,0-2.9l2.2-2.3s1.1,2.3,1.9,3.3c.5,1.2,2.2,2,2.2,2,0,0-1.4-2.5-2-4-.6-1.7-.6-2.5-.6-2.5l2.8-3.1,3.1,5.6.2-1.7s-2-4.5-1.4-5.4c.6-.9,1.9-.9,1.9-.9,0,0,1.9.9,4,.3,2.2-.6,4-1.2,4-1.2l3.6,2-2.6-2.9,3.4-1.9,3.3,2.9-1.9-3.6,2.8-2.9s-4,2.3-5.1,2.5c-1.2.3-4.2,2.9-6.2,3.1-2.3.3-4.5.9-4.5-.6s.9-3.9,3.1-5c2.2-1.1,9-2,12.1-3.4,3.1-1.4,7.6-4.5,8.8-3.7,1.1.9,2,19.4,2,19.4h7.8l-1.6-31s-3.7-1.4-6.2-2.5c-2.3-1.2-3.4-2-3.4-2Z"/>
      <path class="cls-15" d="M197.7,238.6l5.1,5.1s.5,6.7-.2,9.3c-.8,2.8-1.4,4-1.4,4l-.8-13s-1.2-.9-2.8.2c-1.4,1.4-2.6,2.8-2.6,2.8,0,0-2,.3-2.3-1.1-.3-1.4.5-2.6.5-2.6l4.5-4.7Z"/>
      <path class="cls-15" d="M200.9,227.9c.5,2.3-.5,5.1-.9,7.6,3.1,3.4,6.4,6.2,10.2,8.7,0-1.2.2-2.3.2-3.6,0,0,5,2.6,9.6,2.6,5,.3,5.7-.6,9,2.5,0-1.4-.5-3.4-2.2-3.4.8-.6,1.7-1.2,2.6-1.9-9.5,1.7-22.6-.5-20.5-12.6-2.8,0-5.4,0-8.1,0Z"/>
      <path class="cls-15" d="M202.2,262.2l.2,29.9s6.4-11.3,7.1-15.5c.9-4.3,1.4-8.5,1.4-8.5l-5.3-8.4-3.4,2.5Z"/>
      <path class="cls-15" d="M148.7,460.5h3.1c.9-3.4,23.7-94,33.3-107.5,6.5,9.5-14.6,96-16.7,107.5l2-.3s18.3-75.5,18.8-87.5c.8-11.9,1.1-23.7,2.9-29.2,2-5.6,14.1-38.6,16.4-40.2,2.5-1.5,4.5-.3,6,3.6,6.2,16.7,11.2,32.9,6.2,50.7-9.1,34.1-11.3,67.9-14.1,103.3h2c.8-8.2,7.9-100.5,18.3-104.8,3.7-1.4-2.6,93.7-3.1,104.5h2.2s7.1-96.1,6.4-102c-2.2-24.5-7-41.4-17.1-64.4-.6-3.3-2.3-7.4-2.3-7.4-3.6,5.1-7,10.1-10.5,15,0,0-7.6,21.6-9.3,26.8-4.8,14.4-15.5,29.9-19.7,45-9.5,29.3-17.2,57.5-24.8,86.8Z"/>
      <path class="cls-15" d="M166.8,126.5c-59.7,2.9-61.1,125-75.4,167.5,1.1.2,2,.5,2.9.6,14.6-37.5,16.4-160.2,71.5-164.1l.9-4Z"/>
      <path class="cls-15" d="M164,128.2c-36.8,29.2-29,98.6-63,137.7-.3,2.2-.6,4.3-.9,6.4,37.7-31.9,33-123.9,66.7-140.8-.9-1.1-1.9-2-2.8-3.3Z"/>
      <path class="cls-17" d="M210.5,195.4s1.1,25.4.2,27.8c-.8,2.2-10.7,2.6-12.7.3-2.3-2.6,2.8-12.7-6.4-12.7,4.5,3.3,4.8,6.2,3.1,11.2-1.6-1.7-2.9-3.6-4.3-5.4,1.1,2.5,2.5,4.8,3.9,7.3-2.2,6.2-6.7,8.5-12.1,12.4-2.8.5-5.6.9-8.2,1.4,2.5-.3,5-.5,7.3-.6-2,1.9-4.2,3.7-6.4,5.7,1.2-.3,3.6-1.9,5-2,5.4-5.9,10.5-8.2,16.3-13.3,0,0,8.4,1.4,10.7,1.1,2.6-.5,9.5-3.9,9.5-3.9,0,0,3.9,2.8,5.7,5,5.1,6.1,21.4,6.7,29.3,6.7-2.6-1.9-2.6-1.4-.3-3.6-.5-.3-.8-.6-.9-.9-2.8,5.7-21.6.6-24.7-2.8-3.7-3.4-5.1-5.7-5.1-5.7-.5-8.7-.8-17.2-.9-25.9-3.1-.5-5.9-1.2-8.8-1.9Z"/>
      <path class="cls-15" d="M194,217.5c-.6,3.6-1.2,7.1-1.7,10.9,6.4,7.6,14.6,18.5,25.6,19.9,13.5,1.9,22.9-4.3,33.2-11.8,1.9.8-.5.3-.9,1.6-.3.6,2,.2,2,.2,0,.5.2.9.3,1.4-1.1,0-2.2-.2-3.1-.2-7.6,5.7-16.4,11.6-26.4,11.2-7.4-.2-15.2-3.4-18.1-6-3.1-2.6-11.6-11.9-12.9-13.3-1.1-1.2-2-2.5-6.4-.9-4.3,1.9-11.6,4-13.6,5.7-1.9,1.7-5.6,5.1-5.6,5.1,1.6-2,2.8-3.9,4-5.6-.9-.5-2-.9-3.1-1.7,4.7,1.2,8.7-.8,12.9-2.3-1.7-3.4-4.7-2.5-8.1-2,1.6-.6,2.9-.9,4.3-1.6v-4.7c.6,1.6,1.1,2.9,1.6,4.7,1.1.5,2.3,1.6,3.1,2.8,2.5-1.7,5.4-2.6,8.5-2.6v-1.7c-2.9.6-8.2-.2-8.8-3.9,1.6,1.6,3.9,2.8,5.9,2.3,0-1.1-.2-2.2-.2-3.6.5,1.4,1.1,2.5,1.9,3.6.8,0,1.7,0,2.6-.2.8-2.5,2-4.8,2.9-7.1Z"/>
      <path class="cls-17" d="M208.5,263.8s-7.6,7-10.9,9c-3.4,2.2-8.5,4.3-8.5,4.3,0,0-.8-.5-2-4.8-1.1-4.3-1.6-7.3-1.6-7.3l-2.3.3.5,7.3-6.4,3.6,3.4-.6,3.6-1.7,1.2,2.8s-3.4,2.3-4.3,2.6c-.6.5-4.3.2-4.3.2l2.9,1.7v5.1l2.6-4.7s2.2-3.1,3.1-3.3c.9-.2,2.8,3.3,2.8,3.3,0,0,2.9,2.2,2.9,4.2s-2.5,5.7-2.5,5.7l-3.1,5.9,3.7-4.3,5.6-6.4-5.6-7.8s7.9-2.8,10.5-5c2.8-2.3,10.1-8.7,10.1-8.7l-1.6-1.6Z"/>
      <path class="cls-15" d="M204.2,245.9s.6,5.6-1.4,9.6c-2.2,3.9-11.2,13.5-11.2,13.5,0,0-1.9-.5-1.9-2.2s-.6-3.7-.6-3.7l-2.6.9,1.4,5.9h-9.5l2.5,1.2s6.2.5,7.9,1.1c1.9.5,2,2.5,2,3.7s-2.5,9.3-2.5,9.3l-3.7,2.2,2.5.6,1.7-1.9v2.8h1.7s-.2-6,.5-7.9c.3-2,1.9-3.6,1.9-3.6l2.9,2.9-1.9,4.5.9.9,2.2-3.9,2.9,2,.3-2s-6.8-6.7-6.8-9.3,4.8-7.3,4.8-7.3l6.7-8.2s5.4,7.9,7.4,10.4c2,2.6,7,6.2,11.2,8.7,4.3,2.6,6.2,5.3,6.2,5.3l2.3,4.8s-1.1-4.3-1.1-6.4,6.8-2,6.8-2l6.1,2.6-1.7-2,3.1-.3s-5-.6-5.7-1.5c-.8-.6.5-1.9.5-1.9l2.5-2.6,4.2.5,1.9,1.6-.8-2.2,1.9-1.9-3.7,1.6-2.9-.5.8-2.8,4-.5,2.5-.8-2-.2.8-2.3-2,2.3-3.6.5-.2-1.7h-2.2s1.4,5.3-2.6,7.3c-3.9,2-6.4,4.7-11.5,2-5.3-2.5-11-6.5-14.9-12.6-3.9-6.2-5-15.5-5-15.5l-2.9-1.2Z"/>
      <path class="cls-17" d="M188.8,145.1s-15.4,1.7-21.1,8.2c-11.9,13.3-13,22.2-11.5,40,.5,4.7,1.4,11.9,8.5,7.1-.8-.3-1.2-.6-2-1.1-3.3,1.6-3.7-3.3-3.7-5.3,2.6,1.7,3.9,1.7,7.1,1.7-.8-2.6-5.7-.9-7.6-3.6-.9-.9-.6-5.4-.6-5.4,1.9,2,3.4,1.6,5.9,1.1-.3-.5-.6-.9-1.1-1.4-2.3,0-3.7-.2-4.2-2.6,2.3.8,4.7,1.9,7.1,2.2,0-3.1-3.3-1.9-5.1-3.7-7.4-17.5,16-32.1,28.4-33-.2-1.4-.2-2.8-.2-4.2Z"/>
      <path class="cls-17" d="M161.9,187.9s.8,2.5.3,2.9c-.5.6-2.2.2-2.2.2l-.6-3.3-1.1,5.6h.8s.9-1.9,1.9-1.4c.8.5,2.6,2.9,2.6,2.9l.8-.2-1.7-2.9s.9-.9.9-2-.8-2.3-.8-2.3l-.9.5Z"/>
      <path class="cls-17" d="M162,194.8l-.9,5.7,1.2-.5.8-4.8-1.1-.5Z"/>
      <path class="cls-17" d="M163.2,184.2l-.9,2,.9,2.3,2.6,1.6.5-1.7s-.9.2-1.9-.6c-.9-.8-.5-2.6-.5-2.6l-.8-.9Z"/>
      <path class="cls-15" d="M217.8,149.3s12.1-.9,16,2.9c3.7,3.9,4.8,12.3,6,20.5,1.2,8.4,3.9,10.4,5.6,11.6,1.9,1.2,1.2.9,1.2.9,0,0,2,2.6,2,4s-.3,2.6-.3,2.6c0,0,1.4.3,1.4.9v.9s-.6-1.1-1.7-1.1-.6,1.6-.6,1.6c0,0,1.4,1.6,1.7,1.4s.9-.3.9-.3l.2,2.3s-1.1-.5-1.4-.2c-.3.2-1.5.9-1.1,1.9.5,1.1,1.2,2,1.9,2s1.4-1.1,1.4-1.1l.8,1.2s-1.1-.2-1.1.8,1.9.3,1.9.3l.2,1.1s-1.1,0-2.5-.2c-1.2-.5-4-4.3-4-4.3,0,0,1.1-1.1,1.1-2.3s-.9-2.6-.9-2.6l-1.1-.2-1.4,2.2-.9-.5s1.9-2,1.9-2.5-.9-2.5-.9-2.5l.8-.5s.6,1.9,1.6,1.9,1.6-1.9,1.4-2.9c-.3-1.2-1.9-2.9-2.9-4-1.4-.9-3.1-2.5-3.1-2.5l-2.2-1.9s-2.2-13.3-2.8-17.1c-.9-3.9-2.6-8.1-4.5-9.5-1.9-1.4-5.1-2.3-8.2-2.3s-6.4.6-6.4.6l.3-3.4Z"/>
      <path class="cls-15" d="M239.2,179.2s.6,9.1.6,10.2.8,4.2,1.4,5c.8.9,5.4,5.4,5.4,5.4l.3-1.2-3.3-2.9s-2.2-2-2.2-2.9,0-1.9.6-2.2c.8-.2,2.2.9,2.2.9l.3-.9s-.8-.9,0-1.9c.5-.9,1.7-1.7,1.7-1.7l-.6-.6s-2,.6-2.3,1.2c-.2.8-.5,1.7-.9,1.7s-.9-.9-1.4-1.9c-.3-1.1,0-5.9,0-5.9l-1.9-2.3Z"/>
      <path class="cls-17" d="M208.7,141.4c-1.9,1.4-1.1,4-.2,5.7,2.9-.9,1.4,8.5,1.2,9.6.9,2.2,5.6,2.6,6.5-.2,0,0,.5-5.7,2.3-7.8,8.5-10.2,24.3,4.2,27.6,12.3,3.1,7.4,3.4,17.4,3.4,17.4-.5,1.4-2.6,6.7-1.4,7.8.3-1.6,2.5-6,4.3-2.5.3,1.2.5,2.5.8,3.7-1.4.5-2.6,1.1-3.7,1.7v.8c3.7-2,8.7,3.9,1.9,5.6,0,.6.2,1.1.3,1.6,5.9-2.3,4.7,4.3.9,5.7v1.1c3.9-.6,6.2-5.3,3.1-8.4.5-2.2,1.1-5.4-1.2-6.7,0-3.3-.8-6.5-2-9.1-1.2-17.8-5.4-38-29.5-38.6-2.8.3-9.1,3.7-9.1,3.7-1.7-1.1-3.4-2.2-5.3-3.4Z"/>
      <path class="cls-17" d="M248.2,184.8l2.5,4,1.1-.5s-1.1-1.2-1.1-1.7c.3-.3,2.2-2,2.2-2l-.5-1.4s-1.2,1.9-1.9,1.9c-.9,0-1.9-.9-1.9-.9l-.5.6Z"/>
      <path class="cls-17" d="M250.2,192.3l.3,1.4s1.4-.5,1.9.2c.3.5.5,2.9.5,3.9s-1.4,2.3-1.4,2.3l.6,1.1s1.4-1.1,1.7-1.7c0-.8-.2-5.1-.5-5.7-.3-.9-1.4-1.4-1.4-1.4l.6-3.3-.8.2s.2,1.2-.3,1.9c-.5.8-1.2,1.2-1.2,1.2Z"/>
      <path class="cls-17" d="M217.8,142.8c-.9-6-2.5-12.9-8.8-15.2-6.5-2.2-12.4,7.3-12.7,12.1-.3,3.9.8,17.8,6.5,18.3,3.4.3,6.7-1.7,6.7-4.2s-2.8-11.6-1.2-13c2.2-1.7,3.6,3.7,3.9,4.3,1.9.2,5.7.6,5.7-2.3Z"/>
      <g class="cls-21">
        <path class="cls-18" d="M198.1,150.9l-6.7,8.5s-1.6,11.2.3,17.1c2.3,6.2,2.3,10.4,8.5,13,6.4,2.8,17.1,7.1,23.3,7.1s9.3-.3,9.9-3.4c.6-3.1.8-14-2.2-18.3-2.9-4.3-11.3-18.3-11.3-18.3l-.5-5.3-13.8-3.4-7.6,2.9Z"/>
        <path class="cls-12" d="M191.6,157.1c-.9,8.5-2.8,24.5,4.7,30.7,5.7,4.7,21.6,9.9,29.2,9.5,2.6-.2,5.7-1.2,5.7-1.2,0,0-4.2-1.9-6-1.7-1.7.5-7-2-9.3-1.6-2.3.5-6.4,0-6.4,0,0,0,5.9-2.2,5.6-2.2s-9.3.8-9.3.8c0,0,4.2-2,3.7-1.9-.3.2-7.1-.2-7.1-.2,1.1-.5,2.3-.9,3.4-1.4,0,0-5.7,1.4-7.6-.8-7-7.4-6.4-13.8-6.4-23.7.5-1.9,1.2-4.5-.2-6.4Z"/>
        <path class="cls-12" d="M197.7,151.8s0,6-.3,7.9c-.5,1.9-2.6,4.2-2.9,5.6-.3,1.6-.6,3.6-.6,3.6,1.2-2.3,2.2-4.7,4-6.5-2,5.4-2.9,8.7-2.2,14.3.3-.6.5-1.4.8-2.2.2,1.6.3,3.1.5,4.8.5-1.4.8-2.6,1.2-4,.3,1.7.6,3.4,1.1,5,.8.2,1.7.3,2.6.5-.9.5-1.9.8-2.8,1.2,1.9.3,3.7.5,5.7.5-2,.5-3.9.6-5.7.9,1.7.3,3.4.6,5.3.9-1.2.5-2.5.9-3.9,1.2,0,0,5.3.3,5.7.6,4.3,2.8,8.1,3.4,13.2,3.9,0,0-9.5-3.9-10.7-5.3-1.4-1.4-5-5-5-5-1.1-.2-2-.5-3.3-.9,1.7-.5,3.3-.9,5.1-1.4h-5.1c-.2-1.1-.5-2.2-.6-3.3-.8-.5-1.4-1.1-2.2-1.6,0-1.4-.2-2.8-.2-4.2.9.9,1.9,1.7,2.8,2.3-1.1-2.8-1.9-4.7-1.2-7.8.9.6,1.9,1.2,2.8,1.7-2.6-3.6-2.8-6.5-2.8-10.9-.5-.5-.9-1.2-1.4-2Z"/>
        <path class="cls-12" d="M216.3,154.3s1.9,6.8,2.9,9c2.5,3.9,2,5.4-1.4,8.7,2.6-6.2-1.2-7-1.7-11.3-.2-2,.2-6.4.2-6.4Z"/>
        <path class="cls-12" d="M219.1,152.9c.6,5.3,3.6,12.7,3.4,17.7-.5,5.6,2.9,10.4,5,15.5.2-.3-2.5-10.1-2.5-13,3.4,5.3,12.1,17.5,4,22.3,1.5.9,3.9,1.4,5-1.1,5.6-13.3-5.6-27.1-12.7-37.2-.5-1.6-.9-3.1-1.4-4.8-.3.3-.5.5-.8.6Z"/>
        <path class="cls-12" d="M221.4,173s-.9.2-2.6,1.6c-1.6,1.1-2,2.8-2,2.8l1.9-1.1,2.6-2,.2-1.2Z"/>
      </g>
      <path class="cls-15" d="M187.6,80.5c4.7,8.5-.5,23.7-1.9,32.7l4.3.6c2.5-13.2,4.8-21.7,1.1-34.6l-3.6,1.2Z"/>
      <path class="cls-15" d="M213,115s8.1-18.9,8.1-28.5c3.9-9.6-9.6-10.1-19.2-11.6-7.3-3.6-7.6-5.4-10.9-8.7,2.3,1.7,4.8,3.3,7.1,5v-6c1.9,6,3.3,9,10.5,9s14.3,3.1,15,3.3c1.4-11,6-19.7,5.3-30.2-1.1-8.2-14.3-13.3-20.9-16.4h4c7.6,3.7,18.9,6.8,18.9,17.4.6,14.1-7,26.4-7.6,44.5-.8,8.2-6.8,23.1-6.8,23.1-1.2-.2-2.3-.5-3.6-.6Z"/>
      <path class="cls-15" d="M195.7,9c10.7-1.9,30.9-2.6,32.4,12.1.5,3.9-.6,20-.6,20-.6-.6-1.4-1.4-2-2,0,0,2.9-16.6-.5-22-5.6-9.5-20-8.1-29.3-8.1Z"/>
      <path class="cls-15" d="M212.7,31.1c-9.5-4.3-15.2-5.9-25.7-4.8-.9.6-1.9,1.4-2.9,1.9,1.2-.3,2.6-.5,3.9-.9.2,1.1.5,2.3.6,3.4.3-.9.8-1.9,1.2-2.8.9-.2,1.7-.2,2.8-.5-.8,1.2-1.1,2.2-1.6,3.1,1.7,0,.6,0,1.9.8,0-2,1.1-2.6,2.2-4,1.4.2,2.6.5,4,.5-.9,1.4-1.7,2.8-2.5,4,1.2-1.1,2.5-2.2,3.9-3.4-.6,1.4-1.2,2.8-1.9,4.3.5,0,.9.2,1.6.3.6-1.2,1.2-2.8,1.9-4.2,4.3,1.2,6.7,2.6,10.7,2.3Z"/>
      <path class="cls-15" d="M206.2,8l-11,.8-4.3,2.6-1.1,1.2h2.2l2.9-2.2v2.8h1.1l.9-2.8,2.6-.6v2.6l2.2.2v-3.3l2.9,2.8,2.5.5-3.3-3.9h4.7l-2.3-.8Z"/>
      <path class="cls-15" d="M184.2,55.3s-.2,2.2.5,3.4c.5,1.2,3.4,5.6,4.3,6.7.8,1.2,7.9,6.4,7.9,6.4l-1.4-2-4.2-3.4,4-4-4.5,2.6s-1.2-.2-.5-.9c.8-.9,3.1-2.8,3.1-2.8l-1.7-.6s-.5,1.5-.9,2-1.9.6-1.9.6l-1.4-1.6,2.3-2.6-1.1-.5-1.7,1.9s-1.6-.8-1.6-2.2v-2.9s-1.4,0-1.4,0Z"/>
      <path class="cls-7" d="M213.3,117.7c-9.5-1.6-15.4,1.2-19.8,9.6.2,1.7.2,3.1.5,4.7,4.3-9.6,9.8-11.5,19.4-14.3Z"/>
      <path class="cls-7" d="M188.4,127.1s1.2,13.6,2.3,16.6c2,5.3,1.2,5.6-2,9.1,2.2,1.4,3.3,2.8,6-.6-2.2-7.8-2.5-18.1-6.4-25.1Z"/>
      <path class="cls-7" d="M200.8,194.1l2.2,29.5h3.1l-1.6-28.8-3.7-.6Z"/>
      <path class="cls-7" d="M203.9,229.6l-.2,8.1,3.1,2.9-.8-6s1.7,2.3,2.9,3.6c1.1,1.2,4.5,2.3,4.5,2.3,0,0-5-4.5-5.7-5.9-.5-1.4-1.1-5.1-1.1-5.1l-2.8.2Z"/>
      <path class="cls-7" d="M205.3,248.4c-.5,9.9,6.5,17.5,13.8,23.3-3.4-4-9.9-11-11-15.7-.8-2.9-2.8-7.6-2.8-7.6Z"/>
      <path class="cls-7" d="M204.5,267l.2-3.4,1.2-.6,1.2,2.3-2.6,1.7Z"/>
      <path class="cls-7" d="M204.8,270.4l.3,16.3,3.4-7.8-.8-11.5-2.9,2.9Z"/>
      <path class="cls-7" d="M196.1,324.5c5.1-7.4,11.2-21.2,12.4-29.9-5.3,8.2-9.2,20.6-12.4,29.9Z"/>
      <path class="cls-7" d="M220.3,314.9c2.8,11.2,5.4,22.6,5.7,34.1,3.9.6,4.7,7.6,5.3,10.9-1.6-12.7-4.3-34.3-11-45Z"/>
      <path class="cls-7" d="M185.1,125.1s-4-4-6.2-4c-8.7,0-17.4,11.9-22.3,17.7,12.7-11.5,20.2-18,28.5-13.6Z"/>
      <path class="cls-19" d="M211.5,142.2s-.6-2.2-1.7-2.8c-1.2-.5-2.5-.3-2.6,2.3-.5,2.5.6,7.1.6,9s.5,5.4.5,5.4c0,0,1.2-1.9,1.2-3.1s-1.7-8.2-1.2-9.9c.5-1.9.9-2.8,1.7-2.3.5.6,1.6,1.4,1.6,1.4Z"/>
      <path class="cls-19" d="M215,158s2.5-8.1,3.4-9.1c.9-1.2,3.3-2.9,5.9-3.3,2.6-.2,4-.5,6,.2,2,.6,6,3.6,6,3.6,0,0-4.3-2.9-7.4-2.9s-6.8.8-8.1,1.7c-1.1.9-4.3,7.6-4.3,7.6l-1.6,2.3Z"/>
      <path class="cls-6" d="M200,145.4c.9,3.9-.6,8.5,3.9,9.3,0,0,2.5-1.4,1.4-5.7-2-7.3-.6-24.3,9.3-10.9-2.9-14.9-18.3-4.7-14.6,7.3Z"/>
      <path class="cls-6" d="M209.5,144.8c5,2.8,3.1,7.9,2.2,12.6.5.3,1.1.6,1.7.8,3.3-11.3,5.3-15,18.8-13.8-6.5-2.6-10.7-2-16.4,1.4-1.9,1.4-5.3-1.9-6.5-2.8,0,.6.3,1.2.3,1.9Z"/>
      <path class="cls-6" d="M187.4,146.2c-11.2,1.9-20.2,6.5-26.2,16.7,4.5-5.1,13.5-13.5,26.4-15.4-.2-.5-.2-.9-.2-1.4Z"/>
      <path class="cls-6" d="M222.6,115.7c16.3-4.3,31.9,7.3,38.1,18.5-14.6-12.1-13.8-17.1-38.1-18.5Z"/>
      <path class="cls-4" d="M201.2,225.9c3.1.2,6.4.3,9.1-1.1-.3,3.9-7.1,2.2-9.1,1.1Z"/>
      <path class="cls-6" d="M213.3,197.5c.2,14,.2,27.8.3,41.6,1.4.5,2.9.9,4.5,1.4-.5-4.8-.6-10.5-1.4-15.2,1.9,3.9,4,8.4,6.4,11.9-1.6-4-3.3-8.4-4.5-12.4,2.8,3.1,4.8,4.7,8.5,6.7-12.6-10.2-10.4-19.2-10.9-33.8-.9,0-2,0-2.9-.2Z"/>
      <path class="cls-4" d="M214,243.8v4l2.8.5v-4l-2.8-.5Z"/>
      <path class="cls-4" d="M214.3,251.4v14.1c1.1.9,2,2,3.1,3.1,0,0-.6-9-.6-11.2,0-2.9.5-5-2.5-6Z"/>
      <path class="cls-4" d="M219.2,261.1c.6,4.3,8.7,9.8,12.3,12.4.2.6.5,1.2.8,1.9,0-.6.2-1.4.2-2.2.8.5,1.4.8,2.3,1.1-.3-.5-.5-.8-.5-1.1.9-.5,1.9-.6,2.9-.9,0,0-4.2-.2-6-.5-3.7-.9-9.5-7.8-11.9-10.7Z"/>
      <path class="cls-4" d="M199.8,300c5.4-7.1,17.8-19.1,16.3-28.7-.9-.9-1.9-1.9-2.8-2.8-2.2,11.5-8.1,20.5-13.5,31.5Z"/>
      <path class="cls-6" d="M235.8,331.8c-.2-3.6.8-7.1-.6-12.2,2.6,4.3,4.2,6,8.7,9.9-10.5-16.6-15.4-26.4-21.7-43.6-.9-2.8-1.2-9.1-1.2-9.1-6.2,11,11.6,30.9,14.9,55Z"/>
      <path class="cls-20" d="M208.2,108.4h67.1"/>
      <path class="cls-20" d="M202,138.1h115.7"/>
      <path class="cls-20" d="M249.3,167.8h68.4"/>
      <path class="cls-20" d="M190.5,138.1h-104.8"/>
      <path class="cls-20" d="M203.9,214.6h-118.2"/>
      <path class="cls-20" d="M286.4,214.6h31.3"/>
      <path class="cls-20" d="M203.9,226.5l61.7,19.1h52.1"/>
      <path class="cls-20" d="M236.1,409.2h39.2"/>
      <path class="cls-20" d="M165.3,409.2h-79.6"/>
      <path class="cls-1" d="M280.9,105.1c.2-.3.2-.8,1.1-.8s1.1.3,1.1.6c0,.5-.2.6-.3.6l-1.4.2c-1.2.2-1.2,1.1-1.2,1.4,0,.8.5,1.4,1.4,1.4s1.2-.5,1.7-.8c0,.3,0,.8.6.8s.3-.2.5-.2v-.6h-.3q-.2,0-.2-.2v-2.6c0-1.1-1.4-1.2-1.7-1.2-1.1,0-1.9.3-1.9,1.4h.6M283.1,106.8c0,.6-.6,1.1-1.4,1.1s-.8-.5-.8-.9.6-.6.9-.6c.9-.2,1.1-.3,1.2-.3v.8M286.8,107.4h-.9v.9h.9v-.9M294.1,105.4c0-.9-.5-1.7-1.7-1.7s-2.2,1.1-2.2,2.5.8,2.3,2,2.3,1.9-1.1,1.9-1.7h-.8c-.2.6-.6.9-1.1.9-1.1,0-1.2-.9-1.2-1.7s.3-1.7,1.4-1.7.9.3.9,1.1h.8M296.1,105.1c0-.3.2-.8.9-.8s1.1.3,1.1.6c0,.5-.2.6-.3.6l-1.4.2c-1.1.2-1.2,1.1-1.2,1.4,0,.8.6,1.4,1.4,1.4s1.2-.5,1.7-.8c0,.3,0,.8.6.8s.3-.2.5-.2v-.6h-.2q-.3,0-.3-.2v-2.6c0-1.1-1.4-1.2-1.7-1.2-1.1,0-1.9.3-1.9,1.4h.8M298.2,106.8c0,.6-.6,1.1-1.4,1.1s-.8-.5-.8-.9.6-.6.9-.6c.9-.2,1.1-.3,1.2-.3v.8M301.7,105.7c0-.8.3-1.2,1.1-1.2h.3v-.8h-.3c-.5,0-.9.3-1.2.8v-.6h-.6v4.5h.8v-2.6M303.9,106c0,1.2.6,2.5,2.2,2.5s2-1.2,2-2.5-.6-2.3-2-2.3-2.2,1.2-2.2,2.3M304.7,106c0-.6.3-1.7,1.4-1.7s1.2,1.1,1.2,1.7-.2,1.7-1.2,1.7-1.4-1.1-1.4-1.7M311.2,104.5v-.6h-.8v-1.4h-.6v1.4h-.8v.6h.8v2.9c0,.5.2,1.1.8,1.1s.3-.2.6-.2v-.6h-.3c-.2,0-.5,0-.5-.3v-2.9h.8M313.2,103.9h-.8v4.5h.8v-4.5M313.2,102.9v-.8h-.8v.8h.8M318.2,105.1c0-.2-.2-1.4-1.7-1.4s-1.7.3-1.7,1.4.5.9.9,1.1l.9.3c.6,0,.9.3.9.6,0,.5-.5.6-.9.6-1.2,0-1.2-.5-1.2-.9h-.8c0,.6.2,1.7,2,1.7s1.7-.6,1.7-1.6-.3-.9-1.2-1.2l-.8-.2c-.6-.2-.9-.2-.9-.6s.8-.6.9-.6c1.1,0,1.1.5,1.1.8h.8M325.8,105.4c0-.9-.5-1.7-1.7-1.7s-2.2,1.1-2.2,2.5.8,2.3,2,2.3,1.9-1.1,1.9-1.7h-.8c-.2.6-.6.9-1.1.9-1.1,0-1.2-.9-1.2-1.7s.3-1.7,1.2-1.7,1.1.3,1.1,1.1h.8M326.7,106c0,1.2.8,2.5,2.2,2.5s2.2-1.2,2.2-2.5-.8-2.3-2.2-2.3-2.2,1.2-2.2,2.3M327.5,106c0-.6.3-1.7,1.4-1.7s1.4,1.1,1.4,1.7-.2,1.7-1.4,1.7-1.4-1.1-1.4-1.7M332.3,108.4h.8v-2.5c0-1.2.9-1.6,1.2-1.6.6,0,.8.5.8.8v3.3h.8v-2.8c0-.6.3-1.2,1.1-1.2s.8.5.8,1.1v2.9h.8v-3.3c0-1.2-.9-1.4-1.4-1.4s-1.1.3-1.4.6c-.2-.2-.3-.6-1.2-.6s-1.2.5-1.4.8v-.6h-.8v4.5M340,108.4h.8v-2.5c0-1.2.8-1.6,1.2-1.6s.8.5.8.8v3.3h.8v-2.8c0-.6.5-1.2.9-1.2s.8.5.8,1.1v2.9h.9v-3.3c0-1.2-.9-1.4-1.4-1.4-.8,0-1.1.3-1.4.6-.2-.2-.5-.6-1.2-.6s-1.2.5-1.4.8v-.6h-.8v4.5M351.4,108.4v-4.5h-.8v2.5c0,.6-.2,1.4-1.2,1.4s-.8-.2-.8-.9v-2.9h-.8v3.3c0,.9.8,1.4,1.4,1.4s1.2-.3,1.6-.8v.6h.6M356.8,105.1c0-1.1-.9-1.4-1.6-1.4-.9,0-1.2.5-1.4.8v-.6h-.8v4.5h.8v-2.5c0-1.2.8-1.6,1.1-1.6.9,0,1.1.3,1.1,1.2v2.8h.8v-3.3M359.1,103.9h-.8v4.5h.8v-4.5M359.1,102.9v-.8h-.8v.8h.8M364.1,105.1c0-.2,0-1.4-1.5-1.4s-1.9.3-1.9,1.4.5.9,1.1,1.1l.9.3c.6,0,.9.3.9.6,0,.5-.6.6-1.1.6-1.1,0-1.1-.5-1.1-.9h-.9c0,.6.2,1.7,2,1.7s1.9-.6,1.9-1.6-.5-.9-1.4-1.2l-.8-.2c-.6-.2-.8-.2-.8-.6s.6-.6.9-.6c.9,0,1.1.5,1.1.8h.6"/>
      <path class="cls-1" d="M324.1,134.9c0-.3.2-.9,1.1-.9s1.1.3,1.1.8-.3.6-.5.6h-1.2c-1.2.3-1.4,1.1-1.4,1.6,0,.8.6,1.4,1.4,1.4s1.4-.5,1.7-.9c0,.5.2.9.8.9s.3-.2.5-.2v-.6h-.3c-.2,0-.3-.2-.3-.2v-2.8c0-1.1-1.2-1.1-1.6-1.1-1.2,0-1.9.3-1.9,1.4h.6M326.2,136.4c0,.6-.8,1.2-1.4,1.2s-.9-.5-.9-.9.6-.8,1.1-.8c.9,0,1.1-.2,1.2-.2v.6M329.6,135.4c0-.6.5-1.2,1.1-1.2h.5v-.6h-.3c-.6,0-.9.3-1.2.8v-.8h-.8v4.7h.8v-2.8M335.7,135c0-.8-.5-1.6-1.7-1.6s-2.2,1.1-2.2,2.5.8,2.3,2.2,2.3,1.7-1.1,1.7-1.9h-.6c-.2.8-.6,1.1-1.1,1.1-1.2,0-1.2-1.1-1.2-1.7s.3-1.7,1.2-1.7.9.3,1.1.9h.6M340.7,138.1v-4.7h-.8v2.5c0,.8-.2,1.6-1.1,1.6s-.9-.2-.9-1.1v-2.9h-.8v3.3c0,1.1.8,1.6,1.4,1.6s1.2-.3,1.5-.9v.8h.6M345.6,134.9c0-.3,0-1.4-1.5-1.4s-1.9.3-1.9,1.4.5.9,1.1,1.1l.9.3c.6,0,.9.2.9.5,0,.6-.6.8-1.1.8-1.1,0-1.2-.6-1.2-.9h-.8c0,.6.2,1.7,2,1.7s1.7-.6,1.7-1.6-.3-1.1-1.2-1.2l-.8-.2c-.6-.3-.8-.3-.8-.8s.6-.6.9-.6c.9,0,.9.6.9.9h.8M350.4,134.9c0-.3,0-.9.9-.9s1.1.3,1.1.8-.2.6-.3.6h-1.4c-1.2.3-1.2,1.1-1.2,1.6,0,.8.5,1.4,1.4,1.4s1.2-.5,1.6-.9c0,.5.3.9.8.9s.3-.2.5-.2v-.6h-.2c-.3,0-.3-.2-.3-.2v-2.8c0-1.1-1.4-1.1-1.7-1.1-1.1,0-1.9.3-1.9,1.4h.8M352.4,136.4c0,.6-.6,1.2-1.4,1.2s-.9-.5-.9-.9.8-.8,1.1-.8c.9,0,1.1-.2,1.2-.2v.6M354.8,135.8c0,1.1.6,2.5,2.2,2.5s2-1.4,2-2.5-.6-2.3-2-2.3c-1.6,0-2.2,1.1-2.2,2.3M355.5,135.8c0-.8.3-1.9,1.4-1.9s1.2,1.1,1.2,1.9-.2,1.7-1.2,1.7-1.4-1.1-1.4-1.7M361.3,135.4c0-.6.3-1.2,1.1-1.2h.3v-.6h-.2c-.6,0-.9.3-1.4.8v-.8h-.6v4.7h.8v-2.8M365.8,134.1v-.6h-.8v-1.2h-.6v1.2h-.8v.6h.8v3.1c0,.5.2,1.1.9,1.1,0,0,.2-.2.5-.2v-.8h-.3c-.2,0-.5,0-.5-.3v-2.9h.8M367.8,134.9c0-.3,0-.9.9-.9s1.1.3,1.1.8-.2.6-.3.6h-1.4c-1.2.3-1.2,1.1-1.2,1.6,0,.8.5,1.4,1.4,1.4s1.2-.5,1.5-.9c0,.5.3.9.8.9s.3-.2.5-.2v-.6h-.2c-.3,0-.3-.2-.3-.2v-2.8c0-1.1-1.4-1.1-1.7-1.1-1.1,0-1.9.3-1.9,1.4h.8M369.8,136.4c0,.6-.6,1.2-1.4,1.2s-.9-.5-.9-.9.8-.8,1.1-.8c.9,0,1.1-.2,1.2-.2v.6M375.5,136.6c-.2.3-.5.9-1.2.9s-1.2-.6-1.2-1.6h3.3c0-1.6-.6-2.5-2-2.5s-2.2,1.1-2.2,2.5.8,2.3,2,2.3,1.1-.3,1.2-.5c.6-.3.8-.9.8-1.2h-.6M373.1,135.4c0-.6.5-1.2,1.2-1.2s1.2.6,1.2,1.2h-2.5"/>
      <path class="cls-1" d="M325,167l-1.1-3.7h-.9l1.6,4.5h.9l1.7-4.5h-.8l-1.4,3.7M329.8,167l-1.1-3.7h-.9l1.7,4.5h.8l1.7-4.5h-.8l-1.4,3.7M333.5,166.8h-.9v.9h.9v-.9M338,165.7c0-.8.2-1.9,1.2-1.9s1.1,1.1,1.1,1.6c0,1.1-.3,1.9-1.1,1.9s-1.2-.3-1.2-1.6M337.2,169.6h.8v-2.3c.2.3.6.8,1.2.8,1.6,0,2-1.6,2-2.6s-.8-2.3-2-2.3-1.1.6-1.2.8v-.6h-.8v6.4M346.2,167.8v-4.5h-.6v2.5c0,.6-.3,1.6-1.4,1.6s-.8-.2-.8-1.1v-2.9h-.8v3.3c0,1.1.8,1.6,1.6,1.6s1.1-.5,1.4-.9v.6h.6M348.7,161.6h-.8v6.2h.8v-6.2M350.4,167.8h.8v-2.5c0-1.1.8-1.4,1.2-1.4s.6.3.6.8v3.1h.8v-2.8c0-.6.5-1.1,1.1-1.1s.9.3.9.9v2.9h.8v-3.1c0-1.2-.9-1.6-1.4-1.6-.8,0-1.2.3-1.4.8-.3-.2-.5-.8-1.2-.8s-1.2.6-1.4.8v-.6h-.8v4.5M357.9,165.4c0,1.2.8,2.6,2.2,2.6s2-1.4,2-2.6-.6-2.3-2-2.3c-1.4,0-2.2,1.2-2.2,2.3M358.6,165.4c0-.6.2-1.7,1.4-1.7s1.4,1.1,1.4,1.7-.3,1.9-1.4,1.9c-1.2,0-1.4-1.1-1.4-1.9M367.2,164.7c0-1.2-.8-1.6-1.6-1.6s-1.2.6-1.4.8v-.6h-.8v4.5h.8v-2.5c0-1.1.8-1.4,1.2-1.4s.9.3.9,1.1v2.8h.8v-3.1M369.5,164.5c.2-.3.2-.8,1.1-.8s1.1.3,1.1.8-.3.5-.5.5l-1.2.2c-1.2.3-1.2,1.1-1.2,1.6s.5,1.4,1.4,1.4,1.2-.5,1.5-.9c0,.5.2.8.8.8s.3,0,.3-.2v-.5h-.2c-.2,0-.3-.2-.3-.2v-2.8c0-1.1-1.2-1.2-1.5-1.2-1.1,0-1.9.5-1.9,1.4h.6M371.7,166.2c0,.6-.8,1.1-1.4,1.1s-.9-.3-.9-.8.8-.8.9-.8c1.1,0,1.1-.2,1.4-.3v.8M374.9,161.6h-.8v6.2h.8v-6.2M377.4,163.3h-.8v4.5h.8v-4.5M377.4,162.5v-.9h-.8v.9h.8M382.4,164.5c0-.2-.2-1.4-1.7-1.4s-1.7.5-1.7,1.4.3.9.9,1.2l.9.2c.6.2.9.3.9.6,0,.6-.5.8-1.1.8-1.1,0-1.1-.6-1.1-.9h-.9c0,.5.3,1.7,2,1.7s1.9-.8,1.9-1.7-.3-.9-1.2-1.1l-.8-.3c-.6-.2-.9-.2-.9-.6s.8-.6.9-.6c.9,0,1.1.5,1.1.8h.8"/>
      <path class="cls-1" d="M324.1,211.5c0-.5.2-.9,1.1-.9s1.1.3,1.1.8-.3.5-.5.5l-1.2.2c-1.2.2-1.4,1.1-1.4,1.6s.6,1.4,1.4,1.4,1.4-.5,1.7-.9c0,.5.2.8.8.8s.3-.2.5-.2v-.5h-.3c-.2,0-.3-.2-.3-.3v-2.6c0-1.1-1.2-1.2-1.6-1.2-1.2,0-1.9.5-1.9,1.6h.6M326.2,213c0,.6-.8,1.1-1.4,1.1s-.9-.3-.9-.9.6-.6,1.1-.6c.9-.2,1.1-.2,1.2-.3v.8M329.8,213.7h-.9v.9h.9v-.9M334.3,214.6v-.5c.2.2.5.8,1.2.8,1.6,0,2-1.7,2-2.8s-.6-2.2-2-2.2-.9.2-1.1.8h-.2v-2.3h-.8v6.2h.8M336.6,212.3c0,.9-.2,1.9-1.1,1.9s-1.2-.3-1.2-1.6.2-1.9,1.2-1.9c1.1,0,1.1,1.1,1.1,1.6M339.9,212c0-.6.5-1.2,1.1-1.2h.3v-.8h-.2c-.6,0-1.1.3-1.2.8v-.6h-.8v4.5h.8v-2.6M343,211.5c.2-.5.2-.9,1.1-.9s1.1.3,1.1.8-.3.5-.5.5l-1.2.2c-1.2.2-1.4,1.1-1.4,1.6s.6,1.4,1.4,1.4,1.4-.5,1.7-.9c0,.5.2.8.8.8s.3-.2.3-.2v-.5h-.2c-.2,0-.3-.2-.3-.3v-2.6c0-1.1-1.2-1.2-1.5-1.2-1.1,0-1.9.5-1.9,1.6h.6M345.2,213c0,.6-.8,1.1-1.4,1.1s-.9-.3-.9-.9.6-.6.9-.6q1.1-.2,1.4-.3v.8M351.4,211.7c-.2-.9-.6-1.7-1.9-1.7s-2,1.1-2,2.5.6,2.5,1.9,2.5,1.9-1.2,2-1.9h-.9c0,.6-.5,1.1-1.1,1.1-.9,0-1.1-1.1-1.1-1.9s.3-1.6,1.2-1.6.9.3.9.9h.9M356.2,211.5c0-1.2-.8-1.6-1.5-1.6s-1.1.5-1.4.8v-2.3h-.8v6.2h.8v-2.5c0-1.1.6-1.4,1.2-1.4s.9.3.9.9v2.9h.8v-3.1M358.6,210.1h-.8v4.5h.8v-4.5M358.6,209.3v-.9h-.8v.9h.8M361,211.5c.2-.5.2-.9,1.1-.9s.9.3.9.8-.2.5-.3.5l-1.2.2c-1.2.2-1.4,1.1-1.4,1.6s.6,1.4,1.4,1.4,1.2-.5,1.7-.9c0,.5.2.8.8.8s.2-.2.5-.2v-.5h-.3c-.2,0-.2-.2-.2-.3v-2.6c0-1.1-1.4-1.2-1.7-1.2-1.1,0-2,.5-2,1.6h.8M363,213c0,.6-.6,1.1-1.4,1.1s-.8-.3-.8-.9.6-.6.9-.6c.9-.2,1.2-.2,1.2-.3v.8M366.4,208.4h-.8v6.2h.8v-6.2M368.9,210.1h-.8v4.5h.8v-4.5M368.9,209.3v-.9h-.8v.9h.8M373.8,211.3c0-.2-.2-1.4-1.7-1.4s-1.9.5-1.9,1.6.5.8,1.1.9l.9.3c.6.2.9.3.9.6,0,.5-.5.8-1.1.8-.9,0-1.2-.6-1.2-.9h-.6c0,.5,0,1.7,1.9,1.7s1.9-.8,1.9-1.7-.3-.9-1.2-1.1l-.8-.3c-.6-.2-.8-.2-.8-.6s.5-.6.8-.6c1.1,0,1.1.5,1.1.8h.8"/>
      <path class="cls-1" d="M324.1,242.5c0-.5.2-.9,1.1-.9s1.1.3,1.1.8-.3.5-.5.5l-1.2.2c-1.2.3-1.4,1.1-1.4,1.4,0,.9.6,1.4,1.4,1.4s1.4-.5,1.7-.8c0,.3.2.8.8.8s.3,0,.5-.2v-.5h-.3c-.2,0-.3-.2-.3-.3v-2.6c0-1.1-1.2-1.2-1.6-1.2-1.2,0-1.9.5-1.9,1.6h.6M326.2,244.1c0,.6-.8,1.1-1.4,1.1s-.9-.3-.9-.8.6-.8,1.1-.8c.9-.2,1.1-.2,1.2-.3v.8M329.8,244.7h-.9v.9h.9v-.9M337.4,242.5c0-1.2-.9-1.6-1.7-1.6s-1.1.5-1.2.6v-2.2h-.8v6.2h.8v-2.5c0-1.1.6-1.6,1.1-1.6.9,0,.9.5.9,1.1v2.9h.9v-3.1M342,244.2c0,.3-.5.9-1.1.9-.9,0-1.4-.6-1.4-1.5h3.3c0-1.6-.6-2.6-1.9-2.6s-2.2,1.1-2.2,2.5.8,2.3,2,2.3.9-.2,1.2-.3c.6-.3.8-1.1.8-1.2h-.8M339.6,243c0-.6.5-1.4,1.2-1.4s1.2.8,1.2,1.4h-2.5M345,243.6c0-.8.2-2,1.2-2s1.2,1.2,1.2,1.7c0,1.1-.3,1.9-1.2,1.9-.5,0-1.2-.3-1.2-1.5M344.2,247.6h.8v-2.5h.2c0,.5.5.6,1.1.6,1.5,0,2-1.4,2-2.5s-.6-2.3-2-2.3-1.1.5-1.2.8v-.6h-.8v6.5M350.4,242.5c0-.5,0-.9.9-.9s1.1.3,1.1.8-.2.5-.3.5l-1.4.2c-1.2.3-1.2,1.1-1.2,1.4,0,.9.5,1.4,1.4,1.4s1.2-.5,1.6-.8c0,.3.3.8.8.8s.3,0,.5-.2v-.5h-.2c-.3,0-.3-.2-.3-.3v-2.6c0-1.1-1.4-1.2-1.7-1.2-1.1,0-1.9.5-1.9,1.6h.8M352.4,244.1c0,.6-.6,1.1-1.4,1.1s-.9-.3-.9-.8.8-.8,1.1-.8c.9-.2,1.1-.2,1.2-.3v.8M356.6,241.7v-.6h-.6v-1.2h-.8v1.2h-.6v.6h.6v2.9c0,.6.2,1.1.9,1.1,0,0,.2,0,.5-.2v-.6h-.3s-.3,0-.3-.3v-2.9h.6M358.6,241.1h-.8v4.5h.8v-4.5M358.6,240.3v-.9h-.8v.9h.8M363.9,242.7c0-.8-.5-1.7-1.7-1.7s-2.2,1.1-2.2,2.5.8,2.3,2,2.3,1.9-1.1,1.9-1.7h-.8c-.2.6-.5,1.1-1.1,1.1-.9,0-1.1-.9-1.1-1.9s.2-1.7,1.2-1.7.9.5.9,1.1h.8M365.9,242.5c0-.5.2-.9,1.1-.9s.9.3.9.8-.2.5-.3.5l-1.2.2c-1.4.3-1.4,1.1-1.4,1.4,0,.9.6,1.4,1.4,1.4s1.4-.5,1.7-.8c0,.3.2.8.8.8s.3,0,.3-.2v-.5h-.2c-.2,0-.3-.2-.3-.3v-2.6c0-1.1-1.2-1.2-1.7-1.2-1.1,0-1.7.5-1.7,1.6h.6M367.9,244.1c0,.6-.6,1.1-1.4,1.1s-.8-.3-.8-.8.6-.8.9-.8q1.1-.2,1.2-.3v.8M327,252.7c-.2-.8-.6-1.7-1.7-1.7s-2.2,1.1-2.2,2.5.8,2.3,2,2.3,1.7-1.1,1.9-1.7h-.8c-.2.6-.5.9-1.1.9-1.1,0-1.2-.8-1.2-1.7s.3-1.7,1.4-1.7.9.5.9,1.1h.8M327.9,253.4c0,1.2.8,2.5,2.2,2.5s2.2-1.2,2.2-2.5-.6-2.3-2.2-2.3-2.2,1.2-2.2,2.3M328.9,253.4c0-.5.2-1.7,1.2-1.7s1.2,1.2,1.2,1.7-.2,1.7-1.2,1.7-1.2-1.1-1.2-1.7M333.7,255.7h.8v-2.5c0-1.2.6-1.5,1.1-1.5s.8.5.8.9v3.1h.8v-2.8c0-.6.5-1.2,1.1-1.2s.8.5.8,1.2v2.8h.8v-3.1c0-1.4-.9-1.6-1.4-1.6-.8,0-.9.3-1.4.6-.2-.2-.5-.6-1.2-.6s-1.2.5-1.2.8v-.6h-.8v4.5M341.3,255.7h.8v-2.5c0-1.2.8-1.5,1.2-1.5s.8.5.8.9v3.1h.8v-2.8c0-.6.3-1.2.9-1.2s.9.5.9,1.2v2.8h.8v-3.1c0-1.4-.9-1.6-1.4-1.6-.8,0-1.1.3-1.4.6-.2-.2-.5-.6-1.2-.6s-1.2.5-1.4.8v-.6h-.8v4.5M352.7,255.7v-4.5h-.9v2.5c0,.6-.3,1.4-1.2,1.4s-.8-.2-.8-.8v-3.1h-.8v3.3c0,1.1.8,1.4,1.4,1.4s1.1-.3,1.6-.8v.6h.8M358,252.6c0-1.2-.8-1.6-1.5-1.6s-1.2.5-1.4.8v-.6h-.8v4.5h.8v-2.5c0-1.2.8-1.5,1.2-1.5.8,0,.9.5.9,1.2v2.8h.8v-3.1M360.5,251.2h-.8v4.5h.8v-4.5M360.5,250.3v-.8h-.8v.8h.8M365.5,252.4c0-.2-.2-1.4-1.9-1.4s-1.7.5-1.7,1.6.5.8,1.1.9l.9.3c.6.2.9.3.9.6,0,.5-.5.6-1.1.6-1.1,0-1.2-.5-1.2-.8h-.8c0,.5.2,1.6,2,1.6s1.9-.5,1.9-1.6-.3-.9-1.2-1.2h-.8c-.6-.1-.9-.3-.9-.8s.6-.6.9-.6c.9,0,1.1.5,1.1.8h.8"/>
      <path class="cls-1" d="M280.9,406c.2-.3.2-.8,1.1-.8s1.1.3,1.1.6c0,.5-.2.6-.3.6l-1.4.2c-1.2.2-1.2.9-1.2,1.4,0,.8.5,1.4,1.4,1.4s1.2-.5,1.7-.9c0,.5,0,.9.6.9s.3-.2.5-.2v-.6h-.3c-.2,0-.2-.2-.2-.2v-2.8c0-1.1-1.4-1.1-1.7-1.1-1.1,0-1.9.3-1.9,1.4h.6M283.1,407.5c0,.8-.6,1.2-1.4,1.2s-.8-.5-.8-.9.6-.8.9-.8c.9,0,1.1-.2,1.2-.2v.6M286.8,408.3h-.9v.9h.9v-.9M292.3,405.3v-.8h-.8v-.5c0-.5.2-.6.5-.6h.3v-.6h-.3c-.8,0-1.2.3-1.2.9v.8h-.6v.8h.6v3.9h.8v-3.9h.8M296.3,407.7c0,.3-.5.9-1.2.9s-1.2-.6-1.2-1.6h3.3c0-1.5-.6-2.5-2-2.5s-2,1.1-2,2.5.6,2.3,2,2.3.9-.3,1.2-.5c.5-.3.6-.9.8-1.2h-.8M293.8,406.6c0-.8.6-1.4,1.2-1.4.9,0,1.2.6,1.2,1.4h-2.5M298.5,409.2h.8v-2.6c0-1.1.8-1.4,1.2-1.4s.8.5.8.8v3.3h.8v-2.8c0-.8.3-1.2,1.1-1.2s.8.5.8,1.1v2.9h.8v-3.3c0-1.2-.9-1.4-1.4-1.4s-1.1.3-1.4.6c-.2-.2-.5-.6-1.2-.6s-1.2.5-1.4.8v-.8h-.8v4.6M305.9,406.9c0,1.1.8,2.5,2.2,2.5s2-1.4,2-2.5-.6-2.3-2-2.3c-1.4,0-2.2,1.1-2.2,2.3M306.7,406.9c0-.6.3-1.7,1.4-1.7s1.4,1.1,1.4,1.7-.2,1.7-1.4,1.7c-1.1,0-1.4-1.1-1.4-1.7M312.4,406.6c0-.8.5-1.2,1.2-1.2h.3v-.8h-.2c-.6,0-1.1.3-1.4.8v-.8h-.6v4.6h.6v-2.6M315.7,406c0-.3,0-.8.9-.8s1.1.3,1.1.6c0,.5-.2.6-.3.6l-1.4.2c-1.2.2-1.2.9-1.2,1.4,0,.8.5,1.4,1.4,1.4s1.2-.5,1.6-.9c0,.5.3.9.8.9s.3-.2.5-.2v-.6h-.2c-.3,0-.3-.2-.3-.2v-2.8c0-1.1-1.4-1.1-1.7-1.1-1.1,0-1.9.3-1.9,1.4h.8M317.7,407.5c0,.8-.6,1.2-1.4,1.2s-.9-.5-.9-.9.8-.8,1.1-.8c.9,0,1.1-.2,1.2-.2v.6M321.1,403h-.9v6.2h.9v-6.2M323.4,404.6h-.8v4.6h.8v-4.6M323.4,403.8v-.8h-.8v.8h.8M328.4,406c0-.3,0-1.4-1.7-1.4s-1.7.3-1.7,1.4.5.9,1.1,1.1l.8.3c.6,0,.9.2.9.6s-.5.6-.9.6c-1.1,0-1.2-.6-1.2-.9h-.8c0,.6.2,1.7,2,1.7s1.9-.6,1.9-1.5-.5-.9-1.4-1.2l-.6-.2c-.8-.2-.9-.3-.9-.8s.6-.5.9-.5c.9,0,1.1.5,1.1.8h.6"/>
      <path class="cls-20" d="M188.5,108.4h-58.8"/>
      <path class="cls-1" d="M81.4,107.4l-1.2-3.6h-.8l1.6,4.5h.9l1.7-4.5h-.8l-1.4,3.6M85.1,107.4h-.9v.9h.9v-.9M89.6,103.9h-.8v5.1c0,.5-.2.5-.6.5h-.2v.8h.5c1.1,0,1.1-.8,1.1-1.2v-5.1M89.6,102.2h-.8v.8h.8v-.8M94.9,108.4v-4.5h-.6v2.5c0,.6-.3,1.4-1.4,1.4s-.8-.2-.8-.9v-2.9h-.8v3.3c0,.9.8,1.4,1.6,1.4s1.1-.3,1.4-.8v.6h.6M97.2,106c0-.6,0-1.7,1.1-1.7s1.4,1.2,1.4,2-.8,1.4-1.4,1.4c-.8,0-1.1-.8-1.1-1.7M100.3,103.9h-.6v.6c-.3-.3-.6-.8-1.4-.8-1.2,0-1.9.9-1.9,2.2s.5,2.6,1.9,2.6,1.1-.3,1.2-.6c0,.6.2,1.7-1.2,1.7s-.9,0-1.1-.6h-.8c.3,1.2,1.2,1.2,1.9,1.2,2,0,2-1.6,2-2.3v-4M105.6,108.4v-4.5h-.8v2.5c0,.6-.3,1.4-1.2,1.4s-.8-.2-.8-.9v-2.9h-.8v3.3c0,.9.8,1.4,1.4,1.4s1.1-.3,1.6-.8v.6h.6M108,105.7c0-.8.5-1.2,1.2-1.2h.3v-.8h-.2c-.6,0-1.1.3-1.4.8v-.6h-.6v4.5h.6v-2.6M111.3,105.1c0-.3.2-.8,1.1-.8s.9.3.9.6c0,.5-.2.6-.3.6l-1.2.2c-1.4.2-1.4,1.1-1.4,1.4,0,.8.6,1.4,1.4,1.4s1.4-.5,1.7-.8c0,.3.2.8.8.8s.3-.2.3-.2v-.6h-.2c-.2,0-.3,0-.3-.2v-2.6c0-1.1-1.2-1.2-1.7-1.2-1.1,0-1.7.3-1.7,1.4h.6M113.3,106.8c0,.6-.6,1.1-1.4,1.1s-.8-.5-.8-.9.6-.6.9-.6c1.1-.2,1.1-.3,1.2-.3v.8M116.7,105.7c0-.8.5-1.2,1.2-1.2h.3v-.8h-.2c-.6,0-1.1.3-1.4.8v-.6h-.6v4.5h.6v-2.6M120.3,103.9h-.8v4.5h.8v-4.5M120.3,102.9v-.8h-.8v.8h.8M125.3,105.1c0-.2-.2-1.4-1.7-1.4s-1.7.3-1.7,1.4.3.9.9,1.1l.9.3c.6,0,.9.3.9.6,0,.5-.5.6-1.1.6-1.1,0-1.1-.5-1.1-.9h-.9c0,.6.3,1.7,2,1.7s1.9-.6,1.9-1.6-.5-.9-1.2-1.2l-.8-.2c-.6-.2-.9-.2-.9-.6s.8-.6.9-.6c.9,0,1.1.5,1.1.8h.8M97.7,113.8h-.8v4.7h.8v-4.7M97.7,113v-.8h-.8v.8h.8M103.1,115.2c0-1.1-.9-1.4-1.6-1.4-.9,0-1.2.5-1.4.8v-.8h-.8v4.7h.8v-2.5c0-1.2.8-1.6,1.1-1.6.8,0,1.1.3,1.1,1.2v2.8h.8v-3.3M106.3,114.6v-.8h-.8v-1.2h-.6v1.2h-.8v.8h.8v2.9c0,.5.2,1.1.9,1.1,0,0,.2-.2.5-.2v-.8h-.3c-.2,0-.5,0-.5-.2v-2.9h.8M110.7,116.9c0,.3-.5.9-1.1.9-.9,0-1.4-.6-1.4-1.4h3.4c0-1.7-.8-2.6-2-2.6s-2.2,1.1-2.2,2.5.6,2.3,2,2.3.9-.3,1.2-.5c.6-.3.8-.9.9-1.2h-.9M108.2,115.8c0-.8.6-1.4,1.2-1.4.9,0,1.2.6,1.2,1.4h-2.5M113.8,115.8c0-.8.5-1.2,1.2-1.2h.3v-.8h-.2c-.6,0-1.1.3-1.4.8v-.8h-.6v4.7h.6v-2.6M120.3,115.2c0-1.1-.9-1.4-1.6-1.4s-1.2.5-1.4.8v-.8h-.8v4.7h.8v-2.5c0-1.2.8-1.6,1.1-1.6.9,0,1.1.3,1.1,1.2v2.8h.8v-3.3M122.6,115.2c.2-.3.2-.8,1.1-.8s.9.3.9.6c0,.5-.2.6-.3.6l-1.4.2c-1.1.2-1.2.9-1.2,1.4,0,.8.6,1.4,1.4,1.4s1.2-.5,1.7-.9c0,.5.2.9.6.9s.3-.2.5-.2v-.6h-.2c-.3,0-.3-.2-.3-.2v-2.6c0-1.2-1.2-1.2-1.6-1.2-1.1,0-2,.3-2,1.4h.8M124.6,116.7c0,.8-.6,1.2-1.4,1.2s-.8-.5-.8-.9.6-.6.9-.6c.9-.2,1.2-.3,1.2-.3v.6"/>
      <path class="cls-1" d="M10.5,137.2l-1.2-3.7h-.8l1.6,4.7h.9l1.7-4.7h-.8l-1.4,3.7M14.2,137.2h-.9v.9h.9v-.9M21.5,135c0-.8-.5-1.6-1.7-1.6s-2.2,1.1-2.2,2.5.8,2.3,2,2.3,1.9-1.1,1.9-1.9h-.6c-.3.8-.6,1.1-1.2,1.1-1.1,0-1.1-1.1-1.1-1.7s.2-1.7,1.1-1.7,1.1.3,1.2.9h.6M23.5,134.9c0-.3,0-.9.9-.9s1.1.3,1.1.8-.2.6-.3.6h-1.4c-1.2.3-1.2,1.1-1.2,1.6,0,.8.5,1.4,1.4,1.4s1.2-.5,1.6-.9c0,.5.3.9.8.9s.3-.2.5-.2v-.6h-.2c-.3,0-.3-.2-.3-.2v-2.8c0-1.1-1.4-1.1-1.6-1.1-1.2,0-2,.3-2,1.4h.8M25.5,136.4c0,.6-.6,1.2-1.4,1.2s-.8-.5-.8-.9.6-.8.9-.8c.9,0,1.1-.2,1.2-.2v.6M29.6,137.2l-1.2-3.7h-.9l1.9,4.7h.8l1.7-4.7h-.9l-1.2,3.7M33.4,134.9c0-.3,0-.9.9-.9s1.1.3,1.1.8-.3.6-.5.6h-1.2c-1.2.3-1.2,1.1-1.2,1.6,0,.8.5,1.4,1.4,1.4s1.2-.5,1.6-.9c0,.5.2.9.8.9s.3-.2.5-.2v-.6h-.3c-.2,0-.3-.2-.3-.2v-2.8c0-1.1-1.2-1.1-1.6-1.1-1.1,0-1.9.3-1.9,1.4h.8M35.5,136.4c0,.6-.8,1.2-1.4,1.2s-.9-.5-.9-.9.8-.8,1.1-.8c.9,0,1.1-.2,1.2-.2v.6M43.7,134.9c0-.3,0-1.4-1.6-1.4s-1.9.3-1.9,1.4.5.9,1.1,1.1l.9.3c.6,0,.9.2.9.5,0,.6-.6.8-1.1.8-1.1,0-1.2-.6-1.2-.9h-.8c0,.6.2,1.7,2,1.7s1.7-.6,1.7-1.6-.3-1.1-1.2-1.2l-.8-.2c-.6-.3-.8-.3-.8-.8s.6-.6.9-.6c.9,0,.9.6.9.9h.8M49,138.1v-4.7h-.8v2.5c0,.8-.2,1.6-1.2,1.6s-.8-.2-.8-1.1v-2.9h-.8v3.3c0,1.1.8,1.6,1.5,1.6s1.1-.3,1.2-.9v.8h.8M51.3,136c0-.6.2-1.9,1.2-1.9s1.2,1.1,1.2,1.7c0,.9-.3,1.7-1.2,1.7-.5,0-1.2-.3-1.2-1.6M50.5,139.9h.8v-2.2h.2c.2.3.5.6,1.1.6,1.5,0,2.2-1.6,2.2-2.6s-.8-2.2-2-2.2-1.1.5-1.4.6v-.6h-.8v6.4M59.2,136.6c-.2.3-.6.9-1.2.9-.9,0-1.2-.6-1.2-1.6h3.3c0-1.6-.8-2.5-2-2.5s-2.2,1.1-2.2,2.5.8,2.3,2,2.3,1.1-.3,1.2-.5c.6-.3.8-.9.9-1.2h-.8M56.7,135.4c0-.6.5-1.2,1.1-1.2.9,0,1.4.6,1.4,1.2h-2.5M62.1,135.4c0-.6.5-1.2,1.2-1.2h.3v-.6h-.2c-.6,0-1.1.3-1.4.8v-.8h-.6v4.7h.6v-2.8M65.5,133.5h-.6v4.7h.6v-4.7M65.5,132.7v-.9h-.6v.9h.6M66.9,135.8c0,1.1.8,2.5,2.3,2.5s2-1.4,2-2.5-.6-2.3-2-2.3c-1.5,0-2.3,1.1-2.3,2.3M67.9,135.8c0-.8.3-1.9,1.4-1.9s1.2,1.1,1.2,1.9-.2,1.7-1.2,1.7c-1.1,0-1.4-1.1-1.4-1.7M73.6,135.4c0-.6.5-1.2,1.1-1.2h.3v-.6h-.2c-.6,0-1.1.3-1.4.8v-.8h-.6v4.7h.8v-2.8"/>
      <path class="cls-20" d="M126.2,167.8h-45.7"/>
      <path class="cls-1" d="M27.2,167l-1.2-3.7h-.8l1.7,4.5h.8l1.9-4.5h-.9l-1.4,3.7M31,166.8h-.9v.9h.9v-.9M38.4,164.8c-.2-.9-.6-1.7-1.9-1.7s-2,1.1-2,2.6.6,2.3,1.9,2.3,1.9-1.2,2-1.9h-.8c-.2.6-.6,1.1-1.2,1.1-.9,0-1.1-1.1-1.1-1.9s.3-1.6,1.2-1.6.9.3,1.1.9h.8M42.8,166.4c-.2.3-.5.9-1.2.9s-1.2-.6-1.2-1.6h3.3c0-1.6-.6-2.6-2-2.6s-2.2,1.1-2.2,2.6.8,2.3,2,2.3,1.1-.3,1.2-.5c.6-.3.8-.9.8-1.2h-.6M40.3,165.1c0-.6.5-1.2,1.2-1.2s1.2.6,1.2,1.2h-2.5M45.7,165.7c0-.8,0-1.9,1.2-1.9s1.1,1.1,1.1,1.6c0,1.1-.3,1.9-1.1,1.9s-1.2-.3-1.2-1.6M44.8,169.6h.9v-2.3c.2.3.6.8,1.2.8,1.6,0,2-1.6,2-2.6s-.8-2.3-2-2.3-1.1.6-1.2.8v-.6h-.9v6.4M53.9,164.7c0-1.2-.8-1.6-1.6-1.6s-1.1.5-1.4.8v-2.3h-.6v6.2h.6v-2.5c0-1.1.6-1.4,1.4-1.4s.9.3.9.9v2.9h.6v-3.1M56.4,164.5c0-.3,0-.8.9-.8s1.1.3,1.1.8-.2.5-.3.5l-1.4.2c-1.1.3-1.2,1.1-1.2,1.6s.5,1.4,1.4,1.4,1.2-.5,1.7-.9c0,.5,0,.8.6.8s.3,0,.5-.2v-.5h-.2c-.3,0-.3-.2-.3-.2v-2.8c0-1.1-1.4-1.2-1.7-1.2-1.1,0-1.9.5-1.9,1.4h.8M58.4,166.2c0,.6-.6,1.1-1.4,1.1s-.8-.3-.8-.8.6-.8.9-.8c.9,0,1.1-.2,1.2-.3v.8M61.7,161.6h-.6v6.2h.6v-6.2M64.3,163.3h-.9v4.5h.9v-4.5M64.3,162.5v-.9h-.9v.9h.9M69.4,164.8c0-.9-.5-1.7-1.7-1.7s-2.2,1.1-2.2,2.6.8,2.3,2,2.3,1.9-1.2,1.9-1.9h-.8c0,.6-.5,1.1-1.1,1.1-1.1,0-1.1-1.1-1.1-1.9s.3-1.6,1.2-1.6.9.3.9.9h.8M71.4,164.5c0-.3.2-.8,1.1-.8s.9.3.9.8-.2.5-.3.5l-1.4.2c-1.1.3-1.2,1.1-1.2,1.6s.6,1.4,1.4,1.4,1.2-.5,1.7-.9c0,.5.2.8.6.8s.3,0,.5-.2v-.5h-.2c-.3,0-.3-.2-.3-.2v-2.8c0-1.1-1.4-1.2-1.7-1.2-1.1,0-1.9.5-1.9,1.4h.8M73.5,166.2c0,.6-.6,1.1-1.4,1.1s-.8-.3-.8-.8.6-.8.9-.8c.9,0,1.1-.2,1.2-.3v.8"/>
      <path class="cls-1" d="M15.6,213.8l-1.2-3.7h-.9l1.7,4.5h.9l1.7-4.5h-.9l-1.2,3.7M19.3,213.7h-.9v.9h.9v-.9M26.6,211.7c0-.9-.6-1.7-1.7-1.7s-2.2,1.1-2.2,2.5.8,2.5,2,2.5,1.9-1.2,1.9-1.9h-.8c0,.6-.5,1.1-1.1,1.1-.9,0-1.2-1.1-1.2-1.9s.3-1.6,1.4-1.6.9.3.9.9h.8M28.6,211.5c0-.5.2-.9,1.1-.9s.9.3.9.8-.2.5-.3.5l-1.2.2c-1.2.2-1.4,1.1-1.4,1.6s.6,1.4,1.4,1.4,1.2-.5,1.7-.9c0,.5,0,.8.8.8s.2-.2.5-.2v-.5h-.3c-.2,0-.3-.2-.3-.3v-2.6c0-1.1-1.2-1.2-1.7-1.2-1.1,0-1.9.5-1.9,1.6h.8M30.7,213c0,.6-.6,1.1-1.4,1.1s-.8-.3-.8-.9.6-.6,1.1-.6c.8-.2,1.1-.2,1.1-.3v.8M34.7,213.8l-1.1-3.7h-.9l1.5,4.5h.9l1.7-4.5h-.8l-1.4,3.7M38.4,211.5c.2-.5.2-.9,1.1-.9s1.1.3,1.1.8-.2.5-.3.5l-1.4.2c-1.2.2-1.2,1.1-1.2,1.6s.6,1.4,1.4,1.4,1.2-.5,1.7-.9c0,.5,0,.8.6.8s.3-.2.5-.2v-.5h-.2c-.3,0-.3-.2-.3-.3v-2.6c0-1.1-1.4-1.2-1.7-1.2-1.1,0-1.9.5-1.9,1.6h.6M40.6,213c0,.6-.8,1.1-1.4,1.1s-.8-.3-.8-.9.6-.6.9-.6c.9-.2,1.1-.2,1.2-.3v.8M46.3,210.1h-.8v4.5h.8v-4.5M46.3,209.3v-.9h-.8v.9h.8M51.6,211.5c0-1.2-.8-1.6-1.4-1.6s-1.2.5-1.4.8v-.6h-.8v4.5h.8v-2.5c0-1.1.8-1.4,1.1-1.4.9,0,1.1.3,1.1,1.1v2.8h.6v-3.1M55.2,210.7v-.6h-.8v-.6c0-.3,0-.5.3-.5h.5v-.8h-.5c-.8,0-1.2.3-1.2,1.1v.8h-.5v.6h.5v3.9h.9v-3.9h.8M59.2,213.2c-.2.3-.6.9-1.2.9-.9,0-1.2-.6-1.2-1.6h3.3c0-1.6-.8-2.6-2-2.6s-2.2,1.1-2.2,2.5.8,2.5,2,2.5,1.1-.3,1.2-.5c.6-.3.8-.9.9-1.2h-.8M56.7,212c0-.6.5-1.2,1.1-1.2.9,0,1.4.6,1.4,1.2h-2.5M62.1,212c0-.6.5-1.2,1.2-1.2h.3v-.8h-.2c-.6,0-1.1.3-1.4.8v-.6h-.6v4.5h.6v-2.6M65.5,210.1h-.6v4.5h.6v-4.5M65.5,209.3v-.9h-.6v.9h.6M66.9,212.3c0,1.2.8,2.6,2.3,2.6s2-1.4,2-2.6-.6-2.3-2-2.3-2.3,1.2-2.3,2.3M67.9,212.3c0-.6.3-1.7,1.4-1.7s1.2,1.1,1.2,1.7-.2,1.9-1.2,1.9c-1.1,0-1.4-1.1-1.4-1.9M73.6,212c0-.6.5-1.2,1.1-1.2h.3v-.8h-.2c-.6,0-1.1.3-1.4.8v-.6h-.6v4.5h.8v-2.6"/>
      <path class="cls-1" d="M29.3,408.3l-1.2-3.7h-.9l1.7,4.6h.8l1.7-4.6h-.8l-1.2,3.7M32.8,408.3h-.8v.9h.8v-.9M38.4,405.3v-.8h-.8v-.5c0-.5.2-.6.3-.6h.5v-.6h-.5c-.6,0-1.1.3-1.1.9v.8h-.8v.8h.8v3.9h.8v-3.9h.8M42.3,407.7c0,.3-.5.9-1.1.9-.9,0-1.4-.6-1.4-1.6h3.4c0-1.5-.6-2.5-2-2.5s-2.2,1.1-2.2,2.5.8,2.3,2,2.3,1.1-.3,1.2-.5c.6-.3.8-.9.9-1.2h-.9M39.8,406.6c0-.8.6-1.4,1.4-1.4s1.1.6,1.1,1.4h-2.5M44.6,409.2h.8v-2.6c0-1.1.8-1.4,1.2-1.4s.6.5.6.8v3.3h.8v-2.8c0-.8.5-1.2,1.1-1.2s.8.5.8,1.1v2.9h.9v-3.3c0-1.2-.9-1.4-1.4-1.4-.8,0-1.2.3-1.4.6-.3-.2-.5-.6-1.2-.6s-1.2.5-1.4.8v-.8h-.8v4.6M52.1,406.9c0,1.1.6,2.5,2.2,2.5s2-1.4,2-2.5-.6-2.3-2-2.3c-1.6,0-2.2,1.1-2.2,2.3M52.8,406.9c0-.6.2-1.7,1.4-1.7s1.4,1.1,1.4,1.7-.3,1.7-1.4,1.7c-1.2,0-1.4-1.1-1.4-1.7M58.6,406.6c0-.8.5-1.2,1.1-1.2h.3v-.8h-.2c-.6,0-.9.3-1.2.8v-.8h-.8v4.6h.8v-2.6M61.7,406c0-.3.2-.8,1.1-.8s1.1.3,1.1.6c0,.5-.3.6-.5.6l-1.2.2c-1.4.2-1.4.9-1.4,1.4,0,.8.6,1.4,1.4,1.4s1.4-.5,1.7-.9c0,.5.2.9.8.9s.3-.2.5-.2v-.6h-.3c-.2,0-.3-.2-.3-.2v-2.8c0-1.1-1.2-1.1-1.6-1.1-1.2,0-1.9.3-1.9,1.4h.6M63.8,407.5c0,.8-.8,1.2-1.4,1.2s-.9-.5-.9-.9.6-.8.9-.8c1.1,0,1.1-.2,1.4-.2v.6M67.1,403h-.8v6.2h.8v-6.2M69.4,404.6h-.6v4.6h.6v-4.6M69.4,403.8v-.8h-.6v.8h.6M74.5,406c0-.3-.2-1.4-1.7-1.4s-1.7.3-1.7,1.4.3.9.9,1.1l.9.3c.6,0,.9.2.9.6s-.5.6-1.1.6c-1.1,0-1.1-.6-1.1-.9h-.9c0,.6.3,1.7,2,1.7s1.9-.6,1.9-1.5-.5-.9-1.2-1.2l-.8-.2c-.6-.2-.9-.3-.9-.8s.8-.5.9-.5c1.1,0,1.1.5,1.1.8h.8"/>
      <path class="cls-20" d="M215,245.6H80.4"/>
      <path class="cls-1" d="M2.3,241.7v-.6h-.8v-1.2h-.8v1.2H.1v.6h.6v2.9c0,.6.2,1.1.9,1.1s.3,0,.6-.2v-.6h-.3c-.2,0-.5,0-.5-.3v-2.9h.8M4.3,243c0-.6.5-1.2,1.2-1.2h.3v-.8h-.2c-.6,0-1.1.5-1.4.9v-.8h-.6v4.5h.6v-2.6M10.8,245.6v-4.5h-.9v2.5c0,.6-.3,1.5-1.2,1.5s-.8-.3-.8-.9v-3.1h-.8v3.3c0,1.1.8,1.4,1.4,1.4s1.1-.2,1.6-.8v.6h.8M16.1,242.5c0-1.2-.9-1.6-1.6-1.6s-1.2.5-1.4.8v-.6h-.8v4.5h.8v-2.5c0-1.2.8-1.6,1.2-1.6.8,0,.9.5.9,1.2v2.8h.8v-3.1M21.4,242.7c-.2-.8-.5-1.7-1.7-1.7s-2.3,1.1-2.3,2.5.9,2.3,2.2,2.3,1.7-1.1,1.9-1.7h-.8c-.2.6-.6,1.1-1.1,1.1-1.1,0-1.2-.9-1.2-1.9s.3-1.7,1.2-1.7,1.1.5,1.1,1.1h.8M26.3,245.6v-4.5h-.8v2.5c0,.6-.3,1.5-1.2,1.5s-.9-.3-.9-.9v-3.1h-.8v3.3c0,1.1.8,1.4,1.5,1.4s1.1-.2,1.4-.8v.6h.8M31.3,242.4c0-.2-.2-1.4-1.7-1.4s-1.7.5-1.7,1.6.3.8.9.9l.9.3c.6.2.9.3.9.6,0,.5-.5.8-1.1.8-.9,0-1.2-.6-1.2-.9h-.6c0,.5.2,1.6,1.9,1.6s1.9-.5,1.9-1.6-.3-.9-1.2-1.2l-.8-.2c-.6,0-.8-.2-.8-.6s.6-.6.9-.6c.8,0,.9.5.9.8h.8M38.9,242.7c-.2-.8-.6-1.7-1.9-1.7s-2,1.1-2,2.5.6,2.3,2,2.3,1.7-1.1,1.9-1.7h-.8c-.2.6-.6,1.1-1.1,1.1-1.1,0-1.2-.9-1.2-1.9s.3-1.7,1.2-1.7.9.5,1.1,1.1h.8M39.8,243.3c0,1.2.6,2.5,2.2,2.5s2-1.2,2-2.5-.6-2.3-2-2.3-2.2,1.2-2.2,2.3M40.7,243.3c0-.5.2-1.7,1.2-1.7s1.2,1.2,1.2,1.7-.2,1.9-1.2,1.9-1.2-1.2-1.2-1.9M48.5,244.2c0,.3-.5.9-1.1.9-.9,0-1.4-.6-1.4-1.5h3.4c0-1.6-.8-2.6-2-2.6s-2.2,1.1-2.2,2.5.8,2.3,2,2.3.9-.2,1.2-.3c.6-.3.8-1.1.9-1.2h-.9M46,243c0-.6.6-1.4,1.2-1.4.9,0,1.2.8,1.2,1.4h-2.5M51.6,239.4h-.8v6.2h.8v-6.2M53.9,241.1h-.6v4.5h.6v-4.5M53.9,240.3v-.9h-.6v.9h.6M56.4,242.5c0-.5,0-.9.9-.9s1.1.3,1.1.8-.2.5-.3.5l-1.4.2c-1.1.3-1.2,1.1-1.2,1.4,0,.9.5,1.4,1.4,1.4s1.2-.5,1.7-.8c0,.3,0,.8.6.8s.3,0,.5-.2v-.5h-.2c-.3,0-.3-.2-.3-.3v-2.6c0-1.1-1.4-1.2-1.7-1.2-1.1,0-1.9.5-1.9,1.6h.8M58.4,244.1c0,.6-.6,1.1-1.4,1.1s-.8-.3-.8-.8.6-.8.9-.8c.9-.2,1.1-.2,1.2-.3v.8M64.6,242.7c-.2-.8-.6-1.7-1.7-1.7-1.5,0-2.2,1.1-2.2,2.5s.8,2.3,2,2.3,1.7-1.1,1.9-1.7h-.8c-.2.6-.5,1.1-1.1,1.1-1.1,0-1.2-.9-1.2-1.9s.3-1.7,1.2-1.7,1.1.5,1.1,1.1h.8M69.4,245.6v-4.5h-.6v2.5c0,.6-.3,1.5-1.2,1.5s-.8-.3-.8-.9v-3.1h-.9v3.3c0,1.1.9,1.4,1.6,1.4s1.1-.2,1.4-.8v.6h.6M74.5,242.4c0-.2-.2-1.4-1.7-1.4s-1.7.5-1.7,1.6.3.8.9.9l.9.3c.6.2.9.3.9.6,0,.5-.5.8-1.1.8-1.1,0-1.1-.6-1.1-.9h-.9c0,.5.3,1.6,2,1.6s1.9-.5,1.9-1.6-.5-.9-1.2-1.2l-.8-.2c-.6,0-.9-.2-.9-.6s.8-.6.9-.6c1.1,0,1.1.5,1.1.8h.8"/>
    </g>
  </g>
</svg>