<?xml version="1.0" encoding="utf-8"?>
<!-- Generator: Adobe Illustrator 28.4.1, SVG Export Plug-In . SVG Version: 6.00 Build 0)  -->
<svg version="1.1" baseProfile="basic" xmlns="http://www.w3.org/2000/svg" xmlns:xlink="http://www.w3.org/1999/xlink" x="0px"
	 y="0px" viewBox="0 0 382.6 461.3" xml:space="preserve">
<style type="text/css">
	.st0{display:none;fill-rule:evenodd;clip-rule:evenodd;fill:#D8CEBF;}
	.st1{display:none;fill-rule:evenodd;clip-rule:evenodd;fill:#FFFFCC;}
	.st2{display:none;fill-rule:evenodd;clip-rule:evenodd;fill:#EA1E1B;}
	.st3{display:none;}
	.st4{display:inline;fill-rule:evenodd;clip-rule:evenodd;fill:#FDCC8A;}
	.st5{display:inline;fill-rule:evenodd;clip-rule:evenodd;fill:#858079;}
	.st6{display:inline;fill-rule:evenodd;clip-rule:evenodd;}
	.st7{display:inline;fill-rule:evenodd;clip-rule:evenodd;fill:#FFFFCC;}
	.st8{display:inline;fill-rule:evenodd;clip-rule:evenodd;fill:#CA7B41;}
	.st9{display:inline;fill-rule:evenodd;clip-rule:evenodd;fill:#8D5F46;}
	.st10{display:none;fill-rule:evenodd;clip-rule:evenodd;}
	.st11{fill-rule:evenodd;clip-rule:evenodd;fill:url(#SVGID_1_);}
	.st12{fill-rule:evenodd;clip-rule:evenodd;fill:url(#SVGID_00000181050593845325574670000013066524234120294568_);}
	.st13{display:none;fill-rule:evenodd;clip-rule:evenodd;fill:url(#SVGID_00000040575245003028752330000001866038118848947647_);}
	.st14{display:none;fill-rule:evenodd;clip-rule:evenodd;fill:#483759;}
	.st15{display:inline;fill-rule:evenodd;clip-rule:evenodd;fill:#FD8646;}
	.st16{display:none;fill-rule:evenodd;clip-rule:evenodd;fill:#2D7599;}
	.st17{display:none;fill-rule:evenodd;clip-rule:evenodd;fill:#FD9A52;}
	.st18{display:none;fill-rule:evenodd;clip-rule:evenodd;fill:#FD8646;}
	.st19{display:none;fill:none;stroke:#000000;stroke-width:0.216;stroke-miterlimit:2.4142;}
	.st20{display:none;fill-rule:evenodd;clip-rule:evenodd;stroke:#000000;stroke-width:0.216;stroke-miterlimit:2.4142;}
</style>
<g id="Layer_2">
</g>
<g id="Layer_1">
	<g>
		<path class="st0" d="M181.7,5.6c-6.8,4.2-12.6,14.3-13.3,23.3c-1.2,10.4,4.3,6.8-0.5,15.8c-3.6,9.6-10.1,15.2-3.9,17.2
			c3.9,0.8,3.7,3.1,3.7,3.1s-1.1,4.3,0.3,9.5c2,6.2-0.8,10.7,1.7,12.6c3.4,3.4,9.6,1.1,14.4,1.1c1.6,5-3.4,21.9-3.4,21.9
			c-11,2.8-22.2,5.6-33.3,8.2c0,0-16.4-0.9-25.4,11.6c-13.6,14.7-10.9,48.5-10.9,48.5s-12.3,36.1-12.3,45c0,8.7-6.5,22.3-6.5,22.3
			c-12.6,8.8-12.1,27.4-16.9,42.5c10.9,6.5,19.4,8.8,30.6,10.7c8.1-17.1,19.7-34.6,19.7-53.8c3.9-10.9,7.4-21.6,11.2-32.4
			c0,0,9.3,32.7,8.7,45.4c-0.5,7.4-1.1,43.6-3.6,47.9c0,0-2.8,11.8-2.8,20.8c0,8.8-3.1,26.1-11.2,52.1
			c-8.2,25.9-12.6,81.7-12.6,81.7c22,0,44,0,66.2,0c5.7-25,11.3-49.8,17.1-74.6c-0.6,25-1.4,50.1-1.9,75.4
			c20.3-0.3,40.8-0.6,61.4-0.8c8.1-30.1,20.8-78.8,16.4-109.2c-2.2-14.7-6-37.7-6-37.7s1.7-6.4,2-15.8c-8.4-20.8,5-36.1,2-74.7
			c0,0,10.5,27,11.2,32.3c3.4,25,2.5,26.2,16.3,58c8.2-3.6,16.4-7,24.7-10.4c-1.4-13.6-4.3-46.7-14.3-56.6
			c-5-22.3-4.8-45.1-12.9-67.9c0,0,5.3-15-3.9-35c-5.6-13.6-16.4-18-27.4-21.6c-11.3-2.8-34-16.4-34-16.4c-2-8.4-3.6-16.9-1.2-27.3
			c0,0,4.7-11,10.2-18.8c5.6-7.9,6.7-31.9-2.3-44.7C228.4-1.6,196.7-3.9,181.7,5.6z"/>
		<path class="st1" d="M251,256.3c-2.6,0-4,2.2-3.7,4.5c0.5,6.7-3.6,15.4-8.7,19.2c-4.8,3.4-6.8,9.3-6.2,15.2
			c0.9,1.7,1.9,3.6,2.8,5.3c0-2.9,0.6-3.6,3.6-3.6c-1.4-0.5-2.6-0.9-4-1.4c0,0-1.2-4.5,0-5.7c1.4-1.2,4.5-2.8,5-4.8
			c0.5-2.2,3.3-8.2,5.9-9.8C251.5,270.9,250.6,262.8,251,256.3z"/>
		<path class="st2" d="M190.1,12.4c-4,5.4,16.6,5,20.8,5.9c9.8,3.7,8.1,15.8,7.8,26.4c-6.1-5-11.5-4.8-18.1-7.9
			c-0.2-1.2-0.3-2.6-0.3-3.9c-0.6,0-1.1-0.2-1.7-0.2c-0.2,0.9-0.3,2-0.3,3.1c-1.9-1.2-2.3-2.2-2.6-4c-0.6,0-1.2,0.2-1.9,0.2
			c0.2,1.1,0.5,2,0.6,2.9c-3.3-0.9-3.7-1.4-5.4-4.3c0.2,1.1,0.3,2.2,0.3,3.1c-0.8-1.2-1.7-2.5-2.6-3.9c-2.9,8.1,23.7,9,31,17.2
			c-0.6,6.8-0.9,13.5-0.9,20.3c-4.2-2-9-5-13.8-5.4c-3.1-3.7-13.6-10.4-18.6-7c0.6,0.3,1.1,0.6,1.9,0.9c1.6-1.7,3.9,0.6,5.6,0.6
			c-0.8,0.8-1.7,1.4-2.5,2c1.9,1.2,0.9-0.8,2.8-1.2c1.4-0.2,3.4,0.2,3.4,0.2c-1.1,0.9-1.7,1.7-2.6,2.6c0.2,0.2,0.5,0.5,0.8,0.5
			c0.3-0.3,0.8-0.6,1.2-0.9c0,0.8,0,1.5,0,2.2c2.5,0.6,0.8-0.2,1.7-1.5c1.9-2.5,3.6,0.6,4.3,2.2c-1.1,0.6-2,1.1-2.9,1.5
			c5.3,1.1,7.4-1.2,18.3,5.3c1.9,5.3,0.2,19.5-2.5,23.9c-4.7,9-7,12.7-7,23.7c0.9,0,2,0,3.1-0.2c-0.8-9.3,1.1-14.3,5.7-21.9
			c4.3-7.1,3.3-21.1,3.1-28.8c1.2-33.5,8.8-40.6-11.9-53.7c-0.8,0-1.4,0-2.2,0c1.2,1.2,2.6,2.5,4,3.9c-2.2,0-4.3,0-6.4-0.2
			c-0.3-1.1-0.8-2.2-0.9-3.3c-0.6,0-1.1-0.2-1.5-0.3c0.2,1.1,0.3,2,0.3,3.3c-1.4,0-2.6,0-3.9-0.2c-0.2-0.8-0.2-1.6-0.2-2.3
			c-0.3,0-0.6,0-0.9,0c-0.2,0.8-0.3,1.6-0.3,2.3c-2.3,0.3-3.1-0.6-3.1-2.8C191.2,12.5,190.5,12.4,190.1,12.4z"/>
		<path class="st2" d="M192.9,85.7l2.8-0.6c0.9,11.5,2.9,22.6,5.3,33.8l-3.6,0.6L192.9,85.7z"/>
		<g class="st3">
			<path class="st4" d="M163.9,265l-2.5,2.6c0,0,2.2,9,2.2,12.9c0,3.7,0.9,6.2,3.1,9.3c2.2,3.3,1.9,7.1,1.9,7.1s0.9,2.9,4,6
				c3.3,3.1,7,7.6,7,7.6l14.6-10.7l-2.9-6.2c0,0-5.4-6.2-6.5-12.6c-1.1-6.4-3.9-16.9-3.9-16.9l-2-0.6L163.9,265z"/>
			<path class="st5" d="M163.6,265c0,0,4.8-0.9,9.5-1.6c4.7-0.8,5,1.4,5,1.4l-2.8,0.9L163.6,265z"/>
			<path class="st6" d="M171.2,263.4c0,0-7.1,1.1-8.1,1.6c-1.1,0.6-1.2,1.2,0.9,1.9c2.3,0.5,5.7,0.5,9.5-0.2c3.4-0.6,6-0.3,5.9-1.5
				c-0.5-1.1-2.5-1.4-2.5-1.4s-1.1,1.7-2.6,1.7C172.7,265.5,171.2,263.4,171.2,263.4z"/>
			<path class="st6" d="M193.2,299.9c0,0-0.6-1.1-2.9,0c-2.3,1.1-6.8,4.3-8.2,6.5c-1.4,2.2-2.6,3.7-1.4,4.5c1.1,0.9,4.5-1.4,4.5-1.4
				l1.9-4.2l0.2-1.4c0,0,2.5-2.5,3.3-2.8C191.2,301,193.2,299.9,193.2,299.9z"/>
			<path class="st7" d="M164.8,270.9c-0.9,3.7,3.9,5.7,4.2,9c-4.2,3.4,1.2,9.9,2.3,14.1c0,3.6,1.7,7.9,6.4,6.7
				c3.1-3.7,0.3-7.1-3.4-8.7c0,0,1.6-5.7-0.5-7.3c-2.8-2.2-2.3-2.6-1.7-5.7c0-3.1-0.2-6.2-0.5-9.5
				C168.4,267.9,166.8,267.9,164.8,270.9z"/>
			<path class="st5" d="M179.2,267.2l-4.8,1.4v5.1c0,0-1.2,2-0.9,2.9c0.5,1.1,2.9,2.5,2.9,2.5l-1.9,2.2c0,0,2.9,0.8,2.9,3.9
				c0,3.1-2,6-2,6s4-1.4,5.7,0.8c1.7,2,3.4,7,3.4,7l-2.5,4.8l7.4-4.8l0.9,1.2l-5.6,5.1l-0.9,4.3c0,0,4.3-2.2,6-4
				c1.4-1.9,4.7-5.3,3.6-5.9c-1.1-0.9-2.6-1.7-2.6-1.7l-2.5-3.3l-2.9-0.3l2.3-2.9c0,0-1.7-2.9-2.6-3.6c-1.2-0.5-2.2-1.7-2.2-1.7
				s0.5-4-0.5-4.8c-0.9-0.8-2.3-3.4-2.3-3.4s0.5-2.9,0.3-4.8C180.2,271.4,179.2,267.2,179.2,267.2z"/>
			<path class="st5" d="M161.7,267.6c0,0-0.9,3.7-0.2,5.7c0.9,2.2,1.4,4.8,1.7,7.8c0.2,3.1,0.6,5.1,2.2,7.8c1.7,2.3,1.9,3.3,2.6,6.4
				c0.8,3.1,1.6,4.8,2.9,5.9c1.4,1.1,2,2.8,3.4,4.5c1.2,1.6,5.3,4.7,5.3,4.7l-5.3-7.4c0,0-4.2-2.2-4.7-5c-0.5-2.8,0.2-5,0.2-5
				s-3.7-3.9-4.7-7.4c-1.2-3.4,0.9-5.6,0.9-5.6s-3.7-6-3.7-7.8C162.5,270.3,161.7,267.6,161.7,267.6z"/>
		</g>
		<g class="st3">
			<path class="st4" d="M256,258.9c0,0-1.9-2.9-4.3-2.9c-2.6,0-4.7,1.2-4.7,3.3c0,2,0.6,8.2-0.9,11.6c-1.4,3.4-8.7,10.7-8.7,10.7
				s-3.6,2.6-4.5,5.4c-1.2,2.8-1.4,6.5-0.5,9c0.9,2.5,2.8,5.3,5,6.4c2,1.2,5.4,0.2,5.4,0.2l4.2-3.4l-4.2,7.3l0.9,3.3
				c0,0,0.6,1.7,2.2,1.9c1.9,0.5,3.7-1.2,3.7-1.2l6.4-12.9c0,0,1.9-8.7,1.2-11.2c-0.6-2.5-0.9-3.7-2.6-4.3c-1.7-0.5-5.9,0.6-5.9,0.6
				s6-8.1,6-12.7C254.7,264.8,256,258.9,256,258.9z"/>
			<path class="st5" d="M254.3,256.9c2.8,2.2,1.2,4.2,1.2,7.1c0,1.9,0.8,4.2,0.2,6.8c-1.9,8.1-9.5,14.9-14,21.6
				c0.8,1.1,1.7,2.6,2.6,3.7c2.3-3.3,7.1-5.1,8.7-8.4c1.6-2.9,2-4,2-4c-0.2,2-0.3,4.3-0.5,6.5c-3.6,4.2-7.3,8.2-11.8,11.3
				c2.9-4.7-3.1-5.7-6.2-6c0,0,3.1-2,3.1-4.3c0-4.8,11-12.2,12.4-16.9C254,268.3,253.3,262.8,254.3,256.9z"/>
			<path class="st5" d="M257.4,286.2c0.5,6.2,0,10.2-2.6,15.8c-1.7,2.6-3.4,5.4-5.1,8.1c0.2-1.2,0.5-2.6,0.9-3.9
				c2.3-3.9,6.2-11.2,6.2-15.5C256.8,288.3,257.4,286.2,257.4,286.2z"/>
			<path class="st5" d="M243.4,306.2c0,0-0.6,2.5-0.2,3.6c0.2,1.1,1.9,2.2,2.9,2c1.1-0.5,2.5-1.9,2.5-1.9l-0.9-2.2L243.4,306.2z"/>
			<path class="st5" d="M232.7,287.6c0,0-2,5.4-0.9,8.4c1.7,4.8,4.2,8.5,9.9,7.1c0.8-0.8,1.7-1.5,2.6-2.2c0,0-5.1,2.3-7.3,0.6
				C232.4,297.4,232.4,293.2,232.7,287.6z"/>
			<path class="st6" d="M243.3,308.7c-0.8-3.1,4.3-5,5.1-2.8c0.5,1.6,0.3,4.3-0.2,4.7c-0.5,0.5-0.3-2.2-2.5-2.2
				C243.7,308.4,243.3,308.7,243.3,308.7z"/>
			<path class="st6" d="M254.6,289.3c-0.5,4.6-6.5,10.1-9.8,13c-1.4,0.3-2.8,0.6-4,1.1c3.1-2.3,6-5,8.2-8.4
				C251.5,293.7,253.5,292,254.6,289.3z"/>
			<path class="st6" d="M249.5,282.2l-7.1,7.4l-1.7,3.7l-1.7,1.6l2.2-1.1l2.6,1.7l-1.4-3.1c0,0,0.5-0.8,1.4-2.2
				C244.7,288.9,249.5,282.2,249.5,282.2z"/>
			<path class="st7" d="M244.7,291.5c0.2-0.3,2.8-5.7,4.8-7.6c2-1.9,2.8-2.2,4-1.7c1.2,0.3,1.7,0.9,1.7,0.9s-2.8,0.3-3.6,1.1
				c-0.9,0.8-2.3,3.7-3.9,5.1C246.2,290.7,244.7,291.5,244.7,291.5z"/>
			<path class="st7" d="M244.2,305.6c1.1-0.2,2-0.5,3.1-0.5c1.2-4,3.7-8.2,5.7-11.9C249.3,297.3,246.8,301,244.2,305.6z"/>
		</g>
		<g class="st3">
			<path class="st8" d="M251,226.1c0,0-0.5,0.3-1.2,2.3c-0.5,1.9,0.3,3.9,0.9,5.9c0.8,2.2,2,7.4,2,7.4l0.6,3.6c0,0,3.1-0.5,3.7-4.3
				c0.6-3.7-0.2-10.2-1.6-12.3C254.3,226.7,251,226.1,251,226.1z"/>
			<path class="st9" d="M249.8,226.7c2.5-3.6,7,0.5,8.1,2.6c1.1,2.5,2.2,5.4,1.4,9.3c-0.2,0.5-4.3,10.4-6.4,6.7c0,0,3.3-3.9,3.3-6.5
				c0-2.3-0.8-8.2-3.3-10.4C250.6,226.1,249.8,226.7,249.8,226.7z"/>
		</g>
		<path class="st10" d="M200.5,233.8l-3.7,5.9c0,0,5.1,2.5,5.1,5c0,2.5-0.6,14.1-0.6,14.1l0.6,6.2l8.5,3.6l0.3-6.8l-0.6-19.4
			L200.5,233.8z"/>
		<g class="st3">
			<path class="st8" d="M234.7,222c0,0-2.8-1.2-5.9,0.5c-3.1,1.9-3.6,5.1-3.6,6.8c0,1.9,1.4,7.1,2.8,8.4c1.4,1.4-0.2,6.2-0.2,6.2
				l0.2,2.8c0,0-2.3,0.2-2.3,3.3c0,2.8-0.9,4.2-0.3,6.5c0.8,2.5,2.9,5.3,5.1,6c2.2,0.9,7.1,0.5,8.8-0.5c1.7-0.8,6.8-10.1,6.8-18
				c0-8.1-3.7-17.5-5.7-19.2C238.5,223,234.7,222,234.7,222z"/>
			<path class="st9" d="M225,230.1c0,3.1,0.8,6.8,3.4,8.7c0,0.8-0.3,1.4-0.3,2.2c2.6-1.2,5.1-2.8,8.1-2.8c-0.8-0.6-1.4-1.2-2.2-1.7
				C227.9,237.5,228.4,232.6,225,230.1z"/>
			<path class="st9" d="M227.9,243.6c2.5,4.3,6.7,5.6,11,6.8c-1.6,0-3.3,0-4.8,0.2c-7.8-4.2-9.1-1.4-8.1,6.8c-2-4.3-2-8.8,1.9-11.8
				C227.9,244.8,227.9,244.2,227.9,243.6z"/>
			<path class="st9" d="M231.2,221.9c17.5-5.7,17.1,25,14,33.7c-2.6,6.8-10.4,11.2-16.3,4.3c5,0.3,8.7-0.1,11.9-4.3
				c-0.3-0.9-0.6-1.5-0.9-2.3c4.5-3.1,4.8-9.9,0.5-13.2c3.4-5,0.9-7.8-3.3-11.3C239.9,223.1,235.4,222.8,231.2,221.9z"/>
		</g>
		
			<radialGradient id="SVGID_1_" cx="164.3238" cy="622.6641" r="64.8016" gradientTransform="matrix(1 0 0 -1 0 792)" gradientUnits="userSpaceOnUse">
			<stop  offset="0" style="stop-color:#E6E6E6"/>
			<stop  offset="1" style="stop-color:#4D4D4D"/>
		</radialGradient>
		<path class="st11" d="M178.3,129.6c-17.1,2-27.4,28.4-29.5,42.5c-1.9,13.5-2.8,31.9-0.8,42c2,10.2,10.1,20,10.1,20
			s24-29.6,29.8-33.3c5.4-3.7,8.4-8.8,8.4-13.5c0-4.8,1.7-37.4,1.7-37.4C194.4,144,187.4,128.5,178.3,129.6z"/>
		
			<radialGradient id="SVGID_00000086662500710871884730000008036183111632832934_" cx="229.0533" cy="627.4063" r="59.4363" gradientTransform="matrix(1 0 0 -1 0 792)" gradientUnits="userSpaceOnUse">
			<stop  offset="0" style="stop-color:#E6E6E6"/>
			<stop  offset="1" style="stop-color:#4D4D4D"/>
		</radialGradient>
		<path style="fill-rule:evenodd;clip-rule:evenodd;fill:url(#SVGID_00000086662500710871884730000008036183111632832934_);" d="
			M209.5,134.9c0,0,3.3-10.4,10.7-9.9c21.1,1.2,39.5,44.8,41.9,62c0.2,1.6,3.1,40.9-7.6,36.8c0,0-6.2-8.4-13.8-11.5
			C211.9,201.4,213.2,160.8,209.5,134.9z"/>
		<path class="st2" d="M207.3,128.1c18-27.4,47.8-13.3,58.3,13.6c13,25,23.3,82.2,31.2,94.9c8.2,12.1,14,18.5,17.5,32.9
			c-5-9.8-10.4-19.4-17.5-27.8c0.2,23.7,4.5,46.2,10.2,69.2c-0.9-0.5-1.4,0.9-2.2,0.5c-9.6-32.1-9.8-61.4-13.5-78.3
			c-11.9-30.6-17.1-62.3-31.5-93.2c-8.1-17.1-37.4-34.3-46.2-9L207.3,128.1z"/>
		<path class="st2" d="M205.6,127.8c0,0-7-10.1-11.5-12.6c-25.3-15-47.6,25-54.4,39.1c-10.5,21.6-21.1,61.9-30.4,85.4
			c-13,17.5-22.2,27.1-29.6,49.8c1.1,0.3,1.9,0.8,2.6,1.2c7.6-18.5,12.6-30.1,26.7-44.4c2.6,18.8-1.4,33.7-7.9,51
			c0.9,0.2,1.9,0.5,2.5,0.9c14.6-35.2,5-46.8,11.3-64.7c7.1-20.5,48.2-161.9,86.5-103.9C202.8,129.2,204.2,128.5,205.6,127.8z"/>
		
			<radialGradient id="SVGID_00000180350008913419878020000004335401556398938267_" cx="182.3306" cy="571.4815" r="53.0268" gradientTransform="matrix(1 0 0 -1 0 792)" gradientUnits="userSpaceOnUse">
			<stop  offset="0" style="stop-color:#FE9929"/>
			<stop  offset="1" style="stop-color:#655237"/>
		</radialGradient>
		
			<path style="display:none;fill-rule:evenodd;clip-rule:evenodd;fill:url(#SVGID_00000180350008913419878020000004335401556398938267_);" d="
			M235.4,206.1c0,0-10.9,8.4-15.4,12.1c-8.1,6.7-5,13-19.4,12.1c0,0-0.5,5-4.8,7.4c-4.5,2.5-19.5,11.8-22,14.7
			c-2.5,3.4-6.7,11.6-9.9,9.6c-3.3-2-10.4-17.1-6.7-34c4.3-20.6,21.6-35.7,44-31.2c3.4,0.8,9.1,1.6,9.1,1.6
			C219.1,197.7,230.2,197.7,235.4,206.1z"/>
		<path class="st2" d="M210.9,223.4c0,9.1,0,18.5,0,27.6c0.3,19.7-2.8,29.6-11.2,46.8c-10.9,16-21.1,29-34.4,43.1
			c-3.4,1.6-7,3.1-10.4,4.5c0,0.8,0,1.6,0,2.3c2.2-0.6,4.2-1.2,6.4-1.9c-25.4,27.1-31,80.2-37.1,115.1c1.1-0.2,2.2-0.3,3.1-0.5
			c7.9-37.8,11.6-82.2,36.6-113c-5.4,15.5-7.6,29.2-9,45.3c5.4-25.6,8.4-47.8,28.7-65.8c-20.6,45.4-31,85.1-42,133.5
			c1.2,0,2.5,0,3.4,0c15-60.9,29.8-103.9,57.8-159.1c0,0,9.8-16,12.1-15.2c29.8,38.9,21.4,112.6,16.7,174.3c1.1,0,2.2,0,3.4,0.2
			c2.6-42.6,9.6-89,4.2-131.5c17.5,19.2,15.7,34,8.8,56.9c0.5,0,0.9,0,1.4,0c2-7,4.2-14.1,6.4-21.1c7.1,13.3-6.2,78-8.5,95.4
			c0.9,0,2,0,3.3,0c5.4-32.3,17.5-80.8,6-112.3c2.3,0.5,4.7,1.2,7.1,1.9c0-0.5,0-1.1,0-1.5c-15.4-6.5-31.9-45.6-38.3-59.6
			c-1.2-7.4-2.3-14.7-3.3-22c0,0,7.6,6,8.1,7c0.5,0.9,3.6,11.9,3.6,11.9c0.3-0.5,0.8-0.6,1.2-0.9c-1.2-3.7-2.2-6.4-1.2-10.5
			c1.4,2.3,2.9,4.5,4.5,6.7c0.3-0.5,0.6-0.9,1.1-1.2c-0.9-1.9-1.9-3.6-2.6-5.4c2,0.5,4,0.9,6,1.4c0.5-0.5,0.6-0.8,1.1-0.9
			c-1.1-0.3-2.3-0.5-3.4-0.8c1.2-1.6,2.9-3.7,4.2-5.1c1.2,0,2.6,0,3.9,0.2c-0.8-0.6-1.4-1.2-2-1.7c-1.4,0.5-3.1,0.9-4.5,1.6
			c0,0-1.2,2.9-6.2,2.9c-6,0.2-10.9-5.6-14.1-9.6c-0.6-8.8-1.2-17.7-1.7-26.5c2,3.4,3.4,6.4,7.4,7.4c0.2-0.8,0.5-1.7,0.6-2.5
			c-3.1,0.9-7.3-12.7-7.8-14.9C216.6,221.3,215.7,222.7,210.9,223.4z"/>
		<path class="st14" d="M198.6,153.2c0,0-5.9-14.1-2.8-20.8c8.2-17.7,35.2-10.5,45.9,0c23.4,22.5,22.5,59.9,35.2,87.9
			c4.6,10.4,18.9,35.7,24.7,46.7c5.6,11.3,12.3,36.1,12.3,36.1c0-33.2-24.7-56.8-34.3-87c-7.8-23.7-13.2-65.4-32.3-83.1
			c38,12.4,47,55.1,51.6,90.1c2.2,12.9,2.8,35.2,8.1,40.5c0,0-5.9-39.2-8.1-53.2c-6.4-43.7-16.6-68.5-56.9-83.7
			c-11.8-7.1-28.1-16.1-42-9c-6,3.3-5.1,7.4-7.8,7.4c-2.3,0-2.2-7.4-2.2-7.4c-1.4-0.2-2.9-0.5-4-0.9c0.2,2.3,0.5,4.7,0.6,7
			c-7.1-7.4-17.8-1.9-23.3,4.5c0.9,1.6,1.6,2.9,2.3,4.3c7.8-6.8,20-10.2,21.4,4.3c0.9,9.6,2.8,11.6-0.2,14.7
			c-2.8,3.1-8.5,7.9-8.5,7.9c0.5,0.6,1.1,1.4,1.6,2c2.2-2.5,9.6-7.8,12.2-2.9C194.3,156.9,196.4,155,198.6,153.2z"/>
		<path class="st14" d="M178.4,159.4c-2.6,2.6-4.8,12.2-5.9,16c-0.9,3.3-2.9,7-6.4,8.2c0,0.6,0.2,1.4,0.2,2c2-0.6,3.1,0,4.8,0.9
			c0.5-0.5,0.6-0.8,0.9-1.1c-3.7-2.2-1.9-3.4,1.4-2.8c5-3.3-1.9,0.2-1.4-2c0-0.9,2.9-6,2.9-6c0.5,1.7,0.9,3.4,1.4,5.1
			c0.6-0.5,1.1-0.8,1.6-1.1c-1.4-7.1-0.2-11,2.2-17.5C179.7,160.5,179.1,159.9,178.4,159.4z"/>
		<path class="st14" d="M176.4,178.9c0,0,0,1.7-0.6,2.2c-0.8,0.5-2.3,1.7-2.3,1.7s0,1.4-0.5,2c-0.5,0.8-1.4,0.6-1.4,0.6l-0.8,1.1
			c0,0,0.2,0.8-0.8,1.1c-0.9,0.3-3.3,0.2-3.3,0.2s-0.9,2.2-0.6,3.3c0,0.9,2.2,2.3,2.2,2.8c0,0.6-2.2,1.1-2.2,1.1l-0.3,0.9
			c0,0,2.5-0.2,3.3-0.9c0.6-0.6,0-2.2,0-2.2s-2-1.4-1.9-2.2c0.3-0.8,1.4-0.2,1.4-0.2l2,2.5l0.8-0.6c0,0-2.5-2.3-2.2-2.9
			c0.3-0.8,1.2-0.5,2.2-0.8c0.8-0.3,1.2-1.6,1.2-1.6l1.6,3.1l0.8-0.8c0,0-1.1-2-1.1-3.1c0-0.9,0.6-2.2,0.6-2.2l2.5,2.3l0.8-0.6
			c0,0-1.7-1.1-2.3-1.9c-0.5-0.8-0.2-1.9,0.5-2.3c0.6-0.5,1.1-0.2,1.4,0.3c0.5,0.5,1.1,2.3,1.1,2.3s1.6,1.4,1.6,3.1
			c-0.2,1.7-0.8,2-1.7,2.5c-1.1,0.3-2,0.3-2,0.3s0.3,1.7-0.9,2.8c-1.1,0.9-1.9,0.9-1.9,0.9s-0.6,2-2.3,2.5s-2.5-0.5-2.5-0.5
			l-1.1,0.9c0,0-0.5,1.1-0.9,1.2c-0.5,0.2-0.8-0.3-0.8-0.3l-0.2,1.9c0,0,1.1-0.2,1.9-0.8c0.8-0.6,1.1-1.4,1.1-1.4s2,0.5,3.4-0.2
			c1.2-0.8,1.9-2.3,1.9-2.3s1.7-0.2,2.5-1.7c0.6-1.7,1.1-2.3,1.1-2.3s2.5,0.5,3.1-1.7c0.8-2.2-0.3-4.3-0.3-4.3l-2.3-6.5L176.4,178.9
			z"/>
		<path class="st14" d="M178.9,183.6l-1.4,2.2c0,0-0.6,0.5-0.9,0.8c-0.3,0.3-2.6,3.6-2.6,3.6s-0.2,1.2-0.9,1.4
			c-0.8,0.3-2.2,0.8-2.2,0.8l-1.9,1.4v1.2c0,0,2.6-2,3.1-2c0.6,0,1.4,1.9,1.4,1.9l0.6-0.9c0,0-0.2-1.9,0.5-2.5
			c0.8-0.8,1.7-1.2,1.7-1.2l0.8-0.2c0,0-0.9-0.6,0-2c1.1-1.4,2.5-3.3,2.5-3.3L178.9,183.6z"/>
		<path class="st14" d="M197.1,188.9c0,0,1.6,8.7,0.3,11.6c-1.1,2.9-7.9,5.9-12.9,7c-4.8,1.2-8.7,2-10.7,5.3
			c-2.2,3.3-9,11.6-10.5,14.1c-1.7,2.3-2.8,4.3-2.8,4.3s-1.6,3.1-1.6,5.9c0,2.8,0.6,5.7,0.6,5.7s-0.3-5.1,0.9-8.1
			c0.9-2.6,1.6-3.7,1.6-3.7l0.3,5.3l0.8-3.3l3.3,2.6c0,0-2.5-2.9-2.8-4.2c-0.3-1.2,0-2.9,0-2.9l2.2-2.3c0,0,1.1,2.3,1.9,3.3
			c0.5,1.2,2.2,2,2.2,2s-1.4-2.5-2-4c-0.6-1.7-0.6-2.5-0.6-2.5l2.8-3.1l3.1,5.6l0.2-1.7c0,0-2-4.5-1.4-5.4c0.6-0.9,1.9-0.9,1.9-0.9
			s1.9,0.9,4,0.3c2.2-0.6,4-1.2,4-1.2l3.6,2l-2.6-2.9l3.4-1.9l3.3,2.9l-1.9-3.6l2.8-2.9c0,0-4,2.3-5.1,2.5c-1.2,0.3-4.2,2.9-6.2,3.1
			c-2.3,0.3-4.5,0.9-4.5-0.6c0-1.7,0.9-3.9,3.1-5c2.2-1.1,9-2,12.1-3.4c3.1-1.4,7.6-4.5,8.8-3.7c1.1,0.9,2,19.4,2,19.4h7.8l-1.6-31
			c0,0-3.7-1.4-6.2-2.5C198.1,189.6,197.1,188.9,197.1,188.9z"/>
		<path class="st14" d="M197.7,238.6l5.1,5.1c0,0,0.5,6.7-0.2,9.3c-0.8,2.8-1.4,4-1.4,4l-0.8-13c0,0-1.2-0.9-2.8,0.2
			c-1.4,1.4-2.6,2.8-2.6,2.8s-2,0.3-2.3-1.1c-0.3-1.4,0.5-2.6,0.5-2.6L197.7,238.6z"/>
		<path class="st14" d="M200.9,227.9c0.5,2.3-0.5,5.1-0.9,7.6c3.1,3.4,6.4,6.2,10.2,8.7c0-1.2,0.2-2.3,0.2-3.6c0,0,5,2.6,9.6,2.6
			c5,0.3,5.7-0.6,9,2.5c0-1.4-0.5-3.4-2.2-3.4c0.8-0.6,1.7-1.2,2.6-1.9c-9.5,1.7-22.6-0.5-20.5-12.6
			C206.2,227.9,203.6,227.9,200.9,227.9z"/>
		<path class="st14" d="M202.2,262.2l0.2,29.9c0,0,6.4-11.3,7.1-15.5c0.9-4.3,1.4-8.5,1.4-8.5l-5.3-8.4L202.2,262.2z"/>
		<path class="st14" d="M148.7,460.5h3.1c0.9-3.4,23.7-94,33.3-107.5c6.5,9.5-14.6,96-16.7,107.5l2-0.3c0,0,18.3-75.5,18.8-87.5
			c0.8-11.9,1.1-23.7,2.9-29.2c2-5.6,14.1-38.6,16.4-40.2c2.5-1.5,4.5-0.3,6,3.6c6.2,16.7,11.2,32.9,6.2,50.7
			c-9.1,34.1-11.3,67.9-14.1,103.3h2c0.8-8.2,7.9-100.5,18.3-104.8c3.7-1.4-2.6,93.7-3.1,104.5h2.2c0,0,7.1-96.1,6.4-102
			c-2.2-24.5-7-41.4-17.1-64.4c-0.6-3.3-2.3-7.4-2.3-7.4c-3.6,5.1-7,10.1-10.5,15c0,0-7.6,21.6-9.3,26.8
			c-4.8,14.4-15.5,29.9-19.7,45C164,403,156.3,431.2,148.7,460.5z"/>
		<path class="st14" d="M166.8,126.5c-59.7,2.9-61.1,125-75.4,167.5c1.1,0.2,2,0.5,2.9,0.6c14.6-37.5,16.4-160.2,71.5-164.1
			L166.8,126.5z"/>
		<path class="st14" d="M164,128.2c-36.8,29.2-29,98.6-63,137.7c-0.3,2.2-0.6,4.3-0.9,6.4c37.7-31.9,33-123.9,66.7-140.8
			C165.9,130.4,165,129.5,164,128.2z"/>
		<path class="st2" d="M210.5,195.4c0,0,1.1,25.4,0.2,27.8c-0.8,2.2-10.7,2.6-12.7,0.3c-2.3-2.6,2.8-12.7-6.4-12.7
			c4.5,3.3,4.8,6.2,3.1,11.2c-1.6-1.7-2.9-3.6-4.3-5.4c1.1,2.5,2.5,4.8,3.9,7.3c-2.2,6.2-6.7,8.5-12.1,12.4
			c-2.8,0.5-5.6,0.9-8.2,1.4c2.5-0.3,5-0.5,7.3-0.6c-2,1.9-4.2,3.7-6.4,5.7c1.2-0.3,3.6-1.9,5-2c5.4-5.9,10.5-8.2,16.3-13.3
			c0,0,8.4,1.4,10.7,1.1c2.6-0.5,9.5-3.9,9.5-3.9s3.9,2.8,5.7,5c5.1,6.1,21.4,6.7,29.3,6.7c-2.6-1.9-2.6-1.4-0.3-3.6
			c-0.5-0.3-0.8-0.6-0.9-0.9c-2.8,5.7-21.6,0.6-24.7-2.8c-3.7-3.4-5.1-5.7-5.1-5.7c-0.5-8.7-0.8-17.2-0.9-25.9
			C216.3,196.8,213.5,196,210.5,195.4z"/>
		<path class="st14" d="M194,217.5c-0.6,3.6-1.2,7.1-1.7,10.9c6.4,7.6,14.6,18.5,25.6,19.9c13.5,1.9,22.9-4.3,33.2-11.8
			c1.9,0.8-0.5,0.3-0.9,1.6c-0.3,0.6,2,0.2,2,0.2c0,0.5,0.2,0.9,0.3,1.4c-1.1,0-2.2-0.2-3.1-0.2c-7.6,5.7-16.4,11.6-26.4,11.2
			c-7.4-0.2-15.2-3.4-18.1-6c-3.1-2.6-11.6-11.9-12.9-13.3c-1.1-1.2-2-2.5-6.4-0.9c-4.3,1.9-11.6,4-13.6,5.7
			c-1.9,1.7-5.6,5.1-5.6,5.1c1.6-2,2.8-3.9,4-5.6c-0.9-0.5-2-0.9-3.1-1.7c4.7,1.2,8.7-0.8,12.9-2.3c-1.7-3.4-4.7-2.5-8.1-2
			c1.6-0.6,2.9-0.9,4.3-1.6c0-1.6,0-3.1,0-4.7c0.6,1.6,1.1,2.9,1.6,4.7c1.1,0.5,2.3,1.6,3.1,2.8c2.5-1.7,5.4-2.6,8.5-2.6
			c0-0.5,0-1.1,0-1.7c-2.9,0.6-8.2-0.2-8.8-3.9c1.6,1.6,3.9,2.8,5.9,2.3c0-1.1-0.2-2.2-0.2-3.6c0.5,1.4,1.1,2.5,1.9,3.6
			c0.8,0,1.7,0,2.6-0.2C191.8,222.2,193,219.9,194,217.5z"/>
		<path class="st2" d="M208.5,263.8c0,0-7.6,7-10.9,9c-3.4,2.2-8.5,4.3-8.5,4.3s-0.8-0.5-2-4.8c-1.1-4.3-1.6-7.3-1.6-7.3l-2.3,0.3
			l0.5,7.3l-6.4,3.6l3.4-0.6l3.6-1.7l1.2,2.8c0,0-3.4,2.3-4.3,2.6c-0.6,0.5-4.3,0.2-4.3,0.2l2.9,1.7v5.1l2.6-4.7
			c0,0,2.2-3.1,3.1-3.3c0.9-0.2,2.8,3.3,2.8,3.3s2.9,2.2,2.9,4.2c0,1.9-2.5,5.7-2.5,5.7l-3.1,5.9l3.7-4.3l5.6-6.4l-5.6-7.8
			c0,0,7.9-2.8,10.5-5c2.8-2.3,10.1-8.7,10.1-8.7L208.5,263.8z"/>
		<path class="st14" d="M204.2,245.9c0,0,0.6,5.6-1.4,9.6c-2.2,3.9-11.2,13.5-11.2,13.5s-1.9-0.5-1.9-2.2c0-1.5-0.6-3.7-0.6-3.7
			l-2.6,0.9l1.4,5.9h-9.5l2.5,1.2c0,0,6.2,0.5,7.9,1.1c1.9,0.5,2,2.5,2,3.7c0,1.1-2.5,9.3-2.5,9.3l-3.7,2.2l2.5,0.6l1.7-1.9v2.8h1.7
			c0,0-0.2-6,0.5-7.9c0.3-2,1.9-3.6,1.9-3.6l2.9,2.9L194,285l0.9,0.9l2.2-3.9l2.9,2l0.3-2c0,0-6.8-6.7-6.8-9.3
			c0-2.8,4.8-7.3,4.8-7.3l6.7-8.2c0,0,5.4,7.9,7.4,10.4c2,2.6,7,6.2,11.2,8.7c4.3,2.6,6.2,5.3,6.2,5.3l2.3,4.8c0,0-1.1-4.3-1.1-6.4
			s6.8-2,6.8-2l6.1,2.6l-1.7-2l3.1-0.3c0,0-5-0.6-5.7-1.5c-0.8-0.6,0.5-1.9,0.5-1.9l2.5-2.6l4.2,0.5l1.9,1.6l-0.8-2.2l1.9-1.9
			l-3.7,1.6l-2.9-0.5l0.8-2.8l4-0.5l2.5-0.8l-2-0.2l0.8-2.3l-2,2.3l-3.6,0.5l-0.2-1.7h-2.2c0,0,1.4,5.3-2.6,7.3
			c-3.9,2-6.4,4.7-11.5,2c-5.3-2.5-11-6.5-14.9-12.6c-3.9-6.2-5-15.5-5-15.5L204.2,245.9z"/>
		<path class="st2" d="M188.8,145.1c0,0-15.4,1.7-21.1,8.2c-11.9,13.3-13,22.2-11.5,40c0.5,4.7,1.4,11.9,8.5,7.1
			c-0.8-0.3-1.2-0.6-2-1.1c-3.3,1.6-3.7-3.3-3.7-5.3c2.6,1.7,3.9,1.7,7.1,1.7c-0.8-2.6-5.7-0.9-7.6-3.6c-0.9-0.9-0.6-5.4-0.6-5.4
			c1.9,2,3.4,1.6,5.9,1.1c-0.3-0.5-0.6-0.9-1.1-1.4c-2.3,0-3.7-0.2-4.2-2.6c2.3,0.8,4.7,1.9,7.1,2.2c0-3.1-3.3-1.9-5.1-3.7
			c-7.4-17.5,16-32.1,28.4-33C188.8,147.9,188.8,146.5,188.8,145.1z"/>
		<path class="st2" d="M161.9,187.9c0,0,0.8,2.5,0.3,2.9c-0.5,0.6-2.2,0.2-2.2,0.2l-0.6-3.3l-1.1,5.6h0.8c0,0,0.9-1.9,1.9-1.4
			c0.8,0.5,2.6,2.9,2.6,2.9l0.8-0.2l-1.7-2.9c0,0,0.9-0.9,0.9-2c0-0.9-0.8-2.3-0.8-2.3L161.9,187.9z"/>
		<path class="st2" d="M162,194.8l-0.9,5.7l1.2-0.5l0.8-4.8L162,194.8z"/>
		<path class="st2" d="M163.2,184.2l-0.9,2l0.9,2.3l2.6,1.6l0.5-1.7c0,0-0.9,0.2-1.9-0.6c-0.9-0.8-0.5-2.6-0.5-2.6L163.2,184.2z"/>
		<path class="st14" d="M217.8,149.3c0,0,12.1-0.9,16,2.9c3.7,3.9,4.8,12.3,6,20.5c1.2,8.4,3.9,10.4,5.6,11.6
			c1.9,1.2,1.2,0.9,1.2,0.9s2,2.6,2,4c0,1.6-0.3,2.6-0.3,2.6s1.4,0.3,1.4,0.9c0,0.8,0,0.9,0,0.9s-0.6-1.1-1.7-1.1
			c-0.9,0-0.6,1.6-0.6,1.6s1.4,1.6,1.7,1.4s0.9-0.3,0.9-0.3l0.2,2.3c0,0-1.1-0.5-1.4-0.2c-0.3,0.2-1.5,0.9-1.1,1.9
			c0.5,1.1,1.2,2,1.9,2c0.5,0,1.4-1.1,1.4-1.1l0.8,1.2c0,0-1.1-0.2-1.1,0.8c0,0.6,1.9,0.3,1.9,0.3l0.2,1.1c0,0-1.1,0-2.5-0.2
			c-1.2-0.5-4-4.3-4-4.3s1.1-1.1,1.1-2.3c0-1.1-0.9-2.6-0.9-2.6l-1.1-0.2l-1.4,2.2l-0.9-0.5c0,0,1.9-2,1.9-2.5
			c0-0.5-0.9-2.5-0.9-2.5l0.8-0.5c0,0,0.6,1.9,1.6,1.9c0.8,0,1.6-1.9,1.4-2.9c-0.3-1.2-1.9-2.9-2.9-4c-1.4-0.9-3.1-2.5-3.1-2.5
			l-2.2-1.9c0,0-2.2-13.3-2.8-17.1c-0.9-3.9-2.6-8.1-4.5-9.5c-1.9-1.4-5.1-2.3-8.2-2.3s-6.4,0.6-6.4,0.6L217.8,149.3z"/>
		<path class="st14" d="M239.2,179.2c0,0,0.6,9.1,0.6,10.2s0.8,4.2,1.4,5c0.8,0.9,5.4,5.4,5.4,5.4l0.3-1.2l-3.3-2.9
			c0,0-2.2-2-2.2-2.9c0-0.9,0-1.9,0.6-2.2c0.8-0.2,2.2,0.9,2.2,0.9l0.3-0.9c0,0-0.8-0.9,0-1.9c0.5-0.9,1.7-1.7,1.7-1.7l-0.6-0.6
			c0,0-2,0.6-2.3,1.2c-0.2,0.8-0.5,1.7-0.9,1.7c-0.5,0-0.9-0.9-1.4-1.9c-0.3-1.1,0-5.9,0-5.9L239.2,179.2z"/>
		<path class="st2" d="M208.7,141.4c-1.9,1.4-1.1,4-0.2,5.7c2.9-0.9,1.4,8.5,1.2,9.6c0.9,2.2,5.6,2.6,6.5-0.2c0,0,0.5-5.7,2.3-7.8
			c8.5-10.2,24.3,4.2,27.6,12.3c3.1,7.4,3.4,17.4,3.4,17.4c-0.5,1.4-2.6,6.7-1.4,7.8c0.3-1.6,2.5-6,4.3-2.5c0.3,1.2,0.5,2.5,0.8,3.7
			c-1.4,0.5-2.6,1.1-3.7,1.7c0,0.3,0,0.6,0,0.8c3.7-2,8.7,3.9,1.9,5.6c0,0.6,0.2,1.1,0.3,1.6c5.9-2.3,4.7,4.3,0.9,5.7
			c0,0.3,0,0.8,0,1.1c3.9-0.6,6.2-5.3,3.1-8.4c0.5-2.2,1.1-5.4-1.2-6.7c0-3.3-0.8-6.5-2-9.1c-1.2-17.8-5.4-38-29.5-38.6
			c-2.8,0.3-9.1,3.7-9.1,3.7C212.3,143.7,210.5,142.6,208.7,141.4z"/>
		<path class="st2" d="M248.2,184.8l2.5,4l1.1-0.5c0,0-1.1-1.2-1.1-1.7c0.3-0.3,2.2-2,2.2-2l-0.5-1.4c0,0-1.2,1.9-1.9,1.9
			c-0.9,0-1.9-0.9-1.9-0.9L248.2,184.8z"/>
		<path class="st2" d="M250.2,192.3l0.3,1.4c0,0,1.4-0.5,1.9,0.2c0.3,0.5,0.5,2.9,0.5,3.9c0,0.9-1.4,2.3-1.4,2.3l0.6,1.1
			c0,0,1.4-1.1,1.7-1.7c0-0.8-0.2-5.1-0.5-5.7c-0.3-0.9-1.4-1.4-1.4-1.4l0.6-3.3l-0.8,0.2c0,0,0.2,1.2-0.3,1.9
			C251,191.8,250.2,192.3,250.2,192.3z"/>
		<path class="st2" d="M217.8,142.8c-0.9-6-2.5-12.9-8.8-15.2c-6.5-2.2-12.4,7.3-12.7,12.1c-0.3,3.9,0.8,17.8,6.5,18.3
			c3.4,0.3,6.7-1.7,6.7-4.2c0-2.2-2.8-11.6-1.2-13c2.2-1.7,3.6,3.7,3.9,4.3C214,145.3,217.8,145.7,217.8,142.8z"/>
		<g class="st3">
			<path class="st15" d="M198.1,150.9l-6.7,8.5c0,0-1.6,11.2,0.3,17.1c2.3,6.2,2.3,10.4,8.5,13c6.4,2.8,17.1,7.1,23.3,7.1
				c6.4,0,9.3-0.3,9.9-3.4c0.6-3.1,0.8-14-2.2-18.3c-2.9-4.3-11.3-18.3-11.3-18.3l-0.5-5.3l-13.8-3.4L198.1,150.9z"/>
			<path class="st9" d="M191.6,157.1c-0.9,8.5-2.8,24.5,4.7,30.7c5.7,4.7,21.6,9.9,29.2,9.5c2.6-0.2,5.7-1.2,5.7-1.2s-4.2-1.9-6-1.7
				c-1.7,0.5-7-2-9.3-1.6c-2.3,0.5-6.4,0-6.4,0s5.9-2.2,5.6-2.2c-0.3,0-9.3,0.8-9.3,0.8s4.2-2,3.7-1.9c-0.3,0.2-7.1-0.2-7.1-0.2
				c1.1-0.5,2.3-0.9,3.4-1.4c0,0-5.7,1.4-7.6-0.8c-7-7.4-6.4-13.8-6.4-23.7C192.2,161.6,193,158.9,191.6,157.1z"/>
			<path class="st9" d="M197.7,151.8c0,0,0,6-0.3,7.9c-0.5,1.9-2.6,4.2-2.9,5.6c-0.3,1.6-0.6,3.6-0.6,3.6c1.2-2.3,2.2-4.7,4-6.5
				c-2,5.4-2.9,8.7-2.2,14.3c0.3-0.6,0.5-1.4,0.8-2.2c0.2,1.6,0.3,3.1,0.5,4.8c0.5-1.4,0.8-2.6,1.2-4c0.3,1.7,0.6,3.4,1.1,5
				c0.8,0.2,1.7,0.3,2.6,0.5c-0.9,0.5-1.9,0.8-2.8,1.2c1.9,0.3,3.7,0.5,5.7,0.5c-2,0.5-3.9,0.6-5.7,0.9c1.7,0.3,3.4,0.6,5.3,0.9
				c-1.2,0.5-2.5,0.9-3.9,1.2c0,0,5.3,0.3,5.7,0.6c4.3,2.8,8.1,3.4,13.2,3.9c0,0-9.5-3.9-10.7-5.3c-1.4-1.4-5-5-5-5
				c-1.1-0.2-2-0.5-3.3-0.9c1.7-0.5,3.3-0.9,5.1-1.4c-1.9,0-3.4,0-5.1,0c-0.2-1.1-0.5-2.2-0.6-3.3c-0.8-0.5-1.4-1.1-2.2-1.6
				c0-1.4-0.2-2.8-0.2-4.2c0.9,0.9,1.9,1.7,2.8,2.3c-1.1-2.8-1.9-4.7-1.2-7.8c0.9,0.6,1.9,1.2,2.8,1.7c-2.6-3.6-2.8-6.5-2.8-10.9
				C198.6,153.3,198.1,152.6,197.7,151.8z"/>
			<path class="st9" d="M216.3,154.3c0,0,1.9,6.8,2.9,9c2.5,3.9,2,5.4-1.4,8.7c2.6-6.2-1.2-7-1.7-11.3
				C216,158.6,216.3,154.3,216.3,154.3z"/>
			<path class="st9" d="M219.1,152.9c0.6,5.3,3.6,12.7,3.4,17.7c-0.5,5.6,2.9,10.4,5,15.5c0.2-0.3-2.5-10.1-2.5-13
				c3.4,5.3,12.1,17.5,4,22.3c1.5,0.9,3.9,1.4,5-1.1c5.6-13.3-5.6-27.1-12.7-37.2c-0.5-1.6-0.9-3.1-1.4-4.8
				C219.5,152.6,219.4,152.7,219.1,152.9z"/>
			<path class="st9" d="M221.4,173c0,0-0.9,0.2-2.6,1.6c-1.6,1.1-2,2.8-2,2.8l1.9-1.1l2.6-2L221.4,173z"/>
		</g>
		<path class="st14" d="M187.6,80.5c4.7,8.5-0.5,23.7-1.9,32.7l4.3,0.6c2.5-13.2,4.8-21.7,1.1-34.6L187.6,80.5z"/>
		<path class="st14" d="M213,115c0,0,8.1-18.9,8.1-28.5c3.9-9.6-9.6-10.1-19.2-11.6c-7.3-3.6-7.6-5.4-10.9-8.7
			c2.3,1.7,4.8,3.3,7.1,5c0-1.9,0-3.9,0-6c1.9,6,3.3,9,10.5,9c3.1,0,14.3,3.1,15,3.3c1.4-11,6-19.7,5.3-30.2
			c-1.1-8.2-14.3-13.3-20.9-16.4c1.4,0,2.6,0,4,0c7.6,3.7,18.9,6.8,18.9,17.4c0.6,14.1-7,26.4-7.6,44.5c-0.8,8.2-6.8,23.1-6.8,23.1
			C215.4,115.5,214.3,115.2,213,115z"/>
		<path class="st14" d="M195.7,9c10.7-1.9,30.9-2.6,32.4,12.1c0.5,3.9-0.6,20-0.6,20c-0.6-0.6-1.4-1.4-2-2c0,0,2.9-16.6-0.5-22
			C219.4,7.6,205,9,195.7,9z"/>
		<path class="st14" d="M212.7,31.1c-9.5-4.3-15.2-5.9-25.7-4.8c-0.9,0.6-1.9,1.4-2.9,1.9c1.2-0.3,2.6-0.5,3.9-0.9
			c0.2,1.1,0.5,2.3,0.6,3.4c0.3-0.9,0.8-1.9,1.2-2.8c0.9-0.2,1.7-0.2,2.8-0.5c-0.8,1.2-1.1,2.2-1.6,3.1c1.7,0,0.6,0,1.9,0.8
			c0-2,1.1-2.6,2.2-4c1.4,0.2,2.6,0.5,4,0.5c-0.9,1.4-1.7,2.8-2.5,4c1.2-1.1,2.5-2.2,3.9-3.4c-0.6,1.4-1.2,2.8-1.9,4.3
			c0.5,0,0.9,0.2,1.6,0.3c0.6-1.2,1.2-2.8,1.9-4.2C206.4,30.1,208.7,31.5,212.7,31.1z"/>
		<path class="st14" d="M206.2,8l-11,0.8l-4.3,2.6l-1.1,1.2h2.2l2.9-2.2v2.8h1.1l0.9-2.8l2.6-0.6v2.6l2.2,0.2V9.4l2.9,2.8l2.5,0.5
			l-3.3-3.9h4.7L206.2,8z"/>
		<path class="st14" d="M184.2,55.3c0,0-0.2,2.2,0.5,3.4c0.5,1.2,3.4,5.6,4.3,6.7c0.8,1.2,7.9,6.4,7.9,6.4l-1.4-2l-4.2-3.4l4-4
			l-4.5,2.6c0,0-1.2-0.2-0.5-0.9c0.8-0.9,3.1-2.8,3.1-2.8l-1.7-0.6c0,0-0.5,1.5-0.9,2s-1.9,0.6-1.9,0.6l-1.4-1.6l2.3-2.6l-1.1-0.5
			l-1.7,1.9c0,0-1.6-0.8-1.6-2.2c0-1.4,0-2.9,0-2.9S184.2,55.3,184.2,55.3z"/>
		<path class="st16" d="M213.3,117.7c-9.5-1.6-15.4,1.2-19.8,9.6c0.2,1.7,0.2,3.1,0.5,4.7C198.3,122.3,203.7,120.5,213.3,117.7z"/>
		<path class="st16" d="M188.4,127.1c0,0,1.2,13.6,2.3,16.6c2,5.3,1.2,5.6-2,9.1c2.2,1.4,3.3,2.8,6-0.6
			C192.6,144.5,192.2,134.1,188.4,127.1z"/>
		<path class="st16" d="M200.8,194.1l2.2,29.5h3.1l-1.6-28.8L200.8,194.1z"/>
		<path class="st16" d="M203.9,229.6l-0.2,8.1l3.1,2.9l-0.8-6c0,0,1.7,2.3,2.9,3.6c1.1,1.2,4.5,2.3,4.5,2.3s-5-4.5-5.7-5.9
			c-0.5-1.4-1.1-5.1-1.1-5.1L203.9,229.6z"/>
		<path class="st16" d="M205.3,248.4c-0.5,9.9,6.5,17.5,13.8,23.3c-3.4-4-9.9-11-11-15.7C207.3,253.1,205.3,248.4,205.3,248.4z"/>
		<path class="st16" d="M204.5,267l0.2-3.4l1.2-0.6l1.2,2.3L204.5,267z"/>
		<path class="st16" d="M204.8,270.4l0.3,16.3l3.4-7.8l-0.8-11.5L204.8,270.4z"/>
		<path class="st16" d="M196.1,324.5c5.1-7.4,11.2-21.2,12.4-29.9C203.3,302.8,199.4,315.2,196.1,324.5z"/>
		<path class="st16" d="M220.3,314.9c2.8,11.2,5.4,22.6,5.7,34.1c3.9,0.6,4.7,7.6,5.3,10.9C229.8,347.2,227,325.6,220.3,314.9z"/>
		<path class="st16" d="M185.1,125.1c0,0-4-4-6.2-4c-8.7,0-17.4,11.9-22.3,17.7C169.3,127.3,176.7,120.8,185.1,125.1z"/>
		<path class="st10" d="M211.5,142.2c0,0-0.6-2.2-1.7-2.8c-1.2-0.5-2.5-0.3-2.6,2.3c-0.5,2.5,0.6,7.1,0.6,9c0,1.6,0.5,5.4,0.5,5.4
			s1.2-1.9,1.2-3.1c0-1.2-1.7-8.2-1.2-9.9c0.5-1.9,0.9-2.8,1.7-2.3C210.4,141.4,211.5,142.2,211.5,142.2z"/>
		<path class="st10" d="M215,158c0,0,2.5-8.1,3.4-9.1c0.9-1.2,3.3-2.9,5.9-3.3c2.6-0.2,4-0.5,6,0.2c2,0.6,6,3.6,6,3.6
			s-4.3-2.9-7.4-2.9c-2.8,0-6.8,0.8-8.1,1.7c-1.1,0.9-4.3,7.6-4.3,7.6L215,158z"/>
		<path class="st17" d="M200,145.4c0.9,3.9-0.6,8.5,3.9,9.3c0,0,2.5-1.4,1.4-5.7c-2-7.3-0.6-24.3,9.3-10.9
			C211.6,123.3,196.3,133.5,200,145.4z"/>
		<path class="st17" d="M209.5,144.8c5,2.8,3.1,7.9,2.2,12.6c0.5,0.3,1.1,0.6,1.7,0.8c3.3-11.3,5.3-15,18.8-13.8
			c-6.5-2.6-10.7-2-16.4,1.4c-1.9,1.4-5.3-1.9-6.5-2.8C209.1,143.6,209.5,144.2,209.5,144.8z"/>
		<path class="st17" d="M187.4,146.2c-11.2,1.9-20.2,6.5-26.2,16.7c4.5-5.1,13.5-13.5,26.4-15.4
			C187.4,147.1,187.4,146.7,187.4,146.2z"/>
		<path class="st17" d="M222.6,115.7c16.3-4.3,31.9,7.3,38.1,18.5C246.2,122,247,117.1,222.6,115.7z"/>
		<path class="st18" d="M201.2,225.9c3.1,0.2,6.4,0.3,9.1-1.1C210.1,228.7,203.3,227,201.2,225.9z"/>
		<path class="st17" d="M213.3,197.5c0.2,14,0.2,27.8,0.3,41.6c1.4,0.5,2.9,0.9,4.5,1.4c-0.5-4.8-0.6-10.5-1.4-15.2
			c1.9,3.9,4,8.4,6.4,11.9c-1.6-4-3.3-8.4-4.5-12.4c2.8,3.1,4.8,4.7,8.5,6.7c-12.6-10.2-10.4-19.2-10.9-33.8
			C215.4,197.7,214.3,197.7,213.3,197.5z"/>
		<path class="st18" d="M214,243.8v4l2.8,0.5v-4L214,243.8z"/>
		<path class="st18" d="M214.3,251.4c0,4.7,0,9.3,0,14.1c1.1,0.9,2,2,3.1,3.1c0,0-0.6-9-0.6-11.2
			C216.7,254.5,217.2,252.4,214.3,251.4z"/>
		<path class="st18" d="M219.2,261.1c0.6,4.3,8.7,9.8,12.3,12.4c0.2,0.6,0.5,1.2,0.8,1.9c0-0.6,0.2-1.4,0.2-2.2
			c0.8,0.5,1.4,0.8,2.3,1.1c-0.3-0.5-0.5-0.8-0.5-1.1c0.9-0.5,1.9-0.6,2.9-0.9c0,0-4.2-0.2-6-0.5
			C227.4,270.9,221.7,264.1,219.2,261.1z"/>
		<path class="st18" d="M199.8,300c5.4-7.1,17.8-19.1,16.3-28.7c-0.9-0.9-1.9-1.9-2.8-2.8C211.2,280,205.3,289,199.8,300z"/>
		<path class="st17" d="M235.8,331.8c-0.2-3.6,0.8-7.1-0.6-12.2c2.6,4.3,4.2,6,8.7,9.9c-10.5-16.6-15.4-26.4-21.7-43.6
			c-0.9-2.8-1.2-9.1-1.2-9.1C214.7,287.8,232.6,307.6,235.8,331.8z"/>
		<path class="st19" d="M208.2,108.4h67.1"/>
		<path class="st19" d="M202,138.1h115.7"/>
		<path class="st19" d="M249.3,167.8h68.4"/>
		<path class="st19" d="M190.5,138.1H85.7"/>
		<path class="st19" d="M203.9,214.6H85.7"/>
		<path class="st19" d="M286.4,214.6h31.3"/>
		<path class="st19" d="M203.9,226.5l61.7,19.1h52.1"/>
		<path class="st19" d="M236.1,409.2h39.2"/>
		<path class="st19" d="M165.3,409.2H85.7"/>
		<path class="st20" d="M280.9,105.1c0.2-0.3,0.2-0.8,1.1-0.8c0.8,0,1.1,0.3,1.1,0.6c0,0.5-0.2,0.6-0.3,0.6l-1.4,0.2
			c-1.2,0.2-1.2,1.1-1.2,1.4c0,0.8,0.5,1.4,1.4,1.4c0.9,0,1.2-0.5,1.7-0.8c0,0.3,0,0.8,0.6,0.8c0.2,0,0.3-0.2,0.5-0.2v-0.6
			c0,0-0.2,0-0.3,0c-0.2,0-0.2,0-0.2-0.2V105c0-1.1-1.4-1.2-1.7-1.2c-1.1,0-1.9,0.3-1.9,1.4L280.9,105.1 M283.1,106.8
			c0,0.6-0.6,1.1-1.4,1.1c-0.6,0-0.8-0.5-0.8-0.9c0-0.5,0.6-0.6,0.9-0.6c0.9-0.2,1.1-0.3,1.2-0.3V106.8 M286.8,107.4h-0.9v0.9h0.9
			V107.4 M294.1,105.4c0-0.9-0.5-1.7-1.7-1.7c-1.4,0-2.2,1.1-2.2,2.5c0,1.2,0.8,2.3,2,2.3c1.4,0,1.9-1.1,1.9-1.7h-0.8
			c-0.2,0.6-0.6,0.9-1.1,0.9c-1.1,0-1.2-0.9-1.2-1.7c0-0.8,0.3-1.7,1.4-1.7c0.6,0,0.9,0.3,0.9,1.1L294.1,105.4 M296.1,105.1
			c0-0.3,0.2-0.8,0.9-0.8c0.8,0,1.1,0.3,1.1,0.6c0,0.5-0.2,0.6-0.3,0.6l-1.4,0.2c-1.1,0.2-1.2,1.1-1.2,1.4c0,0.8,0.6,1.4,1.4,1.4
			c0.9,0,1.2-0.5,1.7-0.8c0,0.3,0,0.8,0.6,0.8c0.3,0,0.3-0.2,0.5-0.2v-0.6h-0.2c-0.3,0-0.3,0-0.3-0.2V105c0-1.1-1.4-1.2-1.7-1.2
			c-1.1,0-1.9,0.3-1.9,1.4L296.1,105.1 M298.2,106.8c0,0.6-0.6,1.1-1.4,1.1c-0.5,0-0.8-0.5-0.8-0.9c0-0.5,0.6-0.6,0.9-0.6
			c0.9-0.2,1.1-0.3,1.2-0.3L298.2,106.8 M301.7,105.7c0-0.8,0.3-1.2,1.1-1.2h0.3v-0.8c0,0-0.2,0-0.3,0c-0.5,0-0.9,0.3-1.2,0.8v-0.6
			H301v4.5h0.8V105.7 M303.9,106c0,1.2,0.6,2.5,2.2,2.5c1.4,0,2-1.2,2-2.5c0-1.1-0.6-2.3-2-2.3C304.5,103.7,303.9,105,303.9,106
			 M304.7,106c0-0.6,0.3-1.7,1.4-1.7c1.1,0,1.2,1.1,1.2,1.7s-0.2,1.7-1.2,1.7C305,107.8,304.7,106.7,304.7,106 M311.2,104.5v-0.6
			h-0.8v-1.4h-0.6v1.4H309v0.6h0.8v2.9c0,0.5,0.2,1.1,0.8,1.1c0.2,0,0.3-0.2,0.6-0.2v-0.6h-0.3c-0.2,0-0.5,0-0.5-0.3v-2.9
			L311.2,104.5 M313.2,103.9h-0.8v4.5h0.8V103.9 M313.2,102.9v-0.8h-0.8v0.8H313.2 M318.2,105.1c0-0.2-0.2-1.4-1.7-1.4
			c-0.9,0-1.7,0.3-1.7,1.4c0,0.6,0.5,0.9,0.9,1.1l0.9,0.3c0.6,0,0.9,0.3,0.9,0.6c0,0.5-0.5,0.6-0.9,0.6c-1.2,0-1.2-0.5-1.2-0.9h-0.8
			c0,0.6,0.2,1.7,2,1.7c0.9,0,1.7-0.6,1.7-1.6c0-0.6-0.3-0.9-1.2-1.2l-0.8-0.2c-0.6-0.2-0.9-0.2-0.9-0.6c0-0.6,0.8-0.6,0.9-0.6
			c1.1,0,1.1,0.5,1.1,0.8H318.2 M325.8,105.4c0-0.9-0.5-1.7-1.7-1.7c-1.5,0-2.2,1.1-2.2,2.5c0,1.2,0.8,2.3,2,2.3
			c1.4,0,1.9-1.1,1.9-1.7H325c-0.2,0.6-0.6,0.9-1.1,0.9c-1.1,0-1.2-0.9-1.2-1.7c0-0.8,0.3-1.7,1.2-1.7c0.6,0,1.1,0.3,1.1,1.1
			L325.8,105.4 M326.7,106c0,1.2,0.8,2.5,2.2,2.5c1.4,0,2.2-1.2,2.2-2.5c0-1.1-0.8-2.3-2.2-2.3S326.7,105,326.7,106 M327.5,106
			c0-0.6,0.3-1.7,1.4-1.7c1.2,0,1.4,1.1,1.4,1.7s-0.2,1.7-1.4,1.7C327.8,107.8,327.5,106.7,327.5,106 M332.3,108.4h0.8v-2.5
			c0-1.2,0.9-1.6,1.2-1.6c0.6,0,0.8,0.5,0.8,0.8v3.3h0.8v-2.8c0-0.6,0.3-1.2,1.1-1.2c0.6,0,0.8,0.5,0.8,1.1v2.9h0.8v-3.3
			c0-1.2-0.9-1.4-1.4-1.4c-0.6,0-1.1,0.3-1.4,0.6c-0.2-0.2-0.3-0.6-1.2-0.6c-0.8,0-1.2,0.5-1.4,0.8v-0.6h-0.8L332.3,108.4
			 M340,108.4h0.8v-2.5c0-1.2,0.8-1.6,1.2-1.6c0.6,0,0.8,0.5,0.8,0.8v3.3h0.8v-2.8c0-0.6,0.5-1.2,0.9-1.2c0.6,0,0.8,0.5,0.8,1.1v2.9
			h0.9v-3.3c0-1.2-0.9-1.4-1.4-1.4c-0.8,0-1.1,0.3-1.4,0.6c-0.2-0.2-0.5-0.6-1.2-0.6c-0.8,0-1.2,0.5-1.4,0.8v-0.6H340L340,108.4
			 M351.4,108.4v-4.5h-0.8v2.5c0,0.6-0.2,1.4-1.2,1.4c-0.5,0-0.8-0.2-0.8-0.9v-2.9h-0.8v3.3c0,0.9,0.8,1.4,1.4,1.4
			c0.8,0,1.2-0.3,1.6-0.8v0.6L351.4,108.4 M356.8,105.1c0-1.1-0.9-1.4-1.6-1.4c-0.9,0-1.2,0.5-1.4,0.8v-0.6h-0.8v4.5h0.8v-2.5
			c0-1.2,0.8-1.6,1.1-1.6c0.9,0,1.1,0.3,1.1,1.2v2.8h0.8V105.1 M359.1,103.9h-0.8v4.5h0.8V103.9 M359.1,102.9v-0.8h-0.8v0.8H359.1
			 M364.1,105.1c0-0.2,0-1.4-1.5-1.4c-0.9,0-1.9,0.3-1.9,1.4c0,0.6,0.5,0.9,1.1,1.1l0.9,0.3c0.6,0,0.9,0.3,0.9,0.6
			c0,0.5-0.6,0.6-1.1,0.6c-1.1,0-1.1-0.5-1.1-0.9h-0.9c0,0.6,0.2,1.7,2,1.7c1.1,0,1.9-0.6,1.9-1.6c0-0.6-0.5-0.9-1.4-1.2l-0.8-0.2
			c-0.6-0.2-0.8-0.2-0.8-0.6c0-0.6,0.6-0.6,0.9-0.6c0.9,0,1.1,0.5,1.1,0.8H364.1"/>
		<path class="st20" d="M324.1,134.9c0-0.3,0.2-0.9,1.1-0.9c0.6,0,1.1,0.3,1.1,0.8s-0.3,0.6-0.5,0.6h-1.2c-1.2,0.3-1.4,1.1-1.4,1.6
			c0,0.8,0.6,1.4,1.4,1.4c0.9,0,1.4-0.5,1.7-0.9c0,0.5,0.2,0.9,0.8,0.9c0.2,0,0.3-0.2,0.5-0.2v-0.6c-0.2,0-0.2,0-0.3,0
			c-0.2,0-0.3-0.2-0.3-0.2v-2.8c0-1.1-1.2-1.1-1.6-1.1c-1.2,0-1.9,0.3-1.9,1.4L324.1,134.9 M326.2,136.4c0,0.6-0.8,1.2-1.4,1.2
			c-0.6,0-0.9-0.5-0.9-0.9c0-0.5,0.6-0.8,1.1-0.8c0.9,0,1.1-0.2,1.2-0.2L326.2,136.4 M329.6,135.4c0-0.6,0.5-1.2,1.1-1.2h0.5v-0.6
			c-0.2,0-0.2,0-0.3,0c-0.6,0-0.9,0.3-1.2,0.8v-0.8h-0.8v4.7h0.8L329.6,135.4 M335.7,135c0-0.8-0.5-1.6-1.7-1.6
			c-1.4,0-2.2,1.1-2.2,2.5c0,1.2,0.8,2.3,2.2,2.3c1.2,0,1.7-1.1,1.7-1.9h-0.6c-0.2,0.8-0.6,1.1-1.1,1.1c-1.2,0-1.2-1.1-1.2-1.7
			c0-0.8,0.3-1.7,1.2-1.7c0.6,0,0.9,0.3,1.1,0.9L335.7,135 M340.7,138.1v-4.7h-0.8v2.5c0,0.8-0.2,1.6-1.1,1.6
			c-0.6,0-0.9-0.2-0.9-1.1v-2.9h-0.8v3.3c0,1.1,0.8,1.6,1.4,1.6c0.8,0,1.2-0.3,1.5-0.9v0.8L340.7,138.1 M345.6,134.9
			c0-0.3,0-1.4-1.5-1.4c-0.9,0-1.9,0.3-1.9,1.4c0,0.6,0.5,0.9,1.1,1.1l0.9,0.3c0.6,0,0.9,0.2,0.9,0.5c0,0.6-0.6,0.8-1.1,0.8
			c-1.1,0-1.2-0.6-1.2-0.9h-0.8c0,0.6,0.2,1.7,2,1.7c1.1,0,1.7-0.6,1.7-1.6c0-0.8-0.3-1.1-1.2-1.2l-0.8-0.2
			c-0.6-0.3-0.8-0.3-0.8-0.8c0-0.5,0.6-0.6,0.9-0.6c0.9,0,0.9,0.6,0.9,0.9L345.6,134.9 M350.4,134.9c0-0.3,0-0.9,0.9-0.9
			c0.8,0,1.1,0.3,1.1,0.8s-0.2,0.6-0.3,0.6h-1.4c-1.2,0.3-1.2,1.1-1.2,1.6c0,0.8,0.5,1.4,1.4,1.4s1.2-0.5,1.6-0.9
			c0,0.5,0.3,0.9,0.8,0.9c0.3,0,0.3-0.2,0.5-0.2v-0.6c-0.2,0-0.2,0-0.2,0c-0.3,0-0.3-0.2-0.3-0.2v-2.8c0-1.1-1.4-1.1-1.7-1.1
			c-1.1,0-1.9,0.3-1.9,1.4L350.4,134.9 M352.4,136.4c0,0.6-0.6,1.2-1.4,1.2c-0.6,0-0.9-0.5-0.9-0.9c0-0.5,0.8-0.8,1.1-0.8
			c0.9,0,1.1-0.2,1.2-0.2L352.4,136.4 M354.8,135.8c0,1.1,0.6,2.5,2.2,2.5c1.4,0,2-1.4,2-2.5c0-1.2-0.6-2.3-2-2.3
			C355.4,133.5,354.8,134.6,354.8,135.8 M355.5,135.8c0-0.8,0.3-1.9,1.4-1.9s1.2,1.1,1.2,1.9c0,0.6-0.2,1.7-1.2,1.7
			S355.5,136.4,355.5,135.8 M361.3,135.4c0-0.6,0.3-1.2,1.1-1.2h0.3v-0.6h-0.2c-0.6,0-0.9,0.3-1.4,0.8v-0.8h-0.6v4.7h0.8V135.4
			 M365.8,134.1v-0.6H365v-1.2h-0.6v1.2h-0.8v0.6h0.8v3.1c0,0.5,0.2,1.1,0.9,1.1c0,0,0.2-0.2,0.5-0.2v-0.8h-0.3
			c-0.2,0-0.5,0-0.5-0.3v-2.9H365.8 M367.8,134.9c0-0.3,0-0.9,0.9-0.9c0.8,0,1.1,0.3,1.1,0.8s-0.2,0.6-0.3,0.6h-1.4
			c-1.2,0.3-1.2,1.1-1.2,1.6c0,0.8,0.5,1.4,1.4,1.4c0.9,0,1.2-0.5,1.5-0.9c0,0.5,0.3,0.9,0.8,0.9c0.3,0,0.3-0.2,0.5-0.2v-0.6
			c-0.2,0-0.2,0-0.2,0c-0.3,0-0.3-0.2-0.3-0.2v-2.8c0-1.1-1.4-1.1-1.7-1.1c-1.1,0-1.9,0.3-1.9,1.4L367.8,134.9 M369.8,136.4
			c0,0.6-0.6,1.2-1.4,1.2c-0.6,0-0.9-0.5-0.9-0.9c0-0.5,0.8-0.8,1.1-0.8c0.9,0,1.1-0.2,1.2-0.2L369.8,136.4 M375.5,136.6
			c-0.2,0.3-0.5,0.9-1.2,0.9c-0.8,0-1.2-0.6-1.2-1.6h3.3c0-1.6-0.6-2.5-2-2.5c-1.5,0-2.2,1.1-2.2,2.5c0,1.2,0.8,2.3,2,2.3
			c0.8,0,1.1-0.3,1.2-0.5c0.6-0.3,0.8-0.9,0.8-1.2L375.5,136.6 M373.1,135.4c0-0.6,0.5-1.2,1.2-1.2c0.8,0,1.2,0.6,1.2,1.2H373.1"/>
		<path class="st20" d="M325,167l-1.1-3.7H323l1.6,4.5h0.9l1.7-4.5h-0.8L325,167 M329.8,167l-1.1-3.7h-0.9l1.7,4.5h0.8l1.7-4.5h-0.8
			L329.8,167 M333.5,166.8h-0.9v0.9h0.9V166.8 M338,165.7c0-0.8,0.2-1.9,1.2-1.9s1.1,1.1,1.1,1.6c0,1.1-0.3,1.9-1.1,1.9
			C338.8,167.3,338,167,338,165.7 M337.2,169.6h0.8v-2.3c0.2,0.3,0.6,0.8,1.2,0.8c1.6,0,2-1.6,2-2.6c0-1.2-0.8-2.3-2-2.3
			c-0.8,0-1.1,0.6-1.2,0.8v-0.6h-0.8V169.6 M346.2,167.8v-4.5h-0.6v2.5c0,0.6-0.3,1.6-1.4,1.6c-0.5,0-0.8-0.2-0.8-1.1v-2.9h-0.8v3.3
			c0,1.1,0.8,1.6,1.6,1.6c0.6,0,1.1-0.5,1.4-0.9v0.6H346.2 M348.7,161.6h-0.8v6.2h0.8V161.6 M350.4,167.8h0.8v-2.5
			c0-1.1,0.8-1.4,1.2-1.4s0.6,0.3,0.6,0.8v3.1h0.8V165c0-0.6,0.5-1.1,1.1-1.1c0.6,0,0.9,0.3,0.9,0.9v2.9h0.8v-3.1
			c0-1.2-0.9-1.6-1.4-1.6c-0.8,0-1.2,0.3-1.4,0.8c-0.3-0.2-0.5-0.8-1.2-0.8c-0.8,0-1.2,0.6-1.4,0.8v-0.6h-0.8V167.8 M357.9,165.4
			c0,1.2,0.8,2.6,2.2,2.6c1.4,0,2-1.4,2-2.6c0-1.1-0.6-2.3-2-2.3C358.6,163.1,357.9,164.4,357.9,165.4 M358.6,165.4
			c0-0.6,0.2-1.7,1.4-1.7c1.1,0,1.4,1.1,1.4,1.7c0,0.8-0.3,1.9-1.4,1.9C358.8,167.3,358.6,166.2,358.6,165.4 M367.2,164.7
			c0-1.2-0.8-1.6-1.6-1.6c-0.8,0-1.2,0.6-1.4,0.8v-0.6h-0.8v4.5h0.8v-2.5c0-1.1,0.8-1.4,1.2-1.4c0.6,0,0.9,0.3,0.9,1.1v2.8h0.8
			V164.7 M369.5,164.5c0.2-0.3,0.2-0.8,1.1-0.8c0.6,0,1.1,0.3,1.1,0.8c0,0.5-0.3,0.5-0.5,0.5l-1.2,0.2c-1.2,0.3-1.2,1.1-1.2,1.6
			c0,0.6,0.5,1.4,1.4,1.4c0.8,0,1.2-0.5,1.5-0.9c0,0.5,0.2,0.8,0.8,0.8c0.2,0,0.3,0,0.3-0.2v-0.5c0,0,0,0-0.2,0
			c-0.2,0-0.3-0.2-0.3-0.2v-2.8c0-1.1-1.2-1.2-1.5-1.2c-1.1,0-1.9,0.5-1.9,1.4L369.5,164.5 M371.7,166.2c0,0.6-0.8,1.1-1.4,1.1
			c-0.6,0-0.9-0.3-0.9-0.8c0-0.6,0.8-0.8,0.9-0.8c1.1,0,1.1-0.2,1.4-0.3V166.2 M374.9,161.6h-0.8v6.2h0.8V161.6 M377.4,163.3h-0.8
			v4.5h0.8V163.3 M377.4,162.5v-0.9h-0.8v0.9H377.4 M382.4,164.5c0-0.2-0.2-1.4-1.7-1.4c-0.9,0-1.7,0.5-1.7,1.4
			c0,0.8,0.3,0.9,0.9,1.2l0.9,0.2c0.6,0.2,0.9,0.3,0.9,0.6c0,0.6-0.5,0.8-1.1,0.8c-1.1,0-1.1-0.6-1.1-0.9h-0.9c0,0.5,0.3,1.7,2,1.7
			c1.1,0,1.9-0.8,1.9-1.7c0-0.6-0.3-0.9-1.2-1.1l-0.8-0.3c-0.6-0.2-0.9-0.2-0.9-0.6s0.8-0.6,0.9-0.6c0.9,0,1.1,0.5,1.1,0.8H382.4"/>
		<path class="st20" d="M324.1,211.5c0-0.5,0.2-0.9,1.1-0.9c0.6,0,1.1,0.3,1.1,0.8c0,0.5-0.3,0.5-0.5,0.5l-1.2,0.2
			c-1.2,0.2-1.4,1.1-1.4,1.6c0,0.6,0.6,1.4,1.4,1.4c0.9,0,1.4-0.5,1.7-0.9c0,0.5,0.2,0.8,0.8,0.8c0.2,0,0.3-0.2,0.5-0.2v-0.5
			c-0.2,0-0.2,0-0.3,0c-0.2,0-0.3-0.2-0.3-0.3v-2.6c0-1.1-1.2-1.2-1.6-1.2c-1.2,0-1.9,0.5-1.9,1.6L324.1,211.5 M326.2,213
			c0,0.6-0.8,1.1-1.4,1.1c-0.6,0-0.9-0.3-0.9-0.9c0-0.5,0.6-0.6,1.1-0.6c0.9-0.2,1.1-0.2,1.2-0.3L326.2,213 M329.8,213.7h-0.9v0.9
			h0.9V213.7 M334.3,214.6v-0.5c0.2,0.2,0.5,0.8,1.2,0.8c1.6,0,2-1.7,2-2.8s-0.6-2.2-2-2.2c-0.5,0-0.9,0.2-1.1,0.8h-0.2v-2.3h-0.8
			v6.2L334.3,214.6 M336.6,212.3c0,0.9-0.2,1.9-1.1,1.9c-0.5,0-1.2-0.3-1.2-1.6c0-0.8,0.2-1.9,1.2-1.9
			C336.6,210.7,336.6,211.8,336.6,212.3 M339.9,212c0-0.6,0.5-1.2,1.1-1.2h0.3v-0.8c0,0,0,0-0.2,0c-0.6,0-1.1,0.3-1.2,0.8v-0.6h-0.8
			v4.5h0.8L339.9,212 M343,211.5c0.2-0.5,0.2-0.9,1.1-0.9c0.6,0,1.1,0.3,1.1,0.8c0,0.5-0.3,0.5-0.5,0.5l-1.2,0.2
			c-1.2,0.2-1.4,1.1-1.4,1.6c0,0.6,0.6,1.4,1.4,1.4c0.9,0,1.4-0.5,1.7-0.9c0,0.5,0.2,0.8,0.8,0.8c0.2,0,0.3-0.2,0.3-0.2v-0.5
			c0,0,0,0-0.2,0c-0.2,0-0.3-0.2-0.3-0.3v-2.6c0-1.1-1.2-1.2-1.5-1.2c-1.1,0-1.9,0.5-1.9,1.6L343,211.5 M345.2,213
			c0,0.6-0.8,1.1-1.4,1.1c-0.6,0-0.9-0.3-0.9-0.9c0-0.5,0.6-0.6,0.9-0.6c1.1-0.2,1.1-0.2,1.4-0.3V213 M351.4,211.7
			c-0.2-0.9-0.6-1.7-1.9-1.7c-1.4,0-2,1.1-2,2.5c0,1.4,0.6,2.5,1.9,2.5c1.4,0,1.9-1.2,2-1.9h-0.9c0,0.6-0.5,1.1-1.1,1.1
			c-0.9,0-1.1-1.1-1.1-1.9c0-0.6,0.3-1.6,1.2-1.6c0.6,0,0.9,0.3,0.9,0.9L351.4,211.7 M356.2,211.5c0-1.2-0.8-1.6-1.5-1.6
			c-0.8,0-1.1,0.5-1.4,0.8v-2.3h-0.8v6.2h0.8v-2.5c0-1.1,0.6-1.4,1.2-1.4c0.8,0,0.9,0.3,0.9,0.9v2.9h0.8L356.2,211.5 M358.6,210.1
			h-0.8v4.5h0.8V210.1 M358.6,209.3v-0.9h-0.8v0.9H358.6 M361,211.5c0.2-0.5,0.2-0.9,1.1-0.9c0.6,0,0.9,0.3,0.9,0.8
			c0,0.5-0.2,0.5-0.3,0.5l-1.2,0.2c-1.2,0.2-1.4,1.1-1.4,1.6c0,0.6,0.6,1.4,1.4,1.4c0.9,0,1.2-0.5,1.7-0.9c0,0.5,0.2,0.8,0.8,0.8
			c0.2,0,0.2-0.2,0.5-0.2v-0.5c-0.2,0-0.3,0-0.3,0c-0.2,0-0.2-0.2-0.2-0.3v-2.6c0-1.1-1.4-1.2-1.7-1.2c-1.1,0-2,0.5-2,1.6L361,211.5
			 M363,213c0,0.6-0.6,1.1-1.4,1.1c-0.5,0-0.8-0.3-0.8-0.9c0-0.5,0.6-0.6,0.9-0.6c0.9-0.2,1.2-0.2,1.2-0.3V213 M366.4,208.4h-0.8
			v6.2h0.8V208.4 M368.9,210.1h-0.8v4.5h0.8V210.1 M368.9,209.3v-0.9h-0.8v0.9H368.9 M373.8,211.3c0-0.2-0.2-1.4-1.7-1.4
			c-0.9,0-1.9,0.5-1.9,1.6c0,0.6,0.5,0.8,1.1,0.9l0.9,0.3c0.6,0.2,0.9,0.3,0.9,0.6c0,0.5-0.5,0.8-1.1,0.8c-0.9,0-1.2-0.6-1.2-0.9
			h-0.6c0,0.5,0,1.7,1.9,1.7c1.1,0,1.9-0.8,1.9-1.7c0-0.6-0.3-0.9-1.2-1.1l-0.8-0.3c-0.6-0.2-0.8-0.2-0.8-0.6s0.5-0.6,0.8-0.6
			c1.1,0,1.1,0.5,1.1,0.8L373.8,211.3"/>
		<path class="st20" d="M324.1,242.5c0-0.5,0.2-0.9,1.1-0.9c0.6,0,1.1,0.3,1.1,0.8c0,0.5-0.3,0.5-0.5,0.5l-1.2,0.2
			c-1.2,0.3-1.4,1.1-1.4,1.4c0,0.9,0.6,1.4,1.4,1.4c0.9,0,1.4-0.5,1.7-0.8c0,0.3,0.2,0.8,0.8,0.8c0.2,0,0.3,0,0.5-0.2v-0.5
			c-0.2,0-0.2,0-0.3,0c-0.2,0-0.3-0.2-0.3-0.3v-2.6c0-1.1-1.2-1.2-1.6-1.2c-1.2,0-1.9,0.5-1.9,1.6L324.1,242.5 M326.2,244.1
			c0,0.6-0.8,1.1-1.4,1.1c-0.6,0-0.9-0.3-0.9-0.8c0-0.6,0.6-0.8,1.1-0.8c0.9-0.2,1.1-0.2,1.2-0.3L326.2,244.1 M329.8,244.7h-0.9v0.9
			h0.9V244.7 M337.4,242.5c0-1.2-0.9-1.6-1.7-1.6c-0.6,0-1.1,0.5-1.2,0.6v-2.2h-0.8v6.2h0.8v-2.5c0-1.1,0.6-1.6,1.1-1.6
			c0.9,0,0.9,0.5,0.9,1.1v2.9h0.9L337.4,242.5 M342,244.2c0,0.3-0.5,0.9-1.1,0.9c-0.9,0-1.4-0.6-1.4-1.5h3.3c0-1.6-0.6-2.6-1.9-2.6
			c-1.5,0-2.2,1.1-2.2,2.5c0,1.4,0.8,2.3,2,2.3c0.6,0,0.9-0.2,1.2-0.3c0.6-0.3,0.8-1.1,0.8-1.2L342,244.2 M339.6,243
			c0-0.6,0.5-1.4,1.2-1.4c0.9,0,1.2,0.8,1.2,1.4H339.6 M345,243.6c0-0.8,0.2-2,1.2-2c1.2,0,1.2,1.2,1.2,1.7c0,1.1-0.3,1.9-1.2,1.9
			C345.8,245.1,345,244.8,345,243.6 M344.2,247.6h0.8v-2.5h0.2c0,0.5,0.5,0.6,1.1,0.6c1.5,0,2-1.4,2-2.5c0-1.4-0.6-2.3-2-2.3
			c-0.6,0-1.1,0.5-1.2,0.8v-0.6h-0.8L344.2,247.6 M350.4,242.5c0-0.5,0-0.9,0.9-0.9c0.8,0,1.1,0.3,1.1,0.8c0,0.5-0.2,0.5-0.3,0.5
			l-1.4,0.2c-1.2,0.3-1.2,1.1-1.2,1.4c0,0.9,0.5,1.4,1.4,1.4s1.2-0.5,1.6-0.8c0,0.3,0.3,0.8,0.8,0.8c0.3,0,0.3,0,0.5-0.2v-0.5
			c-0.2,0-0.2,0-0.2,0c-0.3,0-0.3-0.2-0.3-0.3v-2.6c0-1.1-1.4-1.2-1.7-1.2c-1.1,0-1.9,0.5-1.9,1.6L350.4,242.5 M352.4,244.1
			c0,0.6-0.6,1.1-1.4,1.1c-0.6,0-0.9-0.3-0.9-0.8c0-0.6,0.8-0.8,1.1-0.8c0.9-0.2,1.1-0.2,1.2-0.3L352.4,244.1 M356.6,241.7v-0.6H356
			v-1.2h-0.8v1.2h-0.6v0.6h0.6v2.9c0,0.6,0.2,1.1,0.9,1.1c0,0,0.2,0,0.5-0.2V245h-0.3c0,0-0.3,0-0.3-0.3v-2.9H356.6 M358.6,241.1
			h-0.8v4.5h0.8V241.1 M358.6,240.3v-0.9h-0.8v0.9H358.6 M363.9,242.7c0-0.8-0.5-1.7-1.7-1.7c-1.4,0-2.2,1.1-2.2,2.5
			c0,1.4,0.8,2.3,2,2.3c1.4,0,1.9-1.1,1.9-1.7h-0.8c-0.2,0.6-0.5,1.1-1.1,1.1c-0.9,0-1.1-0.9-1.1-1.9c0-0.8,0.2-1.7,1.2-1.7
			c0.5,0,0.9,0.5,0.9,1.1L363.9,242.7 M365.9,242.5c0-0.5,0.2-0.9,1.1-0.9c0.6,0,0.9,0.3,0.9,0.8c0,0.5-0.2,0.5-0.3,0.5l-1.2,0.2
			c-1.4,0.3-1.4,1.1-1.4,1.4c0,0.9,0.6,1.4,1.4,1.4c0.9,0,1.4-0.5,1.7-0.8c0,0.3,0.2,0.8,0.8,0.8c0.2,0,0.3,0,0.3-0.2v-0.5
			c0,0,0,0-0.2,0c-0.2,0-0.3-0.2-0.3-0.3v-2.6c0-1.1-1.2-1.2-1.7-1.2c-1.1,0-1.7,0.5-1.7,1.6L365.9,242.5 M367.9,244.1
			c0,0.6-0.6,1.1-1.4,1.1c-0.5,0-0.8-0.3-0.8-0.8c0-0.6,0.6-0.8,0.9-0.8c1.1-0.2,1.1-0.2,1.2-0.3V244.1 M327,252.7
			c-0.2-0.8-0.6-1.7-1.7-1.7c-1.4,0-2.2,1.1-2.2,2.5c0,1.4,0.8,2.3,2,2.3c1.2,0,1.7-1.1,1.9-1.7h-0.8c-0.2,0.6-0.5,0.9-1.1,0.9
			c-1.1,0-1.2-0.8-1.2-1.7c0-0.8,0.3-1.7,1.4-1.7c0.5,0,0.9,0.5,0.9,1.1L327,252.7 M327.9,253.4c0,1.2,0.8,2.5,2.2,2.5
			c1.6,0,2.2-1.2,2.2-2.5c0-1.1-0.6-2.3-2.2-2.3C328.7,251,327.9,252.3,327.9,253.4 M328.9,253.4c0-0.5,0.2-1.7,1.2-1.7
			s1.2,1.2,1.2,1.7c0,0.6-0.2,1.7-1.2,1.7S328.9,254,328.9,253.4 M333.7,255.7h0.8v-2.5c0-1.2,0.6-1.5,1.1-1.5
			c0.6,0,0.8,0.5,0.8,0.9v3.1h0.8v-2.8c0-0.6,0.5-1.2,1.1-1.2c0.6,0,0.8,0.5,0.8,1.2v2.8h0.8v-3.1c0-1.4-0.9-1.6-1.4-1.6
			c-0.8,0-0.9,0.3-1.4,0.6c-0.2-0.2-0.5-0.6-1.2-0.6c-0.8,0-1.2,0.5-1.2,0.8v-0.6h-0.8L333.7,255.7 M341.3,255.7h0.8v-2.5
			c0-1.2,0.8-1.5,1.2-1.5c0.6,0,0.8,0.5,0.8,0.9v3.1h0.8v-2.8c0-0.6,0.3-1.2,0.9-1.2c0.8,0,0.9,0.5,0.9,1.2v2.8h0.8v-3.1
			c0-1.4-0.9-1.6-1.4-1.6c-0.8,0-1.1,0.3-1.4,0.6c-0.2-0.2-0.5-0.6-1.2-0.6c-0.8,0-1.2,0.5-1.4,0.8v-0.6h-0.8L341.3,255.7
			 M352.7,255.7v-4.5h-0.9v2.5c0,0.6-0.3,1.4-1.2,1.4c-0.5,0-0.8-0.2-0.8-0.8v-3.1H349v3.3c0,1.1,0.8,1.4,1.4,1.4
			c0.8,0,1.1-0.3,1.6-0.8v0.6L352.7,255.7 M358,252.6c0-1.2-0.8-1.6-1.5-1.6s-1.2,0.5-1.4,0.8v-0.6h-0.8v4.5h0.8v-2.5
			c0-1.2,0.8-1.5,1.2-1.5c0.8,0,0.9,0.5,0.9,1.2v2.8h0.8V252.6 M360.5,251.2h-0.8v4.5h0.8V251.2 M360.5,250.3v-0.8h-0.8v0.8H360.5
			 M365.5,252.4c0-0.2-0.2-1.4-1.9-1.4c-0.9,0-1.7,0.5-1.7,1.6c0,0.5,0.5,0.8,1.1,0.9l0.9,0.3c0.6,0.2,0.9,0.3,0.9,0.6
			c0,0.5-0.5,0.6-1.1,0.6c-1.1,0-1.2-0.5-1.2-0.8h-0.8c0,0.5,0.2,1.6,2,1.6c1.1,0,1.9-0.5,1.9-1.6c0-0.6-0.3-0.9-1.2-1.2l-0.8-0.1
			c-0.6,0-0.9-0.2-0.9-0.6c0-0.6,0.6-0.6,0.9-0.6c0.9,0,1.1,0.5,1.1,0.8L365.5,252.4"/>
		<path class="st20" d="M280.9,406c0.2-0.3,0.2-0.8,1.1-0.8c0.8,0,1.1,0.3,1.1,0.6c0,0.5-0.2,0.6-0.3,0.6l-1.4,0.2
			c-1.2,0.2-1.2,0.9-1.2,1.4c0,0.8,0.5,1.4,1.4,1.4c0.9,0,1.2-0.5,1.7-0.9c0,0.5,0,0.9,0.6,0.9c0.2,0,0.3-0.2,0.5-0.2v-0.6
			c0,0-0.2,0-0.3,0c-0.2,0-0.2-0.2-0.2-0.2v-2.8c0-1.1-1.4-1.1-1.7-1.1c-1.1,0-1.9,0.3-1.9,1.4L280.9,406 M283.1,407.5
			c0,0.8-0.6,1.2-1.4,1.2c-0.6,0-0.8-0.5-0.8-0.9c0-0.5,0.6-0.8,0.9-0.8c0.9,0,1.1-0.2,1.2-0.2V407.5 M286.8,408.3h-0.9v0.9h0.9
			V408.3 M292.3,405.3v-0.8h-0.8v-0.5c0-0.5,0.2-0.6,0.5-0.6c0.2,0,0.2,0,0.3,0v-0.6c-0.2,0-0.3,0-0.3,0c-0.8,0-1.2,0.3-1.2,0.9v0.8
			h-0.6v0.8h0.6v3.9h0.8v-3.9H292.3 M296.3,407.7c0,0.3-0.5,0.9-1.2,0.9c-0.9,0-1.2-0.6-1.2-1.6h3.3c0-1.5-0.6-2.5-2-2.5
			c-1.4,0-2,1.1-2,2.5c0,1.2,0.6,2.3,2,2.3c0.8,0,0.9-0.3,1.2-0.5c0.5-0.3,0.6-0.9,0.8-1.2H296.3 M293.8,406.6
			c0-0.8,0.6-1.4,1.2-1.4c0.9,0,1.2,0.6,1.2,1.4H293.8 M298.5,409.2h0.8v-2.6c0-1.1,0.8-1.4,1.2-1.4c0.6,0,0.8,0.5,0.8,0.8v3.3h0.8
			v-2.8c0-0.8,0.3-1.2,1.1-1.2c0.6,0,0.8,0.5,0.8,1.1v2.9h0.8V406c0-1.2-0.9-1.4-1.4-1.4c-0.6,0-1.1,0.3-1.4,0.6
			c-0.2-0.2-0.5-0.6-1.2-0.6c-0.8,0-1.2,0.5-1.4,0.8v-0.8h-0.8L298.5,409.2 M305.9,406.9c0,1.1,0.8,2.5,2.2,2.5c1.4,0,2-1.4,2-2.5
			c0-1.2-0.6-2.3-2-2.3C306.7,404.6,305.9,405.7,305.9,406.9 M306.7,406.9c0-0.6,0.3-1.7,1.4-1.7c1.2,0,1.4,1.1,1.4,1.7
			c0,0.6-0.2,1.7-1.4,1.7C307,408.6,306.7,407.5,306.7,406.9 M312.4,406.6c0-0.8,0.5-1.2,1.2-1.2h0.3v-0.8c-0.2,0-0.2,0-0.2,0
			c-0.6,0-1.1,0.3-1.4,0.8v-0.8h-0.6v4.6h0.6V406.6 M315.7,406c0-0.3,0-0.8,0.9-0.8c0.8,0,1.1,0.3,1.1,0.6c0,0.5-0.2,0.6-0.3,0.6
			l-1.4,0.2c-1.2,0.2-1.2,0.9-1.2,1.4c0,0.8,0.5,1.4,1.4,1.4c0.9,0,1.2-0.5,1.6-0.9c0,0.5,0.3,0.9,0.8,0.9c0.3,0,0.3-0.2,0.5-0.2
			v-0.6c-0.2,0-0.2,0-0.2,0c-0.3,0-0.3-0.2-0.3-0.2v-2.8c0-1.1-1.4-1.1-1.7-1.1c-1.1,0-1.9,0.3-1.9,1.4L315.7,406 M317.7,407.5
			c0,0.8-0.6,1.2-1.4,1.2c-0.6,0-0.9-0.5-0.9-0.9c0-0.5,0.8-0.8,1.1-0.8c0.9,0,1.1-0.2,1.2-0.2V407.5 M321.1,403h-0.9v6.2h0.9V403
			 M323.4,404.6h-0.8v4.6h0.8V404.6 M323.4,403.8V403h-0.8v0.8H323.4 M328.4,406c0-0.3,0-1.4-1.7-1.4c-0.9,0-1.7,0.3-1.7,1.4
			c0,0.6,0.5,0.9,1.1,1.1l0.8,0.3c0.6,0,0.9,0.2,0.9,0.6c0,0.5-0.5,0.6-0.9,0.6c-1.1,0-1.2-0.6-1.2-0.9h-0.8c0,0.6,0.2,1.7,2,1.7
			c0.9,0,1.9-0.6,1.9-1.5c0-0.8-0.5-0.9-1.4-1.2l-0.6-0.2c-0.8-0.2-0.9-0.3-0.9-0.8c0-0.5,0.6-0.5,0.9-0.5c0.9,0,1.1,0.5,1.1,0.8
			H328.4"/>
		<path class="st19" d="M188.5,108.4h-58.8"/>
		<path class="st20" d="M81.4,107.4l-1.2-3.6h-0.8l1.6,4.5h0.9l1.7-4.5h-0.8L81.4,107.4 M85.1,107.4h-0.9v0.9h0.9V107.4 M89.6,103.9
			h-0.8v5.1c0,0.5-0.2,0.5-0.6,0.5H88v0.8c0.2,0,0.2,0,0.5,0c1.1,0,1.1-0.8,1.1-1.2L89.6,103.9 M89.6,102.2h-0.8v0.8h0.8V102.2
			 M94.9,108.4v-4.5h-0.6v2.5c0,0.6-0.3,1.4-1.4,1.4c-0.5,0-0.8-0.2-0.8-0.9v-2.9h-0.8v3.3c0,0.9,0.8,1.4,1.6,1.4
			c0.6,0,1.1-0.3,1.4-0.8v0.6L94.9,108.4 M97.2,106c0-0.6,0-1.7,1.1-1.7c1.1,0,1.4,1.2,1.4,2c0,1.1-0.8,1.4-1.4,1.4
			C97.5,107.8,97.2,107,97.2,106 M100.3,103.9h-0.6v0.6c-0.3-0.3-0.6-0.8-1.4-0.8c-1.2,0-1.9,0.9-1.9,2.2c0,1.1,0.5,2.6,1.9,2.6
			c0.6,0,1.1-0.3,1.2-0.6c0,0.6,0.2,1.7-1.2,1.7c-0.2,0-0.9,0-1.1-0.6h-0.8c0.3,1.2,1.2,1.2,1.9,1.2c2,0,2-1.6,2-2.3V103.9
			 M105.6,108.4v-4.5h-0.8v2.5c0,0.6-0.3,1.4-1.2,1.4c-0.5,0-0.8-0.2-0.8-0.9v-2.9H102v3.3c0,0.9,0.8,1.4,1.4,1.4
			c0.8,0,1.1-0.3,1.6-0.8v0.6L105.6,108.4 M108,105.7c0-0.8,0.5-1.2,1.2-1.2h0.3v-0.8h-0.2c-0.6,0-1.1,0.3-1.4,0.8v-0.6h-0.6v4.5
			h0.6L108,105.7 M111.3,105.1c0-0.3,0.2-0.8,1.1-0.8c0.6,0,0.9,0.3,0.9,0.6c0,0.5-0.2,0.6-0.3,0.6l-1.2,0.2
			c-1.4,0.2-1.4,1.1-1.4,1.4c0,0.8,0.6,1.4,1.4,1.4c0.9,0,1.4-0.5,1.7-0.8c0,0.3,0.2,0.8,0.8,0.8c0.2,0,0.3-0.2,0.3-0.2v-0.6
			c0,0,0,0-0.2,0s-0.3,0-0.3-0.2V105c0-1.1-1.2-1.2-1.7-1.2c-1.1,0-1.7,0.3-1.7,1.4L111.3,105.1 M113.3,106.8c0,0.6-0.6,1.1-1.4,1.1
			c-0.5,0-0.8-0.5-0.8-0.9c0-0.5,0.6-0.6,0.9-0.6c1.1-0.2,1.1-0.3,1.2-0.3L113.3,106.8 M116.7,105.7c0-0.8,0.5-1.2,1.2-1.2h0.3v-0.8
			c-0.2,0-0.2,0-0.2,0c-0.6,0-1.1,0.3-1.4,0.8v-0.6h-0.6v4.5h0.6L116.7,105.7 M120.3,103.9h-0.8v4.5h0.8V103.9 M120.3,102.9v-0.8
			h-0.8v0.8H120.3 M125.3,105.1c0-0.2-0.2-1.4-1.7-1.4c-0.9,0-1.7,0.3-1.7,1.4c0,0.6,0.3,0.9,0.9,1.1l0.9,0.3c0.6,0,0.9,0.3,0.9,0.6
			c0,0.5-0.5,0.6-1.1,0.6c-1.1,0-1.1-0.5-1.1-0.9h-0.9c0,0.6,0.3,1.7,2,1.7c1.1,0,1.9-0.6,1.9-1.6c0-0.6-0.5-0.9-1.2-1.2l-0.8-0.2
			c-0.6-0.2-0.9-0.2-0.9-0.6c0-0.6,0.8-0.6,0.9-0.6c0.9,0,1.1,0.5,1.1,0.8H125.3 M97.7,113.8h-0.8v4.7h0.8V113.8 M97.7,113v-0.8
			h-0.8v0.8H97.7 M103.1,115.2c0-1.1-0.9-1.4-1.6-1.4c-0.9,0-1.2,0.5-1.4,0.8v-0.8h-0.8v4.7h0.8V116c0-1.2,0.8-1.6,1.1-1.6
			c0.8,0,1.1,0.3,1.1,1.2v2.8h0.8V115.2 M106.3,114.6v-0.8h-0.8v-1.2h-0.6v1.2h-0.8v0.8h0.8v2.9c0,0.5,0.2,1.1,0.9,1.1
			c0,0,0.2-0.2,0.5-0.2v-0.8H106c-0.2,0-0.5,0-0.5-0.2v-2.9L106.3,114.6 M110.7,116.9c0,0.3-0.5,0.9-1.1,0.9c-0.9,0-1.4-0.6-1.4-1.4
			h3.4c0-1.7-0.8-2.6-2-2.6c-1.6,0-2.2,1.1-2.2,2.5c0,1.2,0.6,2.3,2,2.3c0.8,0,0.9-0.3,1.2-0.5c0.6-0.3,0.8-0.9,0.9-1.2L110.7,116.9
			 M108.2,115.8c0-0.8,0.6-1.4,1.2-1.4c0.9,0,1.2,0.6,1.2,1.4H108.2 M113.8,115.8c0-0.8,0.5-1.2,1.2-1.2h0.3v-0.8
			c-0.2,0-0.2,0-0.2,0c-0.6,0-1.1,0.3-1.4,0.8v-0.8h-0.6v4.7h0.6L113.8,115.8 M120.3,115.2c0-1.1-0.9-1.4-1.6-1.4
			c-0.8,0-1.2,0.5-1.4,0.8v-0.8h-0.8v4.7h0.8V116c0-1.2,0.8-1.6,1.1-1.6c0.9,0,1.1,0.3,1.1,1.2v2.8h0.8L120.3,115.2 M122.6,115.2
			c0.2-0.3,0.2-0.8,1.1-0.8c0.6,0,0.9,0.3,0.9,0.6c0,0.5-0.2,0.6-0.3,0.6l-1.4,0.2c-1.1,0.2-1.2,0.9-1.2,1.4c0,0.8,0.6,1.4,1.4,1.4
			c0.9,0,1.2-0.5,1.7-0.9c0,0.5,0.2,0.9,0.6,0.9c0.3,0,0.3-0.2,0.5-0.2v-0.6h-0.2c-0.3,0-0.3-0.2-0.3-0.2V115c0-1.2-1.2-1.2-1.6-1.2
			c-1.1,0-2,0.3-2,1.4L122.6,115.2 M124.6,116.7c0,0.8-0.6,1.2-1.4,1.2c-0.5,0-0.8-0.5-0.8-0.9c0-0.5,0.6-0.6,0.9-0.6
			c0.9-0.2,1.2-0.3,1.2-0.3V116.7"/>
		<path class="st20" d="M10.5,137.2l-1.2-3.7H8.5l1.6,4.7H11l1.7-4.7h-0.8L10.5,137.2 M14.2,137.2h-0.9v0.9h0.9V137.2 M21.5,135
			c0-0.8-0.5-1.6-1.7-1.6c-1.6,0-2.2,1.1-2.2,2.5c0,1.2,0.8,2.3,2,2.3c1.4,0,1.9-1.1,1.9-1.9h-0.6c-0.3,0.8-0.6,1.1-1.2,1.1
			c-1.1,0-1.1-1.1-1.1-1.7c0-0.8,0.2-1.7,1.1-1.7c0.8,0,1.1,0.3,1.2,0.9L21.5,135 M23.5,134.9c0-0.3,0-0.9,0.9-0.9
			c0.8,0,1.1,0.3,1.1,0.8s-0.2,0.6-0.3,0.6h-1.4c-1.2,0.3-1.2,1.1-1.2,1.6c0,0.8,0.5,1.4,1.4,1.4s1.2-0.5,1.6-0.9
			c0,0.5,0.3,0.9,0.8,0.9c0.3,0,0.3-0.2,0.5-0.2v-0.6h-0.2c-0.3,0-0.3-0.2-0.3-0.2v-2.8c0-1.1-1.4-1.1-1.6-1.1c-1.2,0-2,0.3-2,1.4
			L23.5,134.9 M25.5,136.4c0,0.6-0.6,1.2-1.4,1.2c-0.6,0-0.8-0.5-0.8-0.9c0-0.5,0.6-0.8,0.9-0.8c0.9,0,1.1-0.2,1.2-0.2V136.4
			 M29.6,137.2l-1.2-3.7h-0.9l1.9,4.7H30l1.7-4.7h-0.9L29.6,137.2 M33.4,134.9c0-0.3,0-0.9,0.9-0.9c0.6,0,1.1,0.3,1.1,0.8
			s-0.3,0.6-0.5,0.6h-1.2c-1.2,0.3-1.2,1.1-1.2,1.6c0,0.8,0.5,1.4,1.4,1.4c0.8,0,1.2-0.5,1.6-0.9c0,0.5,0.2,0.9,0.8,0.9
			c0.2,0,0.3-0.2,0.5-0.2v-0.6c-0.2,0-0.2,0-0.3,0c-0.2,0-0.3-0.2-0.3-0.2v-2.8c0-1.1-1.2-1.1-1.6-1.1c-1.1,0-1.9,0.3-1.9,1.4
			L33.4,134.9 M35.5,136.4c0,0.6-0.8,1.2-1.4,1.2c-0.6,0-0.9-0.5-0.9-0.9c0-0.5,0.8-0.8,1.1-0.8c0.9,0,1.1-0.2,1.2-0.2L35.5,136.4
			 M43.7,134.9c0-0.3,0-1.4-1.6-1.4c-0.9,0-1.9,0.3-1.9,1.4c0,0.6,0.5,0.9,1.1,1.1l0.9,0.3c0.6,0,0.9,0.2,0.9,0.5
			c0,0.6-0.6,0.8-1.1,0.8c-1.1,0-1.2-0.6-1.2-0.9h-0.8c0,0.6,0.2,1.7,2,1.7c1.1,0,1.7-0.6,1.7-1.6c0-0.8-0.3-1.1-1.2-1.2l-0.8-0.2
			c-0.6-0.3-0.8-0.3-0.8-0.8c0-0.5,0.6-0.6,0.9-0.6c0.9,0,0.9,0.6,0.9,0.9L43.7,134.9 M49,138.1v-4.7h-0.8v2.5
			c0,0.8-0.2,1.6-1.2,1.6c-0.5,0-0.8-0.2-0.8-1.1v-2.9h-0.8v3.3c0,1.1,0.8,1.6,1.5,1.6c0.6,0,1.1-0.3,1.2-0.9v0.8L49,138.1
			 M51.3,136c0-0.6,0.2-1.9,1.2-1.9c1.2,0,1.2,1.1,1.2,1.7c0,0.9-0.3,1.7-1.2,1.7C52.1,137.5,51.3,137.2,51.3,136 M50.5,139.9h0.8
			v-2.2h0.2c0.2,0.3,0.5,0.6,1.1,0.6c1.5,0,2.2-1.6,2.2-2.6c0-1.2-0.8-2.2-2-2.2c-0.8,0-1.1,0.5-1.4,0.6v-0.6h-0.8L50.5,139.9
			 M59.2,136.6c-0.2,0.3-0.6,0.9-1.2,0.9c-0.9,0-1.2-0.6-1.2-1.6H60c0-1.6-0.8-2.5-2-2.5c-1.6,0-2.2,1.1-2.2,2.5
			c0,1.2,0.8,2.3,2,2.3c0.8,0,1.1-0.3,1.2-0.5c0.6-0.3,0.8-0.9,0.9-1.2L59.2,136.6 M56.7,135.4c0-0.6,0.5-1.2,1.1-1.2
			c0.9,0,1.4,0.6,1.4,1.2H56.7 M62.1,135.4c0-0.6,0.5-1.2,1.2-1.2h0.3v-0.6c-0.2,0-0.2,0-0.2,0c-0.6,0-1.1,0.3-1.4,0.8v-0.8h-0.6
			v4.7h0.6L62.1,135.4 M65.5,133.5h-0.6v4.7h0.6V133.5 M65.5,132.7v-0.9h-0.6v0.9H65.5 M66.9,135.8c0,1.1,0.8,2.5,2.3,2.5
			c1.4,0,2-1.4,2-2.5c0-1.2-0.6-2.3-2-2.3C67.7,133.5,66.9,134.6,66.9,135.8 M67.9,135.8c0-0.8,0.3-1.9,1.4-1.9
			c1.1,0,1.2,1.1,1.2,1.9c0,0.6-0.2,1.7-1.2,1.7C68.2,137.5,67.9,136.4,67.9,135.8 M73.6,135.4c0-0.6,0.5-1.2,1.1-1.2H75v-0.6h-0.2
			c-0.6,0-1.1,0.3-1.4,0.8v-0.8h-0.6v4.7h0.8L73.6,135.4"/>
		<path class="st19" d="M126.2,167.8H80.4"/>
		<path class="st20" d="M27.2,167l-1.2-3.7h-0.8l1.7,4.5h0.8l1.9-4.5h-0.9L27.2,167 M31,166.8H30v0.9H31V166.8 M38.4,164.8
			c-0.2-0.9-0.6-1.7-1.9-1.7c-1.4,0-2,1.1-2,2.6c0,1.2,0.6,2.3,1.9,2.3c1.4,0,1.9-1.2,2-1.9h-0.8c-0.2,0.6-0.6,1.1-1.2,1.1
			c-0.9,0-1.1-1.1-1.1-1.9c0-0.6,0.3-1.6,1.2-1.6c0.6,0,0.9,0.3,1.1,0.9L38.4,164.8 M42.8,166.4c-0.2,0.3-0.5,0.9-1.2,0.9
			c-0.8,0-1.2-0.6-1.2-1.6h3.3c0-1.6-0.6-2.6-2-2.6c-1.4,0-2.2,1.1-2.2,2.6c0,1.2,0.8,2.3,2,2.3c0.8,0,1.1-0.3,1.2-0.5
			c0.6-0.3,0.8-0.9,0.8-1.2L42.8,166.4 M40.3,165.1c0-0.6,0.5-1.2,1.2-1.2c0.8,0,1.2,0.6,1.2,1.2H40.3 M45.7,165.7
			c0-0.8,0-1.9,1.2-1.9c1.1,0,1.1,1.1,1.1,1.6c0,1.1-0.3,1.9-1.1,1.9C46.5,167.3,45.7,167,45.7,165.7 M44.8,169.6h0.9v-2.3
			c0.2,0.3,0.6,0.8,1.2,0.8c1.6,0,2-1.6,2-2.6c0-1.2-0.8-2.3-2-2.3c-0.8,0-1.1,0.6-1.2,0.8v-0.6h-0.9V169.6 M53.9,164.7
			c0-1.2-0.8-1.6-1.6-1.6c-0.8,0-1.1,0.5-1.4,0.8v-2.3h-0.6v6.2H51v-2.5c0-1.1,0.6-1.4,1.4-1.4c0.6,0,0.9,0.3,0.9,0.9v2.9h0.6
			L53.9,164.7 M56.4,164.5c0-0.3,0-0.8,0.9-0.8c0.8,0,1.1,0.3,1.1,0.8c0,0.5-0.2,0.5-0.3,0.5l-1.4,0.2c-1.1,0.3-1.2,1.1-1.2,1.6
			c0,0.6,0.5,1.4,1.4,1.4c0.9,0,1.2-0.5,1.7-0.9c0,0.5,0,0.8,0.6,0.8c0.3,0,0.3,0,0.5-0.2v-0.5h-0.2c-0.3,0-0.3-0.2-0.3-0.2v-2.8
			c0-1.1-1.4-1.2-1.7-1.2c-1.1,0-1.9,0.5-1.9,1.4L56.4,164.5 M58.4,166.2c0,0.6-0.6,1.1-1.4,1.1c-0.6,0-0.8-0.3-0.8-0.8
			c0-0.6,0.6-0.8,0.9-0.8c0.9,0,1.1-0.2,1.2-0.3V166.2 M61.7,161.6h-0.6v6.2h0.6V161.6 M64.3,163.3h-0.9v4.5h0.9V163.3 M64.3,162.5
			v-0.9h-0.9v0.9H64.3 M69.4,164.8c0-0.9-0.5-1.7-1.7-1.7c-1.4,0-2.2,1.1-2.2,2.6c0,1.2,0.8,2.3,2,2.3c1.4,0,1.9-1.2,1.9-1.9h-0.8
			c0,0.6-0.5,1.1-1.1,1.1c-1.1,0-1.1-1.1-1.1-1.9c0-0.6,0.3-1.6,1.2-1.6c0.6,0,0.9,0.3,0.9,0.9L69.4,164.8 M71.4,164.5
			c0-0.3,0.2-0.8,1.1-0.8c0.6,0,0.9,0.3,0.9,0.8c0,0.5-0.2,0.5-0.3,0.5l-1.4,0.2c-1.1,0.3-1.2,1.1-1.2,1.6c0,0.6,0.6,1.4,1.4,1.4
			c0.9,0,1.2-0.5,1.7-0.9c0,0.5,0.2,0.8,0.6,0.8c0.3,0,0.3,0,0.5-0.2v-0.5h-0.2c-0.3,0-0.3-0.2-0.3-0.2v-2.8c0-1.1-1.4-1.2-1.7-1.2
			c-1.1,0-1.9,0.5-1.9,1.4L71.4,164.5 M73.5,166.2c0,0.6-0.6,1.1-1.4,1.1c-0.5,0-0.8-0.3-0.8-0.8c0-0.6,0.6-0.8,0.9-0.8
			c0.9,0,1.1-0.2,1.2-0.3L73.5,166.2"/>
		<path class="st20" d="M15.6,213.8l-1.2-3.7h-0.9l1.7,4.5h0.9l1.7-4.5h-0.9L15.6,213.8 M19.3,213.7h-0.9v0.9h0.9V213.7 M26.6,211.7
			c0-0.9-0.6-1.7-1.7-1.7c-1.4,0-2.2,1.1-2.2,2.5c0,1.4,0.8,2.5,2,2.5c1.2,0,1.9-1.2,1.9-1.9h-0.8c0,0.6-0.5,1.1-1.1,1.1
			c-0.9,0-1.2-1.1-1.2-1.9c0-0.6,0.3-1.6,1.4-1.6c0.6,0,0.9,0.3,0.9,0.9L26.6,211.7 M28.6,211.5c0-0.5,0.2-0.9,1.1-0.9
			c0.6,0,0.9,0.3,0.9,0.8c0,0.5-0.2,0.5-0.3,0.5l-1.2,0.2c-1.2,0.2-1.4,1.1-1.4,1.6c0,0.6,0.6,1.4,1.4,1.4c0.9,0,1.2-0.5,1.7-0.9
			c0,0.5,0,0.8,0.8,0.8c0.2,0,0.2-0.2,0.5-0.2v-0.5c-0.2,0-0.3,0-0.3,0c-0.2,0-0.3-0.2-0.3-0.3v-2.6c0-1.1-1.2-1.2-1.7-1.2
			c-1.1,0-1.9,0.5-1.9,1.6L28.6,211.5 M30.7,213c0,0.6-0.6,1.1-1.4,1.1c-0.5,0-0.8-0.3-0.8-0.9c0-0.5,0.6-0.6,1.1-0.6
			c0.8-0.2,1.1-0.2,1.1-0.3L30.7,213 M34.7,213.8l-1.1-3.7h-0.9l1.5,4.5h0.9l1.7-4.5h-0.8L34.7,213.8 M38.4,211.5
			c0.2-0.5,0.2-0.9,1.1-0.9c0.8,0,1.1,0.3,1.1,0.8c0,0.5-0.2,0.5-0.3,0.5l-1.4,0.2c-1.2,0.2-1.2,1.1-1.2,1.6c0,0.6,0.6,1.4,1.4,1.4
			s1.2-0.5,1.7-0.9c0,0.5,0,0.8,0.6,0.8c0.3,0,0.3-0.2,0.5-0.2v-0.5h-0.2c-0.3,0-0.3-0.2-0.3-0.3v-2.6c0-1.1-1.4-1.2-1.7-1.2
			c-1.1,0-1.9,0.5-1.9,1.6L38.4,211.5 M40.6,213c0,0.6-0.8,1.1-1.4,1.1s-0.8-0.3-0.8-0.9c0-0.5,0.6-0.6,0.9-0.6
			c0.9-0.2,1.1-0.2,1.2-0.3L40.6,213 M46.3,210.1h-0.8v4.5h0.8V210.1 M46.3,209.3v-0.9h-0.8v0.9H46.3 M51.6,211.5
			c0-1.2-0.8-1.6-1.4-1.6c-0.8,0-1.2,0.5-1.4,0.8v-0.6H48v4.5h0.8v-2.5c0-1.1,0.8-1.4,1.1-1.4c0.9,0,1.1,0.3,1.1,1.1v2.8h0.6
			L51.6,211.5 M55.2,210.7v-0.6h-0.8v-0.6c0-0.3,0-0.5,0.3-0.5c0.2,0,0.3,0,0.5,0v-0.8c-0.2,0-0.3,0-0.5,0c-0.8,0-1.2,0.3-1.2,1.1
			v0.8H53v0.6h0.5v3.9h0.9v-3.9L55.2,210.7 M59.2,213.2c-0.2,0.3-0.6,0.9-1.2,0.9c-0.9,0-1.2-0.6-1.2-1.6H60c0-1.6-0.8-2.6-2-2.6
			c-1.6,0-2.2,1.1-2.2,2.5c0,1.4,0.8,2.5,2,2.5c0.8,0,1.1-0.3,1.2-0.5c0.6-0.3,0.8-0.9,0.9-1.2L59.2,213.2 M56.7,212
			c0-0.6,0.5-1.2,1.1-1.2c0.9,0,1.4,0.6,1.4,1.2H56.7 M62.1,212c0-0.6,0.5-1.2,1.2-1.2h0.3v-0.8c-0.2,0-0.2,0-0.2,0
			c-0.6,0-1.1,0.3-1.4,0.8v-0.6h-0.6v4.5h0.6L62.1,212 M65.5,210.1h-0.6v4.5h0.6V210.1 M65.5,209.3v-0.9h-0.6v0.9H65.5 M66.9,212.3
			c0,1.2,0.8,2.6,2.3,2.6c1.4,0,2-1.4,2-2.6c0-1.1-0.6-2.3-2-2.3C67.7,209.9,66.9,211.2,66.9,212.3 M67.9,212.3
			c0-0.6,0.3-1.7,1.4-1.7c1.1,0,1.2,1.1,1.2,1.7c0,0.8-0.2,1.9-1.2,1.9C68.2,214.1,67.9,213,67.9,212.3 M73.6,212
			c0-0.6,0.5-1.2,1.1-1.2H75v-0.8h-0.2c-0.6,0-1.1,0.3-1.4,0.8v-0.6h-0.6v4.5h0.8L73.6,212"/>
		<path class="st20" d="M29.3,408.3l-1.2-3.7h-0.9l1.7,4.6h0.8l1.7-4.6h-0.8L29.3,408.3 M32.8,408.3h-0.8v0.9h0.8V408.3 M38.4,405.3
			v-0.8h-0.8v-0.5c0-0.5,0.2-0.6,0.3-0.6c0.3,0,0.3,0,0.5,0v-0.6c-0.2,0-0.3,0-0.5,0c-0.6,0-1.1,0.3-1.1,0.9v0.8h-0.8v0.8h0.8v3.9
			h0.8v-3.9H38.4 M42.3,407.7c0,0.3-0.5,0.9-1.1,0.9c-0.9,0-1.4-0.6-1.4-1.6h3.4c0-1.5-0.6-2.5-2-2.5c-1.4,0-2.2,1.1-2.2,2.5
			c0,1.2,0.8,2.3,2,2.3c0.8,0,1.1-0.3,1.2-0.5c0.6-0.3,0.8-0.9,0.9-1.2H42.3 M39.8,406.6c0-0.8,0.6-1.4,1.4-1.4
			c0.9,0,1.1,0.6,1.1,1.4H39.8 M44.6,409.2h0.8v-2.6c0-1.1,0.8-1.4,1.2-1.4c0.5,0,0.6,0.5,0.6,0.8v3.3H48v-2.8
			c0-0.8,0.5-1.2,1.1-1.2c0.6,0,0.8,0.5,0.8,1.1v2.9h0.9V406c0-1.2-0.9-1.4-1.4-1.4c-0.8,0-1.2,0.3-1.4,0.6
			c-0.3-0.2-0.5-0.6-1.2-0.6s-1.2,0.5-1.4,0.8v-0.8h-0.8V409.2 M52.1,406.9c0,1.1,0.6,2.5,2.2,2.5c1.4,0,2-1.4,2-2.5
			c0-1.2-0.6-2.3-2-2.3C52.7,404.6,52.1,405.7,52.1,406.9 M52.8,406.9c0-0.6,0.2-1.7,1.4-1.7c1.1,0,1.4,1.1,1.4,1.7
			c0,0.6-0.3,1.7-1.4,1.7C53,408.6,52.8,407.5,52.8,406.9 M58.6,406.6c0-0.8,0.5-1.2,1.1-1.2H60v-0.8c0,0,0,0-0.2,0
			c-0.6,0-0.9,0.3-1.2,0.8v-0.8h-0.8v4.6h0.8L58.6,406.6 M61.7,406c0-0.3,0.2-0.8,1.1-0.8c0.6,0,1.1,0.3,1.1,0.6
			c0,0.5-0.3,0.6-0.5,0.6l-1.2,0.2c-1.4,0.2-1.4,0.9-1.4,1.4c0,0.8,0.6,1.4,1.4,1.4c0.9,0,1.4-0.5,1.7-0.9c0,0.5,0.2,0.9,0.8,0.9
			c0.2,0,0.3-0.2,0.5-0.2v-0.6c-0.2,0-0.2,0-0.3,0c-0.2,0-0.3-0.2-0.3-0.2v-2.8c0-1.1-1.2-1.1-1.6-1.1c-1.2,0-1.9,0.3-1.9,1.4
			L61.7,406 M63.8,407.5c0,0.8-0.8,1.2-1.4,1.2s-0.9-0.5-0.9-0.9c0-0.5,0.6-0.8,0.9-0.8c1.1,0,1.1-0.2,1.4-0.2V407.5 M67.1,403h-0.8
			v6.2h0.8V403 M69.4,404.6h-0.6v4.6h0.6V404.6 M69.4,403.8V403h-0.6v0.8H69.4 M74.5,406c0-0.3-0.2-1.4-1.7-1.4
			c-0.9,0-1.7,0.3-1.7,1.4c0,0.6,0.3,0.9,0.9,1.1l0.9,0.3c0.6,0,0.9,0.2,0.9,0.6c0,0.5-0.5,0.6-1.1,0.6c-1.1,0-1.1-0.6-1.1-0.9h-0.9
			c0,0.6,0.3,1.7,2,1.7c1.1,0,1.9-0.6,1.9-1.5c0-0.8-0.5-0.9-1.2-1.2l-0.8-0.2c-0.6-0.2-0.9-0.3-0.9-0.8c0-0.5,0.8-0.5,0.9-0.5
			c1.1,0,1.1,0.5,1.1,0.8H74.5"/>
		<path class="st19" d="M215,245.6H80.4"/>
		<path class="st20" d="M2.3,241.7v-0.6H1.5v-1.2H0.7v1.2H0.1v0.6h0.6v2.9c0,0.6,0.2,1.1,0.9,1.1c0.2,0,0.3,0,0.6-0.2V245H2
			c-0.2,0-0.5,0-0.5-0.3v-2.9H2.3 M4.3,243c0-0.6,0.5-1.2,1.2-1.2h0.3V241c-0.2,0-0.2,0-0.2,0c-0.6,0-1.1,0.5-1.4,0.9v-0.8H3.7v4.5
			h0.6L4.3,243 M10.8,245.6v-4.5H9.9v2.5c0,0.6-0.3,1.5-1.2,1.5c-0.5,0-0.8-0.3-0.8-0.9v-3.1H7.1v3.3c0,1.1,0.8,1.4,1.4,1.4
			c0.8,0,1.1-0.2,1.6-0.8v0.6L10.8,245.6 M16.1,242.5c0-1.2-0.9-1.6-1.6-1.6c-0.8,0-1.2,0.5-1.4,0.8v-0.6h-0.8v4.5h0.8v-2.5
			c0-1.2,0.8-1.6,1.2-1.6c0.8,0,0.9,0.5,0.9,1.2v2.8h0.8V242.5 M21.4,242.7c-0.2-0.8-0.5-1.7-1.7-1.7c-1.5,0-2.3,1.1-2.3,2.5
			c0,1.4,0.9,2.3,2.2,2.3c1.4,0,1.7-1.1,1.9-1.7h-0.8c-0.2,0.6-0.6,1.1-1.1,1.1c-1.1,0-1.2-0.9-1.2-1.9c0-0.8,0.3-1.7,1.2-1.7
			c0.6,0,1.1,0.5,1.1,1.1L21.4,242.7 M26.3,245.6v-4.5h-0.8v2.5c0,0.6-0.3,1.5-1.2,1.5c-0.5,0-0.9-0.3-0.9-0.9v-3.1h-0.8v3.3
			c0,1.1,0.8,1.4,1.5,1.4c0.6,0,1.1-0.2,1.4-0.8v0.6L26.3,245.6 M31.3,242.4c0-0.2-0.2-1.4-1.7-1.4c-0.9,0-1.7,0.5-1.7,1.6
			c0,0.5,0.3,0.8,0.9,0.9l0.9,0.3c0.6,0.2,0.9,0.3,0.9,0.6c0,0.5-0.5,0.8-1.1,0.8c-0.9,0-1.2-0.6-1.2-0.9h-0.6
			c0,0.5,0.2,1.6,1.9,1.6c1.1,0,1.9-0.5,1.9-1.6c0-0.6-0.3-0.9-1.2-1.2l-0.8-0.2c-0.6,0-0.8-0.2-0.8-0.6c0-0.6,0.6-0.6,0.9-0.6
			c0.8,0,0.9,0.5,0.9,0.8L31.3,242.4 M38.9,242.7c-0.2-0.8-0.6-1.7-1.9-1.7c-1.4,0-2,1.1-2,2.5c0,1.4,0.6,2.3,2,2.3
			c1.2,0,1.7-1.1,1.9-1.7h-0.8c-0.2,0.6-0.6,1.1-1.1,1.1c-1.1,0-1.2-0.9-1.2-1.9c0-0.8,0.3-1.7,1.2-1.7c0.6,0,0.9,0.5,1.1,1.1
			L38.9,242.7 M39.8,243.3c0,1.2,0.6,2.5,2.2,2.5c1.4,0,2-1.2,2-2.5c0-1.1-0.6-2.3-2-2.3C40.4,241,39.8,242.2,39.8,243.3
			 M40.7,243.3c0-0.5,0.2-1.7,1.2-1.7c1.1,0,1.2,1.2,1.2,1.7c0,0.6-0.2,1.9-1.2,1.9C40.9,245.1,40.7,243.9,40.7,243.3 M48.5,244.2
			c0,0.3-0.5,0.9-1.1,0.9c-0.9,0-1.4-0.6-1.4-1.5h3.4c0-1.6-0.8-2.6-2-2.6c-1.4,0-2.2,1.1-2.2,2.5c0,1.4,0.8,2.3,2,2.3
			c0.8,0,0.9-0.2,1.2-0.3c0.6-0.3,0.8-1.1,0.9-1.2L48.5,244.2 M46,243c0-0.6,0.6-1.4,1.2-1.4c0.9,0,1.2,0.8,1.2,1.4H46 M51.6,239.4
			h-0.8v6.2h0.8V239.4 M53.9,241.1h-0.6v4.5h0.6V241.1 M53.9,240.3v-0.9h-0.6v0.9H53.9 M56.4,242.5c0-0.5,0-0.9,0.9-0.9
			c0.8,0,1.1,0.3,1.1,0.8c0,0.5-0.2,0.5-0.3,0.5l-1.4,0.2c-1.1,0.3-1.2,1.1-1.2,1.4c0,0.9,0.5,1.4,1.4,1.4c0.9,0,1.2-0.5,1.7-0.8
			c0,0.3,0,0.8,0.6,0.8c0.3,0,0.3,0,0.5-0.2v-0.5h-0.2c-0.3,0-0.3-0.2-0.3-0.3v-2.6c0-1.1-1.4-1.2-1.7-1.2c-1.1,0-1.9,0.5-1.9,1.6
			L56.4,242.5 M58.4,244.1c0,0.6-0.6,1.1-1.4,1.1c-0.6,0-0.8-0.3-0.8-0.8c0-0.6,0.6-0.8,0.9-0.8c0.9-0.2,1.1-0.2,1.2-0.3V244.1
			 M64.6,242.7c-0.2-0.8-0.6-1.7-1.7-1.7c-1.5,0-2.2,1.1-2.2,2.5c0,1.4,0.8,2.3,2,2.3s1.7-1.1,1.9-1.7h-0.8
			c-0.2,0.6-0.5,1.1-1.1,1.1c-1.1,0-1.2-0.9-1.2-1.9c0-0.8,0.3-1.7,1.2-1.7c0.6,0,1.1,0.5,1.1,1.1L64.6,242.7 M69.4,245.6v-4.5h-0.6
			v2.5c0,0.6-0.3,1.5-1.2,1.5c-0.6,0-0.8-0.3-0.8-0.9v-3.1h-0.9v3.3c0,1.1,0.9,1.4,1.6,1.4c0.8,0,1.1-0.2,1.4-0.8v0.6L69.4,245.6
			 M74.5,242.4c0-0.2-0.2-1.4-1.7-1.4c-0.9,0-1.7,0.5-1.7,1.6c0,0.5,0.3,0.8,0.9,0.9l0.9,0.3c0.6,0.2,0.9,0.3,0.9,0.6
			c0,0.5-0.5,0.8-1.1,0.8c-1.1,0-1.1-0.6-1.1-0.9h-0.9c0,0.5,0.3,1.6,2,1.6c1.1,0,1.9-0.5,1.9-1.6c0-0.6-0.5-0.9-1.2-1.2l-0.8-0.2
			c-0.6,0-0.9-0.2-0.9-0.6c0-0.6,0.8-0.6,0.9-0.6c1.1,0,1.1,0.5,1.1,0.8L74.5,242.4"/>
	</g>
</g>
</svg>
